<?xml version="1.0" encoding="utf-8"?>
<!-- Generator: Adobe Illustrator 26.0.2, SVG Export Plug-In . SVG Version: 6.00 Build 0)  -->
<svg version="1.1" id="Layer_1" xmlns:serif="http://www.serif.com/"
	 xmlns="http://www.w3.org/2000/svg" xmlns:xlink="http://www.w3.org/1999/xlink" x="0px" y="0px" viewBox="0 0 450.5 901"
	 style="enable-background:new 0 0 450.5 901;" xml:space="preserve">
<style type="text/css">
	.st0{fill-rule:evenodd;clip-rule:evenodd;fill:#487938;}
	.st1{fill-rule:evenodd;clip-rule:evenodd;fill:#32221C;}
	.st2{fill-rule:evenodd;clip-rule:evenodd;fill:#D4CCAA;}
</style>
<path class="st0" d="M109.8,544.3c0,0-3.8,8-3,15.1c1.2,9.9-4,19.7-3.1,29.3c1.3,14.4-9.2,27.4-10.3,41.8
	c-0.8,9.6,1.2,19.5,1.8,29.1c1.6,25.7,3.6,51,5.8,76.7c1,12-0.3,77.3,7.9,90.1c6.2,9.7,16.7,15.4,26.2,21.2
	c9.7,5.9,19.4,11.4,30.2,15c13.6,4.6,27.7,8,42,9.8c20.6,2.6,40.9,5.8,61.6,3.7c10.7-1.1,21.8-2.1,32.2-4.8
	c6.8-1.7,72.8-21.5,77.4-27.4c15-19,20.1-78.3,19.5-101.6c-0.4-14.9-3.7-29.3-4.7-44.1c-1.7-25.1,3.1-48.7,6.8-73.3
	c3.5-23.5,5.9-47.1,8.9-70.6c1.8-14.2,6-27.9,5.4-42.3c-0.7-16.2-12.6-26.8-15.8-42.5l3.9,8.8c-8.4-14-18.7-23.2-36-17.4
	c0,0,18.2-137.4,28.4-189.9c9-46.7,16-91.2,3.8-138.2c0,0-52.4-17-71-22.9c-28.9-9.3-67.8,27.5-90.9,49.4
	c-5.6,5.4-7.7,28.2-12.8,34.1c-8.6,9.8-7.3,35.1-13.2,46.8c-14.3,27.8-7.2,73.2-10.2,103.7c-2.3,23.7,1.8,46.6-3.3,70.2
	c-5.3,24.1,2.6,52.9-29.2,55.9l-0.6,2.6C128.6,485.9,117.9,504.4,109.8,544.3z"/>
<path class="st1" d="M165.9,471.1l0.4-1.6c0.2-0.8,0.8-1.4,1.6-1.4c11.9-1.1,17.9-6.1,21.1-13.2c5-11.1,3.4-27,6.5-41.3
	c1.5-6.9,2.2-13.8,2.5-20.6c0.7-16.4-0.8-32.6,0.9-49.3c2.1-21-0.5-49,2.3-73.5c1.3-11.4,3.7-21.9,8.3-30.8
	c4.6-8.9,4.8-26.1,8.7-37.9c1.2-3.6,2.7-6.8,4.8-9.1c3.8-4.4,5.8-18.4,9-27.2c1.1-3.1,2.4-5.5,3.9-6.9
	c13.2-12.5,31.5-29.9,50.3-40.8c14.5-8.4,29.2-13,41.9-8.8l70.9,23c0.4,0.1,0.7,0.4,0.8,0.8c4.9,18.8,6.7,37.2,6.5,55.6
	c-0.2,27.6-5,55-10.4,83.1c-3.5,18.2-8,46.5-12.4,75.8c-7.4,49.7-14.4,102.1-15.7,112.3c8.2-2.4,14.9-1.3,20.6,1.9
	c3.8,2.2,7.2,5.4,10.3,9.4c0.1-0.7,0.5-3,1.1-1.4l3.8,8.8c0.2,0.6,0,1.2-0.5,1.5c2.9,6.5,6.7,12.4,9.3,18.9c1.7,4.3,3,8.7,3.2,13.7
	c0.2,4.4,0,8.7-0.5,13c-1.1,9.9-3.5,19.6-4.8,29.6c-2.1,16.5-3.9,33-5.9,49.5c-0.9,7.1-1.8,14.1-2.8,21.2c-2.1,14.8-4.7,29.2-6,43.8
	c-0.9,9.6-1.2,19.3-0.5,29.2c0.7,10.4,2.6,20.5,3.7,30.8c0.5,4.4,0.9,8.9,1,13.4c0.4,13.7-1.2,39.8-5.5,62.9
	c-3.2,16.7-7.8,31.9-14.2,40c-0.7,0.8-2.3,2-4.8,3.2c-4.1,2.1-10.8,4.7-18.6,7.4c-21.4,7.6-50.7,16.3-55.1,17.5
	c-4.3,1.1-8.6,1.9-13,2.6c-6.5,1-13.1,1.6-19.5,2.2c-8.4,0.9-16.7,0.9-25,0.4c-12.4-0.7-24.6-2.5-37-4.1c-7.2-0.9-14.3-2.2-21.4-3.9
	c-7.1-1.7-14.1-3.7-20.9-6c-4.4-1.5-8.6-3.3-12.7-5.3c-6.1-3-12-6.4-17.9-10c-5.8-3.5-11.9-7-17.3-11.4c-3.7-3-7-6.4-9.6-10.4
	c-2.8-4.4-4.7-14.9-5.8-27.4c-2.1-24-1.7-55.6-2.4-63.6C98,723.9,97,711.1,96,698.4c-1-12.8-1.9-25.5-2.7-38.4
	c-0.4-6.7-1.5-13.6-1.8-20.4c-0.2-3-0.2-6,0.1-9c0.8-10.2,6.2-19.6,8.9-29.3c1.1-4,1.8-8.1,1.5-12.2c-0.7-7.8,2.5-15.7,3.2-23.7
	c0.2-1.8,0.2-3.7,0-5.6c-0.3-2.8,0-5.7,0.6-8.3c1-4.4,2.6-7.8,2.6-7.8h-0.3c-0.1,0.1-0.1,0.3-0.2,0.4V544c4.1-20.1,9-34.9,17.6-46.3
	C134,486.1,146.4,477.9,165.9,471.1z M398.7,474.6c2.8,8.9,8.1,16.3,11.4,24.6c1.6,4,2.8,8.2,3,12.8c0.2,4.3-0.1,8.4-0.6,12.6
	c-1.1,9.9-3.6,19.6-4.9,29.5c-2.1,16.5-4,33-6.1,49.4c-0.9,7-1.9,14.1-2.9,21.1c-2.2,14.8-4.9,29.3-6.2,43.9
	c-0.9,9.8-1.3,19.6-0.7,29.7c0.7,10.4,2.5,20.6,3.6,30.9c0.5,4.3,0.8,8.7,1,13.1c0.3,13.6-1.3,39.3-5.7,62.1
	c-3.1,16-7.4,30.6-13.6,38.3c-0.5,0.6-1.7,1.3-3.5,2.1c-4,2-10.6,4.5-18.1,7.2c-21.3,7.6-50.4,16.2-54.8,17.3
	c-4.1,1.1-8.3,1.9-12.6,2.5c-6.4,1-13,1.6-19.4,2.2c-8.2,0.8-16.3,0.8-24.4,0.4c-12.3-0.7-24.5-2.5-36.8-4c-7.1-0.9-14.1-2.2-21-3.8
	c-7-1.6-13.8-3.6-20.6-5.9c-4.2-1.4-8.3-3.2-12.3-5.1c-6-2.9-11.8-6.3-17.5-9.8c-5.7-3.4-11.6-6.8-16.9-11.1
	c-3.4-2.8-6.4-5.8-8.8-9.6c-2.7-4.1-4.2-14-5.2-25.7c-2.1-24-1.8-55.6-2.4-63.6c-1.1-12.8-2.1-25.6-3.1-38.3
	c-1-12.7-1.9-25.5-2.7-38.3c-0.4-6.7-1.5-13.5-1.9-20.3c-0.1-2.9-0.2-5.7,0.1-8.5c0.8-9.9,6.1-19.2,8.8-28.6c1.3-4.4,2-8.9,1.6-13.5
	c-0.7-7.6,2.5-15.3,3.1-23.1c0.2-2.1,0.2-4.2-0.1-6.3c-0.3-2.4,0-4.9,0.5-7.2c0.9-4,2.3-7,2.3-7v0.1c0.1-0.2,0.1-0.3,0.1-0.5h0.3
	c3.9-19.4,8.5-33.7,16.7-44.8c8.3-11.1,20.3-18.9,39.2-25.4c0.4,0.1,1.3,0.2,1.7-1.8l0.3-1.1c12.8-1.6,19.3-7.4,22.7-15.3
	c5-11.4,3.5-27.5,6.6-42c1.5-7.1,2.2-14.2,2.5-21.2c0.7-16.3-0.9-32.5,0.7-49.1c2-21-0.7-49,2-73.4c1.2-11,3.5-21.2,7.9-29.8
	c4.6-9.1,4.9-26.4,8.8-38.4c1.1-3.2,2.4-6.1,4.2-8.1c4-4.5,6.2-19,9.5-28.2c0.9-2.6,1.9-4.7,3.2-5.8c13-12.4,31.2-29.7,49.7-40.5
	c13.7-8,27.7-12.6,39.8-8.7l70.4,22.7c4.7,18.4,6.5,36.4,6.4,54.3c-0.2,27.5-4.9,54.7-10.3,82.7c-3.5,18.2-8,46.5-12.4,75.8
	c-8.3,55.3-16.1,114.1-16.1,114.1c-0.1,0.4,0.1,0.8,0.4,1c0.3,0.3,0.7,0.3,1.1,0.2c8.3-2.8,14.9-2,20.4,1.2
	C391.6,465.7,395.3,469.7,398.7,474.6z"/>
<path class="st0" d="M256,231.9c-1.7,0.7,2.9-6.8,4.4-5.6c1.1,0.8,0.9-2.6,1.3-3.9c0.8-3.2,1.4-6.4,2.1-9.6c2.2-9,4-18.1,6-27.2
	c5.5-24.7,24-38.3,45.6-49.4l83.3-3.5c-23.6-91.2-119-130.6-200.8-87.4C158,66.5,110.8,113.2,94.8,155.8L256,231.9z"/>
<path class="st1" d="M100.1,158.3c-0.8-0.3-1.5-0.6-2.1-0.8c-2.3-0.8-3.6-0.8-3.6-0.8c-0.5-0.2-0.7-0.7-0.5-1.2
	c0.2-1.6,0.3-3.1,0.7-4.7c0.3-1,0.8-1.9,1.2-2.9c8.6-19.4,23.1-39.2,40-56.9c18.9-19.8,40.9-36.9,61-47.5
	c41.6-22,86.7-22.9,124.3-6.6c34,14.7,62,43.4,75.7,83.2c0.7,2,1.4,4,2,6.1c0.5,2.1,0.8,4.2,1.2,6.3c0.1,0.4,0,0.8-0.2,1.1
	s-0.6,0.5-1,0.5c-3.5-0.3-6.8-0.7-10-0.8c-0.4,0-0.8,0-1.2,0c-1.9,0.1-3.7,0.1-5.4,0.2c-66.6,3.1-66.6,2.8-66.6,2.8
	c-1.8,0.9-3.6,1.9-5.4,2.9l0,0c0.2,0.1,0.2,0.1,0,0.1c-0.1,0.3-0.2,0.8-0.4,1.4c0,0-0.1,0-0.1,0.1l-0.6,0.4c-0.3,0.7-0.5,1-0.3,0.2
	l0,0l0.2-0.2c0.2-0.5,0.5-1.2,0.8-1.7l0,0l0.1-0.1l0,0l-0.1,0.1v0.1c-0.2,0.1-0.3,0.3-0.5,0.3l0,0c0-0.1,0.3-0.1,0.4-0.2l0.2-0.1
	v-0.1c-0.6,0-1.6-0.1-2-0.2l0.5-0.3c0.1,0,0.2-0.2,0.3-0.1c0.6,0.2,1,0.3,1.3,0.4c0.3-0.6,0.4-0.8,0.2,0.1l0,0l0,0l0,0l0,0
	c1.8-1,3.6-1.9,5.4-2.9l0,0c0,0,0-0.3,66.6-2.8c1.8-0.1,3.6-0.2,5.4-0.2c0.4,0,0.8-0.1,1.2-0.1c2.7-0.3,5.4-0.8,8.3-1.4
	c-0.6-1.5-1.2-3-1.8-4.6c-0.7-2-1.3-4-2-6c-13.5-38.6-40.7-66.4-73.8-80.5C283,25.2,239.3,26.1,199,47.5
	c-19.7,10.4-41.3,27.2-59.9,46.6c-16.6,17.3-30.8,36.7-39.5,55.6c-0.4,0.9-0.7,1.9-1.2,2.8c-0.7,1.2-1.6,2.3-2.4,3.4
	c0.5,0.4,1.1,0.9,2.1,1.5C98.7,157.5,99.3,157.9,100.1,158.3c1.1,0.5,2.4,1.1,3.9,1.8c2.1,0.9,4.4,2,7,3.2
	c28.8,13.7,89.2,42.2,122.2,57.8l5.9,2.8l15.3,7.2l0,0l1.6,0.8h0.5v1.2c-0.8,0.4-1.3,0.1-1.6-0.2c-0.3-0.2-0.6-0.7-0.5-1.5
	c0-0.1,0-0.2,0-0.3l-15.3-7.2l-5.9-2.8c-33-15.6-93.4-44.1-122.3-57.7c-2.6-1.2-4.9-2.4-6.9-3.4
	C102.5,159.4,101.2,158.8,100.1,158.3z M307.7,139.1l-0.2,0.1l0,0c0.2,0.1,0.5,0.1,0.7,0.2l0.9,0.2l0,0c-0.2,0.8-0.4,1.3-0.5,1.6
	c-4.8,3-9.3,6.2-13.5,9.5c-4.3,3.5-8.4,7.1-11.8,11.2c-5.5,6.7-9.7,14.5-11.8,24l-6,27.2l-2.1,9.6c-0.3,1-0.3,3-0.7,3.9
	c-0.4,1-1.1,1.4-1.8,1.4c-0.3,0-0.6,0-0.9-0.1l-3.1,3.7c0,0-0.3-0.7-0.4-0.9c-0.2-0.2-0.5-0.4-1-0.2l0.5,1.2l-1.6-0.8
	c0.2-0.6,0.6-1.7,1.2-2.7c0.9-1.5,2.2-3,3.1-3.5c0.4-0.3,0.8-0.4,1.2-0.4c0-0.8-0.1-2,0-2.5l2.1-9.6l6-27.1
	c2.8-12.8,9.1-22.7,17.4-30.8c2.4-2.3,4.9-4.5,7.6-6.5c3.9-2.9,8.2-5.4,12.6-7.8c0.6-0.3,1.3-0.7,1.9-1
	C307.3,139.1,307.4,139.1,307.7,139.1z M259.9,225c0,0.3-0.2,0.5-0.4,0.4C259.2,225.3,259.6,225.1,259.9,225z"/>
<path class="st0" d="M206,464.5c13.7,9.8,23.3-1.2,31.7-12.1c17.5-22.6,20-50.8,25.8-77.7c4.2-19.6,5.2-42.9,6.7-63
	c0.6-7.7,0.3-15.7,1.9-23.3c1.4-6.4,3.6-12.9,6.8-18.6c4.3-7.8,11.9-13.5,11.4-23.1c-0.5-10.9-10.8-19.2-18.8-25.1
	c-1.7-1.3-3.6-2.3-5.1-3.8c-0.2-0.2-1.6-2-1.7-2"/>
<path class="st1" d="M263.5,217.2c0.2,0.2,1.4,1.6,1.5,1.8c0.5,0.5,1.1,1,1.6,1.4c1.2,0.9,2.5,1.7,3.7,2.6c4.6,3.4,10,7.7,13.8,12.8
	c2.4,3.3,4,6.9,4.2,10.9c0.2,3.5-0.8,6.4-2.3,9.1c-2.5,4.5-6.2,8.4-8.8,13.1c-1.3,2.4-2.5,4.9-3.4,7.4c-0.5,1.5-0.9,3.1-1.4,4.7
	c-0.5,1.9-1.1,3.8-1.6,5.6c-0.1,0.5-0.3,0.9-0.5,1.4c-0.7,3.1-1.1,6.3-1.3,9.5c-0.3,4.7-0.4,9.4-0.7,14c-0.8,12-1.4,25.1-2.8,37.9
	c-0.9,8.6-2.2,17-3.9,24.9c-3.4,16.1-5.7,32.7-10.7,48.2c-3.3,10.2-7.9,19.9-14.7,28.8c-4.9,6.2-10,12.6-16.2,14.6
	c-3.5,1.1-7.4,0.8-11.8-1.9c-0.3-0.2-0.6-0.6-1-0.6c-1.2,0,0.1-0.1-0.8,0.7c-0.3-0.2-0.7-0.1-0.9,0.2c-0.2,0.3-0.1,0.7,0.2,0.9
	c-0.4,1.2-0.7-0.1-0.3,1c0.1,0.4,0.7,0.5,1.1,0.8c5.4,3.6,10.3,4,14.8,2.6c6.9-2.1,12.7-9,18-15.9c7.1-9.2,11.7-19.3,15.2-29.9
	c5.1-15.7,7.5-32.3,11-48.5c1.7-8,2.7-16.6,3.6-25.3c1.3-12.8,2.1-26,3-38c0.4-5.4,0.4-10.9,0.9-16.3c0.2-2.3,0.5-4.5,1-6.7
	c0.1-0.5,0.1-1,0.2-1.6c0.4-2,0.9-4.1,1.6-6c0.3-0.7,0.7-1.4,1-2.1c1.2-2.9,2.4-5.7,3.9-8.4c3.1-5.6,7.7-10.1,10.1-15.6
	c1.1-2.6,1.7-5.4,1.5-8.5c-0.2-4.7-2.2-9-5-12.9c-3.9-5.4-9.7-10-14.6-13.6c-1.2-0.9-2.5-1.6-3.7-2.5c-0.4-0.3-0.9-0.7-1.3-1.1
	c-0.1-0.1-1.1-1.3-1.5-1.8c-0.9-0.9-2-0.6-2.2-0.6c-0.9,0.4-1.4,1.5-1,2.4C263.1,216.8,263.3,217,263.5,217.2z"/>
<path class="st0" d="M114.7,117.1c-35.9,42.5-36.1,98.9-48,127.7c-6.2,15.2-35.1,10-38,35.8c-2.2,19.6,28.7,18.2,24.5,33.7
	c-12.4,46-0.7,120.7,23.8,146c8.4,8.7,25.9,5.9,35.5,7c21.1,2.3,77.2,16.9,92.2-2.1c14.6-18.6,15.8-86.2,19.7-112.3
	c2.3-15.6,4.4-32.8,8.3-48.1c0.3-1,8.5,1.4,9.1,1.4c5.6,0.8,10.7-1.7,14.1-6c9.8-12.5,11.6-34.9-4.1-42.8"/>
<path class="st1" d="M234.3,306.6c2.4,0.3,6.8,1.6,7.2,1.6c3.2,0.4,6.2,0,9-1.3c2.7-1.2,5-3.1,6.9-5.6c4.9-6.5,7.9-15.5,7.5-24
	c-0.3-7.1-3-13.6-8.4-18c-1.3-1-2.7-2-4.3-2.8c-0.4-0.2-0.9,0-1.1,0.4c-0.2,0.4,0,0.9,0.4,1.1c1.5,0.7,2.8,1.6,3.9,2.6
	c4.8,4.2,6.6,10.3,6.6,16.7c0,7.7-2.9,15.8-7.6,21.5c-1.5,1.9-3.4,3.4-5.5,4.3c-2.1,0.9-4.4,1.3-6.8,0.9c-0.5-0.1-6.3-1.7-8.5-1.7
	c-1.8,0-2.7,1.1-2.8,1.8c-1.6,6.2-2.9,12.7-4,19.3c-1.7,9.7-3,19.7-4.4,29c-2.5,17.3-3.9,52.5-8.8,79.9
	c-2.4,13.7-5.6,25.3-10.5,31.5c-4.7,6-13.8,8.2-24.5,8.7c-22.5,1.1-51.9-5.9-65.8-7.4c-5.7-0.6-14.3,0.1-22.1-1
	c-4.7-0.7-9.1-2.1-12.2-5.3c-12.8-13.2-21.9-40.1-26-69.2c-3.6-25.9-3.1-53.5,2.6-74.9c1.2-4.3,0.1-7.5-2.2-10.2
	c-3.4-4-9.9-6.7-15.2-10.4c-4.3-3-7.8-6.9-7.1-13.4c0.7-6.2,3-10.5,6.1-13.6c5.4-5.4,13.1-7.7,19.5-10.7c5.5-2.6,10.1-5.7,12.2-11
	c7.7-18.8,10.6-49.2,21.4-79.9c5.8-16.3,13.9-32.6,26.3-47.3c0.7-0.8,0.6-2.1-0.2-2.8c-0.8-0.7-2.1-0.6-2.8,0.2
	c-12.7,15.1-21,31.8-27,48.5c-10.9,30.6-13.6,61-21.3,79.7c-2.2,5.5-7.8,7.9-13.8,10.5s-12.4,5.2-17.2,10c-3.7,3.7-6.4,8.7-7.2,15.9
	c-0.4,4,0.3,7.2,1.9,9.9c3.6,6.4,11.7,9.7,17.6,13.7c3.7,2.5,6.4,5.2,5.1,9.8c-5.9,21.8-6.4,50-2.8,76.4c4.2,30.1,13.8,57.8,27,71.4
	c2.8,2.9,6.5,4.7,10.6,5.7c8.7,2.2,19.3,1.1,26.1,1.9c14.1,1.5,43.7,8.5,66.4,7.5c12.1-0.6,22.3-3.5,27.6-10.3
	c5.1-6.5,8.7-18.8,11.3-33.3c4.9-27.4,6.2-62.7,8.8-80c1.4-9.3,2.7-19.2,4.3-28.9C231.7,318.2,232.9,312.3,234.3,306.6z"/>
<path class="st2" d="M93.2,249.2c0,0,13.6,0.2,19.3,6.8c7.2,8.2,1.3,28-9.3,30.9C85.6,291.6,75,255.6,93.2,249.2z"/>
<path class="st1" d="M92.6,248.6c0.1-0.4,0.2-0.7,0.4-0.8h-0.3c-9.8,3.4-12.3,14.5-9.7,24.5c1.2,4.8,3.6,9.2,6.8,12.3
	c3.7,3.6,8.5,5.3,13.8,3.8c5.7-1.6,10.2-7.6,12.3-14.5c2-6.9,1.6-14.4-2.3-18.8c-2.4-2.8-6.1-4.6-9.7-5.6c-4-1.2-7.8-1.5-9.6-1.6
	c-0.3,0-0.6-0.1-0.8,0C93.1,248.1,92.8,248.4,92.6,248.6z M93.7,250.7c0.2,0,0.4,0,0.6,0c2.1,0.2,6.5,0.7,10.6,2.3
	c2.4,0.9,4.8,2.2,6.4,4c3.3,3.7,3.5,10.2,1.8,16.1c-1.8,5.8-5.5,11.1-10.4,12.3c-4.1,1-7.7-0.5-10.6-3.3c-2.7-2.7-4.8-6.6-5.9-10.7
	C84.1,263.1,85.6,253.6,93.7,250.7L93.7,250.7z M92.5,249.7c0.1,0.6,0.4,1.1,0.7,1.1v-0.4c-0.7-0.6,0-0.5,0-0.5h-0.1
	C93,249.9,92.7,249.8,92.5,249.7z"/>
<path class="st2" d="M151.5,252.5c38.7-26.4,42.8,14.6,21.8,29.9C155.5,295.3,140.5,260,151.5,252.5z"/>
<path class="st1" d="M150.8,251.4c-0.3-0.1-0.4-0.1-0.7,0c-1.8,0.5-2.5,2.7-3.2,4.5c-2.1,5.6-0.5,14.3,3.6,21.1
	c5.2,8.6,14.3,13.9,23.9,6.9c4.3-3.2,7.5-7.4,9.7-11.9c3.9-8,4.5-16.9,1.4-22.7c-4-7.6-14.4-11-31.8-0.2c-0.9,0.6-2,1-2.8,1.9
	l-0.1,0.1C150.8,251.2,150.8,251.3,150.8,251.4z M152.3,253.6c0.1,0,0.2,0,0.4,0.1c0.1,0,0.1,0,0.2,0c1-0.4,1.8-1.2,2.7-1.7
	c14.8-9.1,23.6-7.7,27-1.2c2.7,5.1,2.2,12.9-1.3,19.8c-2,4-5.1,7.7-9,10.4c-7.6,5.5-14.4,0.8-18.6-5.9c-3.5-5.7-5.2-13-3.4-17.9
	c0.4-1.2,1.4-1.9,2-3C152.4,253.9,152.2,253.8,152.3,253.6z M152.3,253.6c0.1,0,0.1-0.2-0.3-0.6L152.3,253.6L152.3,253.6z
	 M150.8,251.4c0.1-0.1,0.2,0,0.4,0.5L150.8,251.4L150.8,251.4z"/>
<path class="st1" d="M275.5,170.5c0.5,0.1,0.9,0.3,1.5,0.2c1.6-0.1,3.1-1.1,4.7-1.4c0.5-0.1,1.1-0.1,1.7-0.1c1.5,0,3.1,0.2,4.6,0.1
	c5.5-0.4,10.4,0.1,15,1.4c3.7,1.1,7.2,2.9,10.7,5.3c0.3,0.2,0.6,0.5,1,0.7c0.5,0.3,1.1,0.5,1.7,0.8c0.6,0.5,1.4,0.4,1.9-0.2
	s0.4-1.4-0.2-1.9c-0.4-0.5-0.8-1-1.3-1.5c-0.3-0.3-0.7-0.5-1.1-0.8c-3.8-2.7-7.7-4.5-11.8-5.6c-5-1.4-10.2-1.7-16.1-1.2
	c-1.4,0.1-2.9,0-4.4,0c-0.7,0-1.4,0.1-2.2,0.2c-1.7,0.4-3.5,0.8-5,1.7c-0.4,0.3-0.6,0.6-1,0.9c-0.4,0.1-0.6,0.4-0.5,0.8
	C274.8,170.3,275.1,170.5,275.5,170.5z"/>
<path class="st1" d="M270.5,177.3c0.4,0.6-0.3,0.2,0.3,0.5c0.2,0.1,0.4,0,0.5-0.1c2.1-0.4,4.3-0.5,6.4-0.4
	c6.8,0.3,11.1,3.4,14.3,7.8c3.5,4.8,5.5,11.1,7.9,17c1.1,2.7,2.4,5.2,3.7,7.5c0.2,0.5,0.8,0.7,1.3,0.5s0.7-0.8,0.5-1.3
	c-0.8-2.5-1.4-5.2-2.3-7.9c-2-6.4-4.5-12.9-8.3-17.9c-3.8-5.1-9.1-8.5-17-8.6c-2.1,0-4.2,0-6.2,0.5c-0.5,0.1-1.1,0-1.4,0.4
	c-0.4,0.6,0-0.1,0,0.6c-0.4,0.1-0.5,0.5-0.4,0.8C269.8,177.2,270.2,177.4,270.5,177.3z"/>
<path class="st1" d="M267.1,191.6c0.4,0.6,0.7,1.2,1.2,1.8c4.1,4.7,8.6,8.5,11.4,13.5c2.2,3.9,3.6,8.2,4.5,12.8
	c0.4,1.9,0.8,3.8,1,5.8c0,0.7,0.6,1.2,1.3,1.2s1.2-0.6,1.2-1.3c0.1-2.2,0.1-4.3-0.2-6.3c-0.7-5.1-2.5-9.7-4.9-14
	c-3.1-5.3-6.8-10.8-12.7-13.9c-0.7-0.4-1.3-0.5-2.1-0.7c-0.3-0.2-0.7-0.1-0.9,0.1C266.7,191,266.8,191.4,267.1,191.6z"/>
<path class="st1" d="M136.1,438.5c0.6-0.1,0.3,0.3,0.8-0.1c0.2-0.1,0.2-0.4,0.4-0.6c1.5-2.6,4.3-4.6,7.4-5.7c3.3-1.2,7.1-1.5,10,0
	c1.1,0.5,2,1.3,2.8,2.2c1.1,1.1,1.9,2.6,2.9,3.7c0.3,0.3,0.6,0.6,1,0.9c0.4,0.8,1.4,1,2.1,0.6c0.8-0.4,1-1.4,0.6-2.1
	c-0.2-0.6-0.3-1.1-0.5-1.7c-0.5-1.2-1.4-2.3-2.3-3.3c-1.3-1.6-3-3-4.8-3.9c-3.9-1.9-8.9-1.8-13.3,0c-3.8,1.6-7.2,4.5-8.6,8.1
	c-0.1,0.3-0.4,0.6-0.3,0.9c0.1,0.6,0.1,0.2,0.5,0.6c-0.1,0.4,0.1,0.7,0.4,0.9C135.6,439,136,438.8,136.1,438.5z"/>
<path class="st1" d="M79.4,441.1c0.2-0.2,0.3-0.2,0.5-0.4s0.2-0.5,0.4-0.7c1.6-3.1,4.7-6.7,8.2-9c2.6-1.7,5.4-2.7,7.9-2.1
	c1.5,0.3,2.7,1.1,3.9,2.1c0.9,0.8,1.8,1.7,2.6,2.6c0.9,1,1.8,1.9,2.6,2.8c0.5,0.6,1.3,0.6,1.9,0.1s0.6-1.3,0.1-1.9
	c-0.8-1-1.5-2.1-2.4-3.1s-1.9-2-2.9-2.9c-1.5-1.3-3.2-2.2-5.1-2.7c-4.1-0.9-8.6,1-12.3,4.2c-3,2.7-5.5,6.2-6.6,9.2
	c-0.1,0.2-0.2,0.4-0.2,0.6c0,0.3,0,0.5,0.1,0.7c-0.1,0.4,0.1,0.8,0.5,0.9C78.9,441.6,79.3,441.4,79.4,441.1z"/>
<path class="st1" d="M142,452.2c-3.9,0.9,11.7,3.7,15.1,2.5c3.6-1.3,3.8-4.2,0.4-6.8c-3.2-2.5-9.9-2.4-13.4-0.9L142,452.2z"/>
<path class="st1" d="M83.5,447.9c-2.7,5.5,9.2,1.5,12.2,0.1c1.5-0.7,5.4-1.6,5.6-3.5c0.3-2.6-4.5-3.6-6.2-3.9
	C90,439.6,85.7,443.5,83.5,447.9z"/>
<path class="st1" d="M99.6,265.4c-4.5,1.6-4,8.4,0.5,6.2C103.5,269.9,99.6,265.4,99.6,265.4z"/>
<path class="st1" d="M162.5,265.6c0,0,1.4-9.1,5.3-4.5C174.1,268.7,162.5,265.6,162.5,265.6z"/>
</svg>
