<?xml version="1.0" encoding="utf-8"?>
<!-- Generator: Adobe Illustrator 26.0.2, SVG Export Plug-In . SVG Version: 6.00 Build 0)  -->
<svg version="1.1" id="Layer_1" xmlns:serif="http://www.serif.com/"
	 xmlns="http://www.w3.org/2000/svg" xmlns:xlink="http://www.w3.org/1999/xlink" x="0px" y="0px" viewBox="0 0 490.6 1126.8"
	 style="enable-background:new 0 0 490.6 1126.8;" xml:space="preserve">
<style type="text/css">
	.st0{fill-rule:evenodd;clip-rule:evenodd;fill:#0E3A76;}
	.st1{fill-rule:evenodd;clip-rule:evenodd;}
	.st2{fill-rule:evenodd;clip-rule:evenodd;fill:#8DBCBE;}
	.st3{fill-rule:evenodd;clip-rule:evenodd;fill:#84C4E6;}
	.st4{fill-rule:evenodd;clip-rule:evenodd;fill:#32221C;}
	.st5{fill-rule:evenodd;clip-rule:evenodd;fill:#D0F0F1;}
	.st6{fill-rule:evenodd;clip-rule:evenodd;fill:#46BDCC;}
	.st7{fill-rule:evenodd;clip-rule:evenodd;fill:#774161;}
	.st8{fill-rule:evenodd;clip-rule:evenodd;fill:#C1E4E5;}
	.st9{clip-path:url(#SVGID_00000091736932185567838750000011955004267499209880_);}
	.st10{fill-rule:evenodd;clip-rule:evenodd;fill:#005280;}
	.st11{fill-rule:evenodd;clip-rule:evenodd;fill:#042148;}
</style>
<g id="Layer2" transform="matrix(1,0,0,1,406.943,-158.555)">
	<path class="st0" d="M-334,880.6c4.8-52.7,1.3-97.2,19.6-146.7c4.4-12,12.2-25.8,16.2-33.4c9.3-17.7,23.9-36.1,44.2-39.9
		c26.7-5,39.2-8.8,61.5-16.1c14.5-4.8,21.7-8,37.3-7.4c6.2,0.3,7.5,6.6,21.9-2.6c5.2-3.3,1.1,2.8,6.7,5.7
		c14.3,7.5,39.3,10.2,49.7,21.3c5.6,5.9,12.2,10.7,17.3,17.1c8.2,10.2,12.6,22.4,18.9,33.6c7.1,12.6,15.9,24.5,21.1,38
		c5.1,13.4,6.6,27.5,8.7,41.6c6.8,46,9.1,92.2,6,138.6v-9.5c3.1,21.2,4.7,42.5,1.8,63.9c-3.5,25-10.8,48.4-8.7,74
		c1.9,22.9,20.2,70.7,12.7,89.1c-6.3,15.6-19.6,26.9-30.9,38.7c-59.4,61.9-165.3,94.5-237.1,32.2c-12.1-10.5-20.6-25-26.9-39.5
		c-7.1-16.4-7.7-33.4-11.7-50.5c-5.3-22.9-12.8-40.7-14.2-65.3c-1.6-28.8,2.6-57.2-0.4-86c-3.3-32-13.2-65.5-12.2-97.8
		c0.3-8.2,2.8-16.1,3.7-24.2L-334,880.6z"/>
	<path class="st1" d="M-334.4,873.5l-1.4,6.7l1.1,0.2v0.1v-0.1c0,0.6,0.1,1.2,0.3,1.6c-0.1,9.1,0.5,18.2,1.6,27.4
		c2.8,22.9,8.3,45.9,10.5,68.2c0.9,8.6,1.1,17.1,1,25.6c-0.1,20.1-1.9,40.1-0.7,60.4c0.5,9.7,2,18.4,4,26.8c3,12.8,7,24.9,10.3,38.8
		c2.8,12,3.9,24,6.8,35.7c1.2,5.1,2.8,10.1,5,15.1c3.2,7.4,6.9,14.7,11.4,21.6s9.8,13.3,16,18.7c36.4,31.6,81.6,39.2,125.1,30.9
		c43.2-8.2,84.7-32.1,114.6-63.3c6.8-7.1,14.3-14.1,20.6-21.9c4.3-5.3,8-11,10.6-17.4c2.6-6.5,2.2-16.5,0.4-27.9
		c-3.5-21.1-11.8-47-13.1-62c-0.8-10.1-0.2-19.8,1.1-29.5c2-14.7,5.4-29.2,7.5-44.2c1.5-10.8,1.8-21.5,1.4-32.3
		c-0.4-9.7-1.4-19.3-2.8-29c1.2-21,1.2-42,0.3-62.9c-1.1-23.2-3.3-46.3-6.7-69.3c-1.3-8.5-2.3-17-4-25.3c-1.2-5.6-2.6-11.1-4.7-16.6
		c-1.6-4.1-3.5-8.1-5.6-12c-4.8-8.9-10.6-17.4-15.6-26.2c-4.4-7.9-7.9-16.2-12.4-24c-2-3.4-4.1-6.7-6.6-9.8c-1.6-2-3.3-3.8-5-5.5
		c-4-4-8.4-7.5-12.3-11.7c-3.5-3.7-8.5-6.5-14.3-8.9c-11.6-4.8-26.1-7.6-35.8-12.7c-2-1.1-2.4-2.6-2.7-3.8c-0.2-0.8-0.3-1.4-0.6-1.8
		c-0.6-1.1-1.8-2-4.9,0c-4.5,2.9-7.6,4.2-10,4.6c-2.7,0.5-4.4-0.2-6-0.9c-1.5-0.6-3-1.2-5-1.3c-6.2-0.3-11.1,0.1-15.6,0.9
		c-7.1,1.2-13.3,3.6-22.2,6.6c-11.6,3.8-20.6,6.7-30.3,9.3c-8.8,2.3-18.3,4.4-31,6.8c-8.5,1.6-16,5.6-22.6,11.1
		c-9.5,7.9-17.1,18.9-22.7,29.6c-2.5,4.8-6.6,12.1-10.3,19.8c-2.2,4.6-4.3,9.3-6,13.8c-7.3,19.9-11.1,39-13.3,58.1
		c-3,25.9-3.6,51.9-5.2,80.1C-334.3,872.3-334.3,872.9-334.4,873.5z M-131.6,635.2c-0.3,0.1-0.6,0.3-0.9,0.5
		c-4.9,3.2-8.4,4.6-11.1,5c-2.8,0.5-4.7,0-6.5-0.6c-1.7-0.6-3.1-1.5-5.1-1.5c-5.9-0.2-10.6,0.1-15,0.8c-6.9,1.2-13,3.6-21.8,6.5
		c-11.7,3.9-20.7,6.7-30.5,9.3c-8.9,2.4-18.4,4.5-31.2,6.8c-8,1.5-15,5.3-21.2,10.4c-9.2,7.7-16.5,18.3-22,28.7
		c-2.5,4.8-6.5,12-10.3,19.7c-2.2,4.5-4.2,9.1-5.9,13.5c-7.3,19.6-11.1,38.5-13.5,57.4c-2.6,21.2-3,42.5-4.5,64.9l0.3-1.5
		c0.2-0.9,1.1-1.6,2.1-1.4c1,0.2,1.6,1,1.5,2c-0.6,5.7-2.1,11.3-2.9,16.9c-0.4,2.3-0.6,4.7-0.7,7.1c-0.3,9.7,0.4,19.4,1.6,29.2
		c2.8,22.9,8.3,45.9,10.6,68.3c0.9,8.7,1.1,17.3,1.1,26c-0.1,20-1.8,40-0.7,60.1c0.5,9.5,2,18,3.9,26.1c3,12.8,7,24.9,10.3,38.8
		c2.8,12,3.9,23.9,6.8,35.7c1.2,4.9,2.7,9.7,4.8,14.5c3.1,7.2,6.7,14.3,11.1,21c4.3,6.6,9.4,12.7,15.3,17.9
		c35.5,30.8,79.4,38.1,121.8,30s83.3-31.4,112.7-62c6.8-7,14.2-13.9,20.5-21.6c4.1-5,7.7-10.5,10.1-16.5c2.5-6,1.9-15.4,0.2-26
		c-3.4-21.2-11.8-47.2-13-62.3c-0.8-10.3-0.2-20.3,1.2-30.2c2-14.7,5.5-29.1,7.6-44.2c1.5-10.6,1.8-21.2,1.4-31.7
		c-0.3-7-0.9-14-1.7-20.9c-0.3,0-1.1,0-1.3-1.6l-0.1-0.1v-0.3c0-0.2,0-0.4,0-0.6c0-1.1,0-3.5,0-8.6c0-0.5,0.3-1,0.7-1.3
		c1-19.6,1-39.1,0.1-58.6c-1-23.1-3.3-46.1-6.6-69c-1.2-8.4-2.3-16.9-4-25.1c-1.1-5.5-2.6-10.8-4.6-16.1c-1.5-4-3.4-7.9-5.4-11.7
		c-4.8-8.9-10.6-17.4-15.5-26.2c-4.4-7.9-7.9-16.2-12.4-24c-1.9-3.3-4-6.4-6.4-9.4c-1.5-1.9-3.1-3.6-4.8-5.3
		c-4.1-4-8.5-7.6-12.4-11.8c-3.2-3.4-7.9-6-13.3-8.2c-11.7-4.8-26.3-7.7-36-12.8c-2.6-1.3-3.5-3.2-3.9-4.8
		C-131.3,636.2-131.5,635.6-131.6,635.2z"/>
	<g>
		<path class="st2" d="M-183,722.5c0,0-15.5-30.4-21.5-44.7c-6.9-16.5-16.5-33.5-12.2-51.9c1.5-6.4,12.1-11.3,17.4-13.6
			c15.5-6.9,29.7-3.9,46-3.3c7.5,0.3,16.1-0.8,22.3,4.6c15,13.2,14.4,30.7,7.4,47.5c-2.2,5.4-4.9,11-9,15.2
			c-4.5,4.5-10.5,5.4-15.5,8.7c-3.2,2.2-6.1,6.1-8.5,9.1C-163.8,703-168.2,723-183,722.5z"/>
		<path class="st3" d="M-195,667.5c0-10.4,3.3-20.4,3.1-30.8c-0.2-13.9-4.2-27.5-4.6-41.3l47.2-2.5c0.3,9.2,0.8,18.5,2,27.6
			c1,7.4,2.4,14.9,2.4,22.4C-157.7,715-203.3,711.3-195,667.5z"/>
		<path class="st4" d="M-196.7,667.2c-4.6,24.6,7.2,37,20.8,32.7c11.9-3.8,26.2-21.2,32.4-56.6c0-0.1,0-0.2,0-0.3
			c0-3.1-0.2-6.1-0.6-9.2c-0.5-4.5-1.3-9-1.8-13.4c-0.6-4.5-1-9.1-1.3-13.7c-0.3-4.6-0.5-9.2-0.6-13.8c0-0.4-0.2-0.8-0.5-1.1
			s-0.7-0.4-1.1-0.4l-46.7,2.5c-3,0.2-0.4,3-0.4,3c-0.8,0-1.5-0.6-1.5-1.4c0.4,11,3,22,4.1,33.1c0.3,2.7,0.5,5.4,0.5,8.2
			c0.2,8.3-2,16.3-2.7,24.5c-0.1,0.8-0.2,1.7-0.1,2.5c0,1.3,0.3,2.5,0.5,3.8L-196.7,667.2z M-194.3,667.5c0.2-1.5,0.7-2.8,0.9-4.2
			c0.9-5.7,1.7-11.4,2.4-17.1c0.4-3.1,0.7-6.3,0.6-9.5c0-2.8-0.2-5.6-0.5-8.4c-1.1-10.5-3.5-20.9-4-31.4l44.1-2.3
			c0.1,4.1,0.3,8.2,0.6,12.3c0.3,4.6,0.7,9.3,1.3,13.9c0.6,4.5,1.3,8.9,1.8,13.4c0.3,2.9,0.5,5.8,0.5,8.7
			c-6,33.5-18.9,50.3-30.3,53.9c-11.7,3.7-20.5-7.8-16.5-28.9L-194.3,667.5z"/>
		<g transform="matrix(1,0,0,1,-28.0157,-34.8719)">
			<path class="st5" d="M-119.7,698.4l-7.4,28.2l-9.7,13.9l-6.6-15c1.8-8.8,3.2-11.3,4.8-14.6c3.4-6.9,0-6.1,4.7-11.3L-119.7,698.4z
				"/>
			<path class="st4" d="M-118.1,698.9c0.1-0.6,0-1.3-0.3-1.7c-0.3-0.5-0.8-0.7-1.3-0.7l-14.2,1c-0.5,0-1,0.3-1.4,0.7
				c-1.3,1.5-2.1,2.6-2.5,3.4c-0.6,1.2-0.7,2.1-0.9,3.2c-0.1,1.1-0.3,2.4-1.6,5.1c-0.9,1.8-1.8,3.4-2.6,5.9c-0.7,2.2-1.5,5-2.4,9.2
				c-0.1,0.4,0,0.9,0.1,1.3c0,0,2.1,4.8,4,9c1.5,3.2,2.9,5.9,2.9,5.9c0.2,0.6,0.8,0.9,1.4,1s1.2-0.2,1.5-0.7l9.6-13.9
				c0.1-0.2,0.2-0.3,0.2-0.5L-118.1,698.9L-118.1,698.9z M-121.8,700.5l-6.6,25.4l-7.8,11c-0.4-1-0.8-2.1-1.3-3.2
				c-1.3-3.3-3-7-3.6-8.5c0.8-3.7,1.5-6.1,2.2-8.1c0.8-2.3,1.5-3.7,2.3-5.4c1.7-3.4,1.9-5.1,2-6.5c0.1-0.6,0.1-1.1,0.4-1.8
				c0.3-0.5,0.7-1.2,1.4-2L-121.8,700.5z"/>
		</g>
		<g transform="matrix(1,0,0,1,5.05287,14.6878)">
			<path class="st5" d="M-172.4,687c0.3-2.9,5.8-12.7,7.6-14.7c11.1-12.5,21.6-30.6,27.2-36.6c0,0,2.7,2.4,2.8,9.9
				c-3.3,2.9-9.9,17.9-19.5,31.2c-1.3,1.8-1.5,1.7-3,3.5c-3.5,4.2-7.9,29.2-9.4,34.5L-172.4,687z"/>
			<path class="st4" d="M-173,686.8c0,0.2,0,0.3,0,0.5h-0.8l5.8,27.7c0.1,0.7,0.7,1.2,1.4,1.2c0.7,0,1.3-0.4,1.5-1.1
				c1-3.5,3.2-15.5,5.6-24.5c1.2-4.4,2.3-8.1,3.5-9.5l3-3.5c2.2-3.1,4.3-6.2,6.2-9.3c6.2-10.1,10.6-19.4,13.1-21.7
				c0.3-0.3,0.5-0.7,0.5-1.2c-0.1-2.9-0.5-5-1-6.6c-1-3.2-2.4-4.4-2.4-4.4c-0.6-0.6-1.6-0.5-2.1,0.1c-4.1,4.5-11,15.5-18.8,26
				c-2.7,3.7-5.6,7.3-8.5,10.5c-1.1,1.2-3.7,5.1-5.3,9C-172.5,682.9-173.1,685.6-173,686.8L-173,686.8z M-170.9,686.9
				c0,0.1,0,0.1,0,0.2h-0.9c0.3-1,1.5-2.7,2.8-4.8c1-1.6,1.9-3.4,2.8-5c1.1-1.8,2-3.3,2.6-3.9c2.9-3.3,5.8-7,8.6-10.8
				c6.9-9.4,13.1-19.3,17.2-24.4c0.3,0.6,0.6,1.5,0.9,2.6s0.5,2.6,0.6,4.3c-0.6,0.6-1.2,1.6-2,2.7c-3.7,5.7-9.5,17.5-17.2,28.2
				l-2.9,3.4c-1.3,1.5-2.7,5.6-4.1,10.6c-1.5,5.7-3,12.6-4.1,17.8L-170.9,686.9L-170.9,686.9L-170.9,686.9z"/>
		</g>
		<g transform="matrix(1,0,0,1,-28.0157,-34.8719)">
			<path class="st5" d="M-160.2,724.4l-8,15.8l-21.8-43l15.2-8c0.7,0.2,4.7,6.8,5.2,7.8c4.3,8.7,7.1,17.9,9,27.4H-160.2z"/>
			<path class="st4" d="M-191.7,698.2L-191.7,698.2C-191.8,698.1-191.7,698.1-191.7,698.2c0.5,0.9,3.4,6.1,6.8,12.6
				c6.6,12.6,15.3,30.1,15.3,30.1c0.3,0.5,0.8,0.8,1.3,0.8c0.6,0,1.1-0.3,1.3-0.8l8.2-15.8v0.1c0.2-0.6,0.2-1.2,0-1.8
				c-0.9-4.6-2.1-9.2-3.5-13.7c-1.5-4.7-3.3-9.3-5.5-13.7c-0.4-0.8-2.6-4.5-4.2-6.7c-0.9-1.3-1.9-2.1-2.2-2.2
				c-0.6-0.2-1.2-0.2-1.7,0.1c-8.1,4.3-11.9,6.3-13.6,7.2c-0.8,0.4-1.2,0.6-1.4,0.7c-0.1,0-0.1,0.1-0.1,0.1l0.9,3.8
				C-190.7,699.1-191.3,698.8-191.7,698.2z M-183.1,695.8l7.8-4c1.4,1.9,3.5,5.4,3.9,6.1c2.1,4.3,3.9,8.6,5.3,13.1
				c1.5,4.5,2.7,9.1,3.7,13.8c0,0.1,0,0.2,0.1,0.3l-5.9,11.8c-2.7-5.4-9-17.8-13.8-27.5c-2.4-4.8-4.3-9-5.3-11.3L-183.1,695.8z"/>
		</g>
		<path class="st5" d="M-193.4,697.8c-6.9-5.7-19.3-36-21.5-44.6l-4.7,7.1c2,6.1,9.7,28.6,10.8,34.7c1.3,7.7,3.8,23.8,6.9,29.2
			L-193.4,697.8z"/>
		<path class="st4" d="M-213.3,654.4l-1.6,0.8l-1.7-2.9l-4.6,7c-0.3,0.5-0.4,1.1-0.2,1.7c1.3,4,5.2,15.2,7.9,24.1
			c1.4,4.4,2.5,8.2,2.8,10.3c0.9,5.1,2.3,13.9,4,20.9c0.9,3.8,2,7,3.1,9c0.4,0.7,1.1,1,1.9,1c0.8-0.1,1.4-0.6,1.6-1.3l8.5-26.4
			l-1.4-1.1c-0.4-0.6-0.7-1.3-1.1-2.1c-0.3-0.7-0.6-1.4-1.1-2.2c-2.5-4.4-6.1-10.7-9.1-17.4c-4.1-9.2-7.7-18.7-8.8-23
			C-212.9,653.3-213,653.9-213.3,654.4z M-215.5,657.7c2.4,7.2,7.3,19.3,12.2,28.6c1.6,3,3,5.8,4.6,7.9c0.5,0.7,1.1,1.3,1.7,1.9
			c0.6,0.6,1.2,1,1.8,1.4l-6.8,21c-0.6-1.9-1.1-4-1.6-6.2c-1.4-6.3-2.5-13.3-3.2-17.7c-0.3-2.1-1.5-6.1-2.9-10.8
			c-2.6-8.3-6.1-18.7-7.6-23.3L-215.5,657.7z"/>
		<g transform="matrix(1,0,0,1,-28.0157,-34.8719)">
			<path class="st5" d="M-118.8,651.3c21.6,5.9-4,42.3-15.3,47.7c10-1.7,15.9,9.5,18.5,17.2c1,2.9,1.8,5.8,2.6,8.8
				c0.8,3.1,1.5,6.3,2.1,9.5c3.9-4.6,13.3-11.9,17.4-16.3c9.1-9.9,12.5-26.4,16.3-38.8c5.1-16.9,5.2-20.7-2.3-28.4
				c-3.8-3.9-10.5-7.6-15.3-10.3c-7.7-4.4-16.7-7.1-25.6-7"/>
			<path class="st4" d="M-119.3,653c8.2,2.1,8.5,9.5,5.6,17.4c-4.1,11.5-14.8,24.2-21.1,27.1c-0.7,0.3-1,1.1-0.8,1.8s1,1.2,1.7,1
				c3.5-0.6,6.5,0.7,8.9,2.8c3.9,3.4,6.4,9,7.9,13.4c0.5,1.4,0.9,2.8,1.3,4.3c0.4,1.4,0.8,2.9,1.2,4.4l2.1,9.4
				c0.1,0.6,0.6,1.1,1.2,1.3s1.3,0,1.7-0.5c0.9-1,2-2.1,3.2-3.2c4.6-4.3,11.1-9.4,14.3-12.8c3.9-4.1,6.8-9.4,9.1-15.1
				c3.3-8.1,5.4-17,7.7-24.5c2.7-9.1,4-14.5,3.6-18.8s-2.4-7.5-6.5-11.7c-1.6-1.7-3.8-3.3-6.1-4.9c-3.2-2.2-6.8-4.1-9.6-5.7
				c-4-2.3-8.3-4.1-12.8-5.3c-4.5-1.3-9.2-1.9-13.8-1.8c-1.1,0-1.9,0.9-1.9,2s0.9,1.9,2,1.9c4.3-0.1,8.5,0.6,12.7,1.7
				c4.2,1.2,8.2,2.9,11.9,5c2.8,1.6,6.2,3.5,9.4,5.6c2.1,1.4,4,2.8,5.4,4.3c3.3,3.4,5,5.8,5.3,9.2c0.4,3.9-1,8.9-3.5,17.2
				c-2.2,7.3-4.3,16.1-7.5,24.1c-2.1,5.2-4.7,10.1-8.2,13.9c-3.1,3.4-9.4,8.6-13.8,13c-0.4,0.4-0.8,0.8-1.2,1.2l-1.5-6.5
				c-0.4-1.5-0.8-3-1.2-4.5c-0.4-1.5-0.9-3-1.4-4.4c-1.7-4.8-4.6-10.9-8.9-14.7c-1.9-1.6-4-2.9-6.4-3.4c6.5-5.4,14.8-16.2,18.5-26.1
				c3.8-10,2.9-19-7.5-22c-1-0.3-2,0.3-2.3,1.3C-120.8,651.8-120.3,652.8-119.3,653z"/>
		</g>
		<g transform="matrix(1,0,0,1,-28.0157,-34.8719)">
			<path class="st5" d="M-168.3,640.8c-18.3,4.7-29.9,19-41.5,32.7c-2.7,3.2-8.1,7.9-9,12.6c-0.3,1.7,0.4,5.2,0.8,6.7
				c2.5,7.8,6.2,14.8,10.5,21.7c3.2,5.1,6.8,12.4,12.5,15.4c1.3-4.4,2.6-8.8,4.1-13.1c2.9-8.7,5.8-17.2,11.8-24.2
				c0.8-0.9,1.6-1.8,2.5-2.5c0.5-0.4,1.2-1.1,1.8-0.9v-0.1c-3.4-3.8-7-8.2-7.9-13.3c-1.8-10.4,6.2-18.4,15.4-21.4"/>
			<path class="st4" d="M-174.6,691.1l1.9-1.7c0.1-0.6-0.1-1.2-0.5-1.7c-1.9-2.2-4-4.5-5.5-7.1c-0.9-1.6-1.7-3.3-2-5.2
				c-0.8-4.6,0.6-8.7,3.1-11.9c2.7-3.4,6.7-5.9,10.9-7.3c1-0.3,1.6-1.4,1.3-2.4c-0.3-1-1.4-1.6-2.4-1.3c-5,1.6-9.6,4.6-12.8,8.5
				c-3.3,4.1-5,9.3-4,15.1c0.4,2.3,1.3,4.5,2.4,6.5c1.2,2.1,2.7,4.1,4.3,5.9c-0.4,0.3-0.8,0.7-1.1,1c-0.5,0.5-1.1,1.1-1.6,1.7
				c-2.5,2.9-4.5,6.1-6.2,9.5c-2.5,4.9-4.2,10.1-6,15.4l-3.2,10.6c-1.2-1-2.3-2.1-3.3-3.3c-2.6-3.2-4.6-6.9-6.5-9.9
				c-2.2-3.4-4.2-6.8-6-10.3s-3.3-7.2-4.5-11c-0.2-0.7-0.5-1.8-0.7-3c-0.2-1.1-0.3-2.1-0.1-2.8c0.3-1.7,1.3-3.3,2.5-4.9
				c2-2.6,4.5-5.1,6.1-7c6.9-8.2,13.8-16.6,22.2-23c5.5-4.1,11.6-7.3,18.7-9c1-0.3,1.6-1.3,1.3-2.2c-0.3-1-1.3-1.6-2.2-1.3
				c-7.5,2-13.8,5.7-19.6,10.2c-8.4,6.6-15.6,15.1-22.7,23.4c-1.9,2.3-5.1,5.2-7.2,8.4c-1,1.6-1.8,3.2-2.1,4.8c-0.2,0.8-0.1,2,0,3.2
				c0.2,1.6,0.6,3.3,0.9,4.3c1,3.2,2.2,6.2,3.6,9.2c2,4.5,4.3,8.8,6.8,13c1.9,3.1,3.9,7.1,6.5,10.4c1.9,2.4,4.1,4.5,6.6,5.8
				c0.5,0.3,1.2,0.3,1.7,0.1c0.6-0.2,1-0.7,1.2-1.3l4.1-13c1.7-5.1,3.4-10.2,5.8-14.9c1.5-3.1,3.3-6,5.6-8.7l2.2-2.3
				C-175.1,691.5-174.6,691.1-174.6,691.1L-174.6,691.1z"/>
		</g>
		<path class="st5" d="M-206.2,739.5c4,0.7,40.6,3.7,43.9,1.9c9.7-5.3,3.2-42.9-5.2-48.4c-4-2.6-9-2.7-13.6-3.3
			c-26-3.3-28.2,31.5-19.9,49.6"/>
		<path class="st4" d="M-203.3,738.7c-1.3,0.1-2.3,0.1-2.8,0.1c-0.4-0.1-0.7,0.2-0.8,0.5c-0.1,0.4,0.2,0.7,0.5,0.8
			c1,0.3,4.3,1.4,8.7,2.1c2.6,0.4,5.7,0.5,8.8,0.7c9.1,0.6,19.2,0.9,24,0.6c1.6-0.1,2.7-0.4,3.2-0.7c1.9-1,3.4-3.1,4.3-5.9
			c1.3-3.9,1.6-9.3,1.2-15.1c-0.9-12.7-5.5-27-10.5-30.3c-1.8-1.2-3.7-2-5.7-2.5c-2.8-0.7-5.8-0.9-8.6-1.2
			c-11.8-1.5-19.1,4.2-23,12.7c-4.6,10.3-4.2,24.9-0.3,35.7C-203.8,737.1-203.6,738-203.3,738.7z M-199.6,738.6c0.3,0,0.6,0,0.9,0
			c1,0,2,0.1,3.2,0.1c7.5,0.5,17.4,1.4,24.5,1.6c4.1,0.1,7.2,0.2,8-0.3c1.6-0.9,2.6-2.9,3.2-5.5c1.1-4.7,1-11.1,0.1-17.5
			c-1.5-10-4.8-20-8.7-22.6c-1.4-0.9-3-1.4-4.7-1.8c-2.7-0.6-5.5-0.8-8.2-1.1c-9.8-1.3-15.9,3.5-19.1,10.6c-4.3,9.5-3.7,23-0.2,33
			c0.3,1,0.9,1.8,1.1,2.8C-199.5,738.2-199.6,738.4-199.6,738.6z"/>
	</g>
	<path class="st6" d="M-196.7,742.9c-4,7.6-4.8,16.9-6.5,25.3c-3.7,18.4-6.5,36.7-9.2,55.2c-0.6,3.9-3.2,9.3-2.7,13.2
		c0,0.1,9.1,10,10.2,11.6c8.1,11.3,14.4,23.6,21.8,35.3c0.3,0.5,3.3-3.1,3.5-3.3c1.8-2.4,3.2-5.1,4.5-7.8c0.1-0.2,0.2-0.5,0.4-0.7
		c0.2-0.3,0.3-0.5,0.4-0.8c4.7-8.5,9.2-17.2,14.1-25.6c2.7-4.6,13.4-14.8,14.4-19.5c1.2-5.4-3.4-15.1-4.2-20.8
		c-2-14.1-8.2-54.5-15.9-65.4C-173.8,728.3-196.7,742.9-196.7,742.9z"/>
	<path class="st1" d="M-197.3,742.6c-0.7,0-0.5-0.3-1.1,0.1c-0.1,0-0.1,0.1-0.1,0.2c-1.2,2.1-2,4.5-2.7,6.8
		c-1.8,5.9-2.5,12.2-3.6,18.1c-1.5,7.4-2.8,14.7-4,22.1c-1.8,11-3.5,22.1-5.1,33.2c-0.1,0.9-0.3,1.8-0.6,2.8
		c-0.1,0.2-0.2,0.4-0.3,0.7c-0.6,1.8-1,3.8-1.3,5.7c-0.3,1.6-0.5,3.2-0.3,4.5c0,0,0.4,0.9,1.4,1.9c2.4,2.7,8.2,9,9.1,10.3
		c2.4,3.4,4.6,6.8,6.8,10.3c5.1,8.3,9.7,16.7,14.9,25c0.3,0.5,1.4,1.2,2.7,0.3c1-0.7,3.3-3.3,3.4-3.5c0.8-1,1.5-2.1,2.1-3.2
		c0.9-1.6,1.8-3.2,2.6-4.9l0.3-0.7l0.4-0.8l14-25.6c1.5-2.8,5.9-7.7,9.5-12c0.9-1.1,1.8-2.1,2.6-3.1c1.4-1.8,2.3-3.5,2.6-4.9
		c0.4-2,0.3-4.4-0.3-7.1c-1-4.9-3.2-10.5-3.8-14.3c-1.1-8.2-3.5-25.2-7-40.1c-1.1-4.7-2.5-9.1-3.7-13.2c-0.4-1.4-0.7-2.7-1.1-4
		c-1.2-3.8-2.8-6.9-4.2-9c-3.2-4.5-8.5-5.6-14-4.9c-9.3,1.3-19.4,7.9-19.4,7.9L-197.3,742.6z M-182.6,881.2
		c-4.8-7.7-9.2-15.7-14.1-23.4c-2.2-3.5-4.5-7-7-10.5c-0.9-1.3-6.9-7.8-9.3-10.5c-0.3-0.3-0.5-0.6-0.7-0.8c-0.1-1,0-2,0.3-3.1
		c0.4-1.8,1.3-3.5,1.7-5.3c0.1-0.3,0-0.5,0.1-0.8c0.2-1.1,0.6-2.2,0.7-3.2c1.7-11.1,3.4-22.1,5.3-33.1c1.3-7.3,2.6-14.6,4.1-22
		c1.1-5.2,1.8-10.8,3.2-16.1c0.6-2.2,1.2-4.4,2-6.5c0.2-0.6,0.8-1.2,0.7-1.9l0,0c1.7-1,10.1-5.8,17.8-6.7c4-0.5,8,0.1,10.3,3.5
		c1.4,1.9,2.5,4.9,3.9,8.3c0.3,0.7,0.7,1.4,1,2.2c0.9,2.4,1.4,5,2.1,7.7c0.7,2.9,1.4,6,2.1,9.2c3.1,14.2,5.5,29.5,6.7,37.1
		c0.6,3.9,2.8,9.6,3.9,14.5c0.5,2.1,0.7,4.1,0.4,5.6c-0.2,1.2-1.3,2.7-2.5,4.5c-0.3,0.4-0.5,0.8-0.7,1.2c-3.5,4.9-9.2,10.2-11,13.3
		c-1.5,2.5-2.9,5.1-4.3,7.6c-3.3,6-6.5,12-9.7,18l-0.4,0.8l-0.4,0.8c-0.8,1.6-1.6,3.2-2.5,4.7c-0.6,1-1.2,1.9-1.9,2.9
		C-180.8,879.4-181.8,880.4-182.6,881.2z"/>
	<path class="st3" d="M-220.8,587.3c-16-11.7-30.7-37.3-39.5-70.5c-2.7-10.2-8.4-39.3-12-49.3c-5.2-14.4-6.2-15.8-7.6-31.7
		c-1.2-13.3-3.5-18.5-1.2-31.4c3.9-22,7-47,4.5-69.2c-1.7-15.6-16.7-60.2-11.9-71.6c15.5-37,69.6-46.4,104.5-50.2
		c8.8-1,18.2-4.2,27.1-3c30.6,4.3,55.4,33.3,62.4,61.8c3.7,15-2.3,27.9-5,42.5c-2.8,14.8-4.3,31.5-2.8,46.6
		c2.5,24.4,8.2,27.3,12.7,48.6c3.7,17.6,9.2,20,6.1,36.6c-2,10.9-0.5,40.9-0.9,51.8c-0.4,13-3.6,30-7.8,42.5
		c-9.2,27.5-26.5,49.1-56.9,53c-6.7,0.9-13.5-0.6-20.3-0.1C-185.2,594.8-207,597.3-220.8,587.3z"/>
	<path class="st4" d="M-222,588.9c1.8,1.4,3.7,2.6,5.7,3.6c4.5,2.2,9.7,3.3,15,3.9c10.9,1.3,22.6,0,32.2-0.8
		c5.3-0.4,10.7,0.4,16.1,0.3c1.4,0,2.9-0.1,4.3-0.3c15.7-2,28-8.7,37.6-18.3c9.5-9.6,16.3-22.1,21-36.2c2.1-6.3,4-13.8,5.3-21.3
		c1.4-7.6,2.3-15.2,2.5-21.8c0.2-7.3-0.4-23.3-0.2-36.3c0.1-6.2,0.4-11.7,1-15.2c1.3-7,1.1-11.6,0.3-15.7c-1.3-6-4.1-11.1-6.4-21.7
		c-3.4-16-7.4-21.6-10.3-33.7c-0.9-4-1.8-8.6-2.4-14.7c-0.8-7.4-0.8-15.2-0.2-23c0.5-7.8,1.6-15.6,3-23c1.7-8.8,4.5-17,5.7-25.4
		c0.8-5.8,0.9-11.7-0.6-17.9c-3.5-14.6-11.6-29.4-22.7-41.1c-11.2-11.8-25.4-20.4-41.2-22.7c-2.9-0.4-5.8-0.4-8.8-0.1
		c-6.4,0.6-12.8,2.3-19,3c-20.9,2.3-48.8,6.6-71.2,17.5c-15.8,7.7-28.9,18.7-35.4,34.3c-1.4,3.2-1.4,8.9-0.5,15.9
		c2.4,18.1,11,45.6,12.3,57.1c1,8.8,1.1,18.1,0.6,27.4c-0.7,14-2.7,28.1-5,41.1c-0.9,5.3-1.1,9.3-1,13.1c0.3,5.7,1.4,10.8,2.2,19
		c0.7,8,1.4,12.4,2.5,16.5c1.1,4.3,2.7,8.3,5.4,15.7c1.2,3.2,2.6,8.5,4,14.4c3,12.4,6.3,27.8,8.1,34.6c4.8,17.9,11.3,33.5,18.7,46
		c5.8,9.8,12.3,17.7,19,23.3c0.7,0.6,1.5,1,2.1,1.7C-222.2,588.5-222.1,588.7-222,588.9L-222,588.9z M-219.6,585.6
		c-0.2-0.1-0.4-0.1-0.7-0.2c-0.7-0.4-1.3-1-2-1.6c-6.4-5.4-12.5-13-18.1-22.5c-7.2-12.3-13.4-27.7-18-45.2
		c-1.8-6.9-4.9-22.2-7.8-34.6c-1.5-6.2-2.9-11.6-4.1-14.9c-2.6-7.2-4.1-11.2-5.2-15.3c-1-4-1.6-8.2-2.3-15.8
		c-0.7-8.1-1.8-13.1-2.1-18.7c-0.1-3.5,0.1-7.2,0.9-12.1c2.4-13.2,4.5-27.5,5.2-41.7c0.5-9.6,0.4-19.1-0.5-28.2
		c-1.1-10.1-7.8-32.5-11-50.1c-1.6-8.9-2.6-16.5-1-20.2c6.1-14.4,18.3-24.4,32.9-31.5c21.9-10.7,49-14.9,69.4-17.2
		c6.1-0.7,12.5-2.6,18.9-3.2c2.6-0.3,5.1-0.3,7.6,0c14.8,2,28.2,10,38.7,20.8c10.7,11,18.5,25.1,22,39c1.4,5.7,1.3,11.1,0.6,16.4
		c-1.2,8.4-4,16.5-5.6,25.2c-1.4,7.5-2.5,15.4-3,23.4s-0.5,16.1,0.2,23.7c0.6,6.2,1.5,11.1,2.4,15.2c2.9,12.1,6.9,17.7,10.3,33.6
		c2.2,10.6,5.1,15.7,6.4,21.7c0.8,3.8,0.9,7.9-0.3,14.2c-0.7,3.6-1,9.4-1.1,15.8c-0.2,13,0.4,28.9,0.2,36.3
		c-0.2,6.4-1.1,13.8-2.5,21.2c-1.3,7.3-3.2,14.6-5.2,20.7c-4.5,13.4-11,25.4-20,34.6c-9,9-20.5,15.2-35.2,17
		c-1.3,0.2-2.5,0.2-3.8,0.2c-5.4,0.1-10.9-0.8-16.3-0.4c-9.3,0.7-20.7,1.9-31.3,0.6c-4.8-0.6-9.4-1.8-13.6-3.6
		C-216.2,587.6-218,586.7-219.6,585.6L-219.6,585.6z"/>
	<g>
		<path class="st3" d="M-108.6,542.1c7.8-3.9,24.4-13.1,29-20.8c5.8-9.6,3.4-25.1,0.5-35.2c-2.2-7.8-6.9-15.3-8.4-22.5"/>
		<path class="st4" d="M-108.3,542.7c1.6-0.4,3.4-0.7,5.4-1.5c3.5-1.4,7.3-4,11.1-6.4c6-3.9,11.5-8.5,14-12.5
			c2.5-4.2,3.6-9.4,3.8-14.8c0.3-7.6-1.3-15.8-3.1-22c-0.4-1.6-1-3.2-1.6-4.7c-1.4-3.6-3-7.2-4.4-10.7c-1-2.4-2-4.6-2.6-6.9
			c-0.2-0.9-1-1.5-1.9-1.3s-1.4,1-1.3,1.9c0.3,2.4,1,4.8,1.9,7.3c1.9,5,4.7,10.1,6.2,15.4c1.7,5.9,3.2,13.6,2.9,20.8
			c-0.2,4.7-1.1,9.3-3.3,12.9c-1.4,2.3-4,4.8-7.1,7.1c-4.4,3.5-9.9,6.7-14.6,9.4c-0.7,0.4-1.3,0.8-1.9,1.2c-1.7,1.2-2.9,2.5-4.2,3.4
			c-0.3,0.2-0.5,0.6-0.3,0.9C-109,542.7-108.6,542.9-108.3,542.7z"/>
		<path class="st3" d="M-238.6,552.8c-9.4-5.4-29.2-16.2-32-27.5c-2.1-8.5,1-19.1,3.3-27.1c2-7,5.2-13.7,7.5-20.6"/>
		<path class="st4" d="M-239.1,554.1c-0.1,0-0.4-0.1,0.2-0.7c0.3,0.2,0.7,0.1,0.9-0.3c0.2-0.3,0.1-0.7-0.3-0.9
			c0.3-1.3,0.8,0.2,0.3-1.1c-0.3-0.8-1.5-0.9-2.3-1.4c-3.9-2.4-8.7-5.5-13.4-8.9c-2.9-2.1-5.7-4.3-8.1-6.6c-3.2-3-5.7-6.2-6.6-9.4
			c-0.8-3.2-0.8-6.7-0.4-10.2c0.6-5.5,2.3-11.1,3.7-15.8c0.7-2.4,1.6-4.8,2.4-7.1c0.9-2.4,1.7-4.8,2.5-7.2c0.7-2.1,1.4-4.2,2-6.4
			c0.3-0.9-0.2-1.8-1.1-2.1c-0.9-0.3-1.8,0.2-2.1,1.1c-1.7,4.8-4,9.4-5.8,14.2c-0.8,2.1-1.5,4.2-2.2,6.4c-1.4,4.9-3.1,10.7-3.8,16.5
			c-0.5,4.1-0.5,8.1,0.4,11.8c1.2,5.1,5.5,10.2,11,14.8c2.4,2,5.1,3.8,7.8,5.6c4.3,2.8,8.7,5.1,12.3,6.9c0.7,0.4,1.4,1.2,2.1,1.1
			C-239,554.1-239,554.1-239.1,554.1z"/>
		<path class="st7" d="M-120.1,454.6c6.6,7.2,11.5,15.8,16.5,24.1c9.1,14.9,14.3,34.3-0.7,48.5c-4.4,4.2-17.5,8.4-23.3,10.1
			c-30.3,9-61.4,8.2-92,1c-3.8-0.9-8.1-1.9-11.5-4c-8.2-5.3-24.5-12.3-24.4-22.5c0.1-8.2,8.4-33,11.9-40.1"/>
		<path class="st4" d="M-120.7,455.1c0.9,1.3,1.7,2.6,2.6,3.9c1.3,1.9,2.7,3.7,4,5.6c3.2,4.8,6.2,9.9,9.2,14.9
			c3.2,5.2,5.9,11.1,7.4,17c1,4,1.5,8.1,1.1,12.1c-0.3,3.3-1.1,6.6-2.7,9.7c-1.4,2.8-3.5,5.5-6.1,8c-1.7,1.6-4.9,3.2-8.4,4.7
			c-5.1,2.1-11,3.9-14.3,4.9c-15,4.4-30.2,6.4-45.5,6.4c-15.2,0-30.5-2-45.7-5.6c-2.2-0.5-4.6-1.1-6.9-1.9c-1.4-0.5-2.8-1.1-4-2
			c-4.6-3-11.8-6.7-17.2-11.1c-3.5-2.9-6.3-6-6.2-9.8c0-3.3,1.4-9.4,3.3-15.9c1.6-5.8,3.7-11.8,5.4-16.6c0.7-1.9,1.3-3.5,1.8-4.9
			c0.3-0.8,0.5-1.5,0.7-2.1c0.3-0.7,0.1-1.5-0.6-1.8c-0.7-0.3-1.5-0.1-1.8,0.6c-0.4,0.6-0.9,1.4-1.3,2.3c-0.5,1-1,2.2-1.5,3.5
			c-1.6,3.9-3.3,8.9-5,14c-2.6,8.3-4.8,16.7-4.9,21c-0.1,3.9,1.8,7.4,4.9,10.5c5.5,5.6,14.9,10,20.5,13.5c1.5,0.9,3.1,1.6,4.8,2.2
			c2.4,0.8,4.9,1.4,7.3,2c15.4,3.6,31,5.6,46.5,5.6c15.5-0.1,31-2.2,46.4-6.8c3.4-1,9.4-3,14.6-5.2c3.9-1.7,7.3-3.5,9.2-5.4
			c2.9-2.8,5-5.8,6.6-8.8c2.6-5.1,3.6-10.6,3.3-16.1c-0.5-8.8-4.2-17.7-8.9-25.4c-3.1-5-6.1-10.1-9.5-14.9c-1.4-1.9-2.7-3.9-4.3-5.6
			c-1.1-1.2-2.3-2.2-3.5-3.2c-0.3-0.3-0.7-0.3-1,0C-120.9,454.3-120.9,454.8-120.7,455.1z"/>
		<path class="st8" d="M-242.6,468.9c8.5,20.8,9.5,43.3,12.7,65.2c0,0-0.2,10.2,41,11c14.9,0.3,35.2,0.6,63-8.9
			c3.3-15.2,5.1-30.4,6.5-45.9c1-11.6-3.4-22.7-4.2-33L-242.6,468.9z"/>
		<g>
			<g>
				<defs>
					<path id="SVGID_1_" d="M-242.6,468.9c8.5,20.8,9.5,43.3,12.7,65.2c0,0-0.2,10.2,41,11c14.9,0.3,35.2,0.6,63-8.9
						c3.3-15.2,5.1-30.4,6.5-45.9c1-11.6-3.4-22.7-4.2-33L-242.6,468.9z"/>
				</defs>
				<clipPath id="SVGID_00000088125496582714820260000004918124865808903340_">
					<use xlink:href="#SVGID_1_"  style="overflow:visible;"/>
				</clipPath>
				<g style="clip-path:url(#SVGID_00000088125496582714820260000004918124865808903340_);">
					<path class="st4" d="M-235.5,502.7c-0.1,0.1-0.1,0-0.1,0.2c0,0.1,0.1,0.1,0.1,0.2c0.6,0.8,1.2,1.6,1.9,2.3
						c2.9,2.9,6.9,4.9,11.2,6.3c7.8,2.5,16.9,2.8,23.6,2.6c7.2-0.2,14.6-0.3,21.9-0.8c4.9-0.3,9.9-0.9,14.7-1.8
						c1.2-0.2,2.5-0.6,3.7-0.9c2.7-0.8,5.3-1.8,8-2.5c3.7-0.9,8.2-1.4,12.2-2.6c1.9-0.6,3.7-1.3,5.2-2.3c2.7-1.7,5.6-4.4,8.3-7.3
						c2.3-2.6,4.5-5.3,6.1-7.7c0.1-0.1,0.2-0.2,0.2-0.4c0.1-0.3,0.1-0.5,0.1-0.7c0.3-0.5,0.2-1.2-0.3-1.6s-1.2-0.2-1.6,0.3
						c-0.2,0.1-0.4,0.2-0.6,0.4c-0.1,0.1-0.2,0.3-0.4,0.5c-1.9,2.7-4.5,5.9-7.2,8.7c-2.1,2.1-4.2,4-6.3,5.3
						c-1.8,1.1-3.9,1.8-6.1,2.4c-3.5,0.9-7.3,1.4-10.4,2.1c-2.8,0.7-5.5,1.7-8.2,2.5c-1.1,0.3-2.2,0.6-3.4,0.9
						c-4.7,0.9-9.5,1.5-14.3,1.8c-7.3,0.5-14.6,0.6-21.8,0.9c-6.4,0.2-15.2-0.1-22.8-2.2c-4-1.2-7.7-2.9-10.6-5.3
						c-0.7-0.6-1.3-1.2-1.9-1.9c0-0.1-0.1-0.1-0.1-0.2c-0.1-0.1,0,0-0.2,0c-0.2-0.3-0.6-0.4-0.9-0.1
						C-235.6,502-235.7,502.4-235.5,502.7z"/>
					<path class="st4" d="M-214.3,478.6c0.1,0.4,0.1,0.8,0.2,1.2c0.3,1.5,0.9,3,1.4,4.7c1.8,6.8,3.3,15.5,4.5,24.3
						c0.7,5.2,1.3,10.5,1.7,15.4c0.5,5.9,0.8,11.2,0.7,15.4c0,0.6,0.5,1.2,1.1,1.2s1.2-0.5,1.2-1.1c0.2-4.3,0.1-9.7-0.3-15.7
						c-0.4-5-0.9-10.3-1.7-15.6c-1.3-8.9-3.1-17.7-5.1-24.5c-0.5-1.7-0.9-3.4-1.6-4.8c-0.2-0.4-0.5-0.7-0.7-1.1
						c-0.1-0.4-0.5-0.5-0.9-0.4C-214.3,477.9-214.5,478.3-214.3,478.6z"/>
					<path class="st4" d="M-179,543.8c0.3-0.2,0.3,0.1,0.4-0.3c0.1-0.3-0.1-0.6-0.1-0.9c-0.4-3.2-0.9-6.5-1.3-9.7
						c-1.9-14.4-3.5-29-5.3-43.4c-0.2-1.6-0.4-3.2-0.7-4.8c0-0.2-0.1-0.5-0.2-0.7s-0.2-0.3-0.3-0.5c-0.1-0.5-0.6-0.9-1.1-0.8
						s-0.9,0.5-0.8,1.1c-0.1,0.2-0.1,0.2-0.2,0.4c-0.1,0.3,0,0.6,0,0.9c0,1,0.2,2,0.3,3c1.4,12.6,2.8,25.4,4.6,38
						c0.8,5.4,1.6,10.9,2.6,16.2c0.1,0.5,0.2,1,0.3,1.4v0.1c0.3,0.3,0.1,0,0.5,0.1c0.1,0.4,0.4,0.6,0.8,0.6S-178.9,544.1-179,543.8z
						"/>
					<path class="st4" d="M-155.6,542.8c0.4-0.5,0.6-0.3,0.9-0.9c0-0.1,0-0.1,0-0.2c0.1-0.8,0-1.6-0.1-2.4
						c-0.1-4.1-0.2-8.1-0.1-12.1c0-6.1,0.2-12.1,0.7-18.2c0.3-4,0.7-8,1.3-12c0.9-6,2.3-11.9,3.5-17.9c0.1-0.7,0.3-1.3,0.3-2
						c0-0.5-0.1-0.9-0.1-1.4c0.2-0.9-0.3-1.8-1.2-2c-0.9-0.2-1.8,0.3-2,1.2c-0.3,0.5-0.6,1-0.8,1.5c-0.3,0.8-0.5,1.6-0.7,2.4
						c-1.5,6-2.3,12.2-3.1,18.3c-0.8,6.1-1.5,12.3-1.8,18.5c-0.2,4.1-0.4,8.2-0.3,12.4c0.1,4.1,0.4,8.2,0.9,12.3
						c0.1,0.6,0,1.4,0.3,1.9s0.5,0.4,1,0.7c0,0.4,0.4,0.6,0.7,0.6S-155.6,543.2-155.6,542.8z"/>
					<path class="st4" d="M-133,464.5c-0.4,0.5-0.6,0.2-0.7,0.8c-0.1,0.5,0.1,1,0.2,1.4c1.1,5.8,2.3,12.1,2.6,18.4
						c0.1,2.9,0.1,5.9-0.2,8.7c-0.4,4.5-1.1,9-1.8,13.5c-0.8,5.3-1.7,10.5-2.7,15.7c-1,5.3-2.1,10.5-2.8,15.8
						c-0.2,1.7-0.3,3.4-0.4,5.1c-0.1,0.5,0.3,0.9,0.8,1s0.9-0.3,1-0.8c0.4-2.3,0.9-4.6,1.4-6.9c0.9-4.6,1.7-9.3,2.7-13.9
						c1-4.6,2.2-9.3,3.1-13.9c1-5,1.7-10.1,2.3-15.2c0.5-5,0.2-10.2-0.4-15.4c-0.6-4.6-1.5-9.2-2.4-13.4c-0.1-0.2,0-0.5-0.2-0.7
						c-0.4-0.5-0.5-0.2-1.1-0.5c-0.1-0.4-0.4-0.6-0.8-0.5C-132.8,463.8-133,464.1-133,464.5z"/>
				</g>
			</g>
		</g>
		<path class="st4" d="M-242.7,468.2c-0.4,0-0.8,0.1-1.1,0.3c-0.2,0.2-0.3,0.4-0.1,0.6h0.7c3.3,8.3,5.4,16.8,7,25.5
			c2.3,13.1,3.4,26.4,5.2,39.5c0,0.7,0.6,5.1,11.2,8.3c6.1,1.9,15.7,3.4,30.9,3.8c8.7,0.2,19.3,0.4,32.1-1.4
			c9.2-1.3,19.6-3.6,31.3-7.6c0.4-0.1,0.7-0.5,0.8-0.9c1.6-7.6,2.9-15.2,4-22.9c1-7.7,1.8-15.4,2.5-23.1c0.3-3.5,0.1-6.9-0.3-10.2
			c-1-8-3.3-15.7-3.9-23c0-0.3-0.2-0.6-0.4-0.8c-0.2-0.2-0.6-0.3-0.9-0.3l-119,11.5L-242.7,468.2L-242.7,468.2z M-241.3,470.2
			c0,0,104.3-10.4,116.7-11.7c0.7,7,2.9,14.3,3.8,21.9c0.4,3.2,0.5,6.5,0.3,9.8c-0.7,7.7-1.5,15.3-2.5,23c-1,7.4-2.2,14.7-3.8,22.1
			c-11.3,3.8-21.3,6-30.2,7.3c-12.7,1.8-23.1,1.6-31.8,1.4c-11.8-0.2-20.2-1.2-26.1-2.5c-13.7-3-13.8-7.3-13.8-7.3
			c0-0.1,0-0.1,0-0.2c-2-13.2-3.2-26.5-5.7-39.6C-236.1,486.1-238.2,478-241.3,470.2L-241.3,470.2z"/>
		<path class="st3" d="M-257.1,452.9c5.5,4.8,9.5,12.2,15.8,15.9c14.6,8.7,30.9,11.7,47.8,12.2c6.2,0.2,12.6,1.7,18.7,1.2
			c26.9-2.3,48.6-19.9,64.3-40.6"/>
		<path class="st4" d="M-257.5,453.4c1.4,1.5,2.5,3.2,3.8,4.9c1.9,2.5,4,5,6.1,7.3c1.7,1.8,3.5,3.3,5.5,4.6
			c7.4,4.5,15.3,7.5,23.5,9.4c8.1,1.9,16.5,2.7,25,2.9c4.3,0.1,8.7,0.9,13,1.1c2,0.1,3.9,0.2,5.8,0c13.7-1.2,26.1-6.2,37.1-13.6
			c8.7-5.9,16.6-13.2,23.4-21.3c1.7-2,3.3-4.1,4.8-6.3c0.5-0.6,0.4-1.5-0.3-2c-0.6-0.5-1.5-0.4-2,0.3c-1.6,2-3.3,4-5,6
			c-6.7,7.8-14.2,15.1-22.7,20.8c-10.5,7.1-22.4,12-35.6,13.2c-1.8,0.1-3.6,0.1-5.4,0c-4.4-0.3-8.8-1.1-13.1-1.3
			c-8.3-0.3-16.4-1.2-24.3-3.1s-15.5-4.7-22.6-8.9c-1.2-0.7-2.3-1.5-3.4-2.5c-2.6-2.3-4.7-5.2-7.2-7.8c-1.7-1.8-3.6-3.4-5.6-4.8
			c-0.3-0.2-0.7-0.2-1,0.1C-257.8,452.8-257.8,453.2-257.5,453.4z"/>
	</g>
	<g>
		<path class="st4" d="M-150,408.8c1,0.9,1.8,2,2.7,3c1.3,1.4,2.7,2.8,3.7,4.4c1.6,2.4,2.7,5,3.4,7.8c0.1,0.2,0.1,0.4,0.2,0.6
			s0.2,0.2,0.3,0.3c0.1,0.7,0.8,1.2,1.5,1c0.7-0.1,1.2-0.8,1-1.5c0.1-0.2,0.2-0.3,0.2-0.5s-0.1-0.4-0.1-0.6
			c-0.7-3.2-2.2-6.2-4.1-8.8c-1.3-1.7-2.6-3.4-4.4-4.7c-1.2-0.9-2.4-1.5-3.7-2.1c-0.3-0.2-0.8-0.1-1,0.2
			C-150.4,408.1-150.3,408.6-150,408.8z"/>
		<path class="st4" d="M-140.9,418.6c0.8-0.1,1.6-0.1,2.4-0.2c0.5-0.1,1-0.1,1.5-0.3c5-1,10.2-1.7,15.1-0.8c2.4,0.5,4.7,1.3,6.9,2.5
			c1.4,0.8,2.9,1.5,4.3,2.7c0.4,0.4,1,0.4,1.3,0c0.4-0.4,0.4-1,0-1.3c-1.1-1.5-2.3-2.8-3.7-3.8c-3.4-2.6-7.6-3.6-11.7-3.9
			c-4.5-0.3-9.4,0.2-13.6,2.1c-1.1,0.5-2,1.1-3,1.8c-0.4,0.1-0.5,0.5-0.4,0.9C-141.7,418.5-141.3,418.7-140.9,418.6z"/>
		<path class="st4" d="M-226.5,419c-0.7-0.2-0.5-0.4-1.2-0.3c-0.3,0-0.4,0.2-0.6,0.4c-1.6,1.2-2.8,2.8-4,4.4c-2.1,3-3.5,6.4-4.4,9.9
			c-0.3,1,0.3,2,1.3,2.3s2-0.3,2.3-1.3c0.5-2.1,1.3-4.1,2.3-6c1.3-2.5,3.4-4.5,5.1-6.8c0.1-0.1,0.2-0.2,0.2-0.4
			c0.1-0.7-0.1-0.4-0.2-1.1c0.3-0.2,0.3-0.7,0.1-0.9C-225.8,418.8-226.2,418.7-226.5,419z"/>
		<path class="st4" d="M-235.6,426.3c-0.8-1,0.2-0.8-1-1.2c-0.2-0.1-0.5,0.1-0.7,0.2c-3.9,1-8.2,2.5-11.9,4.6
			c-3.1,1.7-5.9,3.9-7.8,6.8c-0.6,0.9-1.2,1.8-1.5,2.8c-0.1,0.5-0.2,0.9-0.3,1.4c-0.3,0.8,0.1,1.7,0.9,2.1c0.8,0.3,1.7-0.1,2.1-0.9
			c0.2-0.3,0.5-0.6,0.8-0.9c0.5-0.7,1-1.5,1.6-2.2c1.2-1.5,2.6-2.8,4.3-4c3.8-2.6,8.4-4.2,12.7-5.4c0.3-0.1,0.7,0,0.9-0.3
			c0.9-1,0-0.3,0.3-1.6c0.4-0.1,0.6-0.5,0.5-0.8C-234.8,426.4-235.2,426.2-235.6,426.3z"/>
		<path class="st4" d="M-271.1,448.9c0.2-0.2,0.2,0.1,0.2-0.2c0.1-0.4-0.2-0.7-0.4-1.1c-1.2-3.4-2.1-7.1-2.1-10.8
			c0.1-2.5,0.6-5,2.1-7.2c0.5-0.8,1.2-1.7,1.9-2.5c0.6-0.6,1.3-1,2.1-1.1s1.7,0.1,2.5,0.3c1.1,0.3,2.2,0.6,3.2,0.8
			c0.7,0.2,1.4-0.1,1.6-0.8c0.2-0.7-0.1-1.4-0.8-1.6c-1.1-0.5-2.4-1.3-3.7-1.7c-1.1-0.4-2.2-0.5-3.2-0.4c-1.3,0.1-2.5,0.7-3.5,1.6
			c-1.3,1.1-2.3,2.5-3,3.8c-1.7,2.8-2.3,5.9-2.2,9c0.1,3.9,1.4,8,3,11.5c0.2,0.4,0.2,0.9,0.5,1.1s0,0,0.3,0c0.2,0.4,0.6,0.5,0.9,0.4
			C-271.1,449.7-270.9,449.3-271.1,448.9z"/>
		<path class="st4" d="M-93.5,429.9L-93.5,429.9c0.2,0.1,0.5,0.2,0.7,0.4c0.1,0.1-0.1,0.2-0.1,0.3c0,0.2,0.1,0.5,0.4,0.6
			c0.2,0.1,0.5,0.1,0.7,0c0.1-0.1,0.1-0.3,0.2-0.2c0.2,0.1,0.4,0.2,0.6,0.3l0,0c-0.8,0.2-1.4,0.4-2,0.6v-0.1
			c-0.2-0.6-0.2-0.6-0.3-1.2L-93.5,429.9c-7-3.8-4.7,1.3-2.1,3.9c0.1,0.4,0.5,0.7,1.1,1c0.5,0.4,1,0.5,1.3,0.4h0.1
			c1.4,0.3,2.9,0.4,4.3,0c0.2-0.1,0.4-0.1,0.6-0.2c0.9-0.5,0.4-1.4-0.2-1.9c-0.2-0.2-0.5-0.4-0.8-0.6c-0.4-0.3-0.9-0.6-1.3-0.9
			l-0.5-0.3l0,0c0,0,0-0.1,0.1-0.1c0.2-0.3,0.4-0.7,0.6-1c1.7-3.2,2.9-7.9,2.3-11.8c-0.5-3.4-2.4-6.3-6-7.8
			c-1.6-0.6-3.4-0.8-5.4-0.8c-1.5,0-3,0.1-4.5,0.4c-0.6,0.1-1.2,0.2-1.7,0.3c-0.4,0.1-0.7,0.3-1.1,0.4c-0.8,0.1-1.3,0.7-1.3,1.5
			c0.1,0.8,0.7,1.3,1.5,1.3c0.3,0.1,0.7,0.1,1,0.2c0.7,0.1,1.5,0,2.3,0c1.5-0.1,3.2-0.2,4.7,0c1,0.1,2,0.3,2.8,0.6
			c2.2,0.9,3.2,2.7,3.6,4.7c0.6,3.2-0.1,7-1.2,9.8c-0.1,0.3-0.3,0.6-0.4,0.9C-93.4,429.8-93.5,429.8-93.5,429.9L-93.5,429.9z"/>
		<path class="st4" d="M-195.8,582.8c1.1-0.9,2.4-1.6,3.6-2.5c4.5-3.3,9.3-6.3,14.8-8.4c7.1-2.6,14.8-4,22.1-5.1
			c3.4-0.5,6.6-1.1,9.7-1.5c0.8-0.1,1.5-0.8,1.4-1.7c-0.1-0.8-0.8-1.5-1.7-1.4c-3.2,0.1-6.6,0.2-10,0.6c-7.6,0.9-15.6,2.8-22.9,5.7
			c-5.8,2.3-11.5,5.1-15.5,9.5c-1.1,1.2-1.8,2.5-2.6,3.8c-0.2,0.3-0.2,0.7,0.1,1C-196.5,583.1-196.1,583.1-195.8,582.8z"/>
		<path class="st4" d="M-116.2,405.9c0.6,0.2,1.1,0.5,1.4,0.8c0.3,0.4,0.4,0.9,0.5,1.4c0,0.4,0.3,0.6,0.3,1.1
			c-0.2,0.3,0,0.7,0.3,0.9c0.3,0.2,0.7,0,0.9-0.3c0.5-0.3,0.7-0.5,1-0.9c0.6-1.1,0.3-2.3-0.2-3.3c-0.6-1.2-1.8-2.2-3.6-2.6
			c-0.3-0.1-0.5-0.1-0.9-0.1l0,0c0.9-1.2,2.1-2.3,2.7-3.2c1-1.5,1.9-3.1,2.7-4.8c1.1-2.4,2-4.9,3.1-7.2c0.3-0.5,0.1-1.2-0.4-1.4
			c-0.5-0.3-1.2-0.1-1.4,0.4c-0.7,1.1-1.3,2.2-1.8,3.3c-0.8,1.6-1.5,3.3-2.4,4.9c-0.6,1.1-1.2,2.2-2,3.2c-0.8,1.1-2.3,2.3-3.2,3.7
			c-0.6,0.9-0.9,1.8-0.9,2.8c0,0.7,0.3,1.1,0.7,1.4c0.4,0.3,0.9,0.4,1.7,0.3C-117.2,406.3-116.3,406-116.2,405.9z"/>
		<path class="st4" d="M-253.3,426.7c0.4-0.3,0.8-0.6,1.2-0.9c0.4-0.4,0.6-0.8,0.9-1.3c1.3-2.3,1.2-3.8,0.7-4.7
			c-0.6-1.3-2.3-1.8-4.3-1.8c-1,0-2.2,0-3.1,0c-0.4,0-0.8,0-1-0.2c-0.5-0.5-0.9-1.1-1.2-1.7c-1-1.8-1.6-3.9-2.7-5.6
			c-1.4-1.8-2.9-3.3-4.2-4.9c-0.8-0.9-1.5-1.9-2-3.2c-0.1-0.5-0.7-0.9-1.2-0.7c-0.5,0.1-0.9,0.7-0.7,1.2c0.2,1.3,0.5,2.4,1.1,3.4
			c1.2,2.2,3.1,3.8,4.6,6c1.1,1.6,1.6,3.6,2.5,5.3c0.5,0.9,1.1,1.8,1.9,2.5c0.6,0.6,1.8,0.9,3.2,0.9c1.6,0,3.5-0.4,4.8,0
			c0.2,0.1,0.4,0.3,0.3,0.6c0,0.5-0.2,1.2-0.5,2l-1,2.4c-0.2,0.3-0.2,0.7,0.1,0.9C-254,427.1-253.6,427-253.3,426.7z"/>
	</g>
	<g>
		<path class="st4" d="M-207.1,423.6c-0.2,0.6-0.5,1-0.5,1.6c-0.2,1.3,0.2,2.5,0.4,3.7c0.4,2,1.3,3.7,2.8,5.2
			c3.1,2.8,11.8,4,20.3,3.4s16.8-3,19.5-6.5c1.6-2,2.3-4.4,2.4-6.9c0.1-2.7-0.2-5.6-1.2-8.1c-0.2-0.7-0.6-1.2-0.8-1.8
			c-0.2-0.5-0.7-0.8-1.3-0.7c-0.5,0.2-0.8,0.7-0.7,1.3c0.1,0.6,0.1,1.3,0.2,1.9c0.4,2.4,1,4.9,0.8,7.3c-0.1,1.9-0.6,3.7-1.8,5.2
			c-2.4,3-9.8,4.7-17.3,5.1c-7.5,0.5-15.1-0.2-17.9-2.6c-0.6-0.5-1.1-1.2-1.5-1.9c-0.8-1.5-0.7-3.3-1.3-5c-0.2-0.6-0.5-0.8-0.9-1.3
			c0-0.4-0.4-0.6-0.8-0.6C-206.9,422.9-207.2,423.3-207.1,423.6z"/>
		<path class="st4" d="M-206.8,427.6l0.2,0.5c0.9,0.3,1.8,0.5,2.5,0.7c-0.3,0.7-0.6,1.5-0.9,2.4c4.4,8.4,5.6,1.1,4.7-3
			c0-0.3-0.1-0.7-0.3-1.1c-0.2-0.6-0.5-1-0.8-1.1l-0.2-0.2c-1.2-1.2-2.7-2.4-4.4-2.9c-0.9-0.3-1.8-0.2-1.9,0.9c0,0.3,0,0.5,0,0.8
			c0.1,0.4,0.2,0.7,0.3,1.1C-207.4,426.3-207.1,427-206.8,427.6z M-205,431.2l-0.1-0.2c-0.1-0.2-0.3-0.5-0.4-0.7
			c0-0.1,0.2-0.1,0.3-0.2c0.1-0.2,0.2-0.5,0-0.7c-0.1-0.2-0.3-0.4-0.6-0.4c-0.1,0-0.3,0.2-0.3,0.1c-0.2-0.2-0.3-0.5-0.4-0.7
			l-0.1-0.2l0,0c-0.1,0-0.1,0-0.1,0.1c-0.5,0.2-1,0.4-1.5,0.6c-5.5,1.7-10-2.8-10.4-8.2c-0.3-4.1,1.8-8.5,7.3-11.8
			c0.7-0.4,1.6-0.8,2.4-1.3c0.4-0.2,0.6-0.5,1-0.8c0.5-0.2,0.7-0.7,0.6-1.2c-0.2-0.5-0.7-0.7-1.2-0.6c-0.5,0-0.9,0-1.3,0.1
			c-1,0.2-1.9,0.7-2.8,1.2c-7,3.6-9.4,9.5-9.1,14.6c0.4,7.6,6.9,13.8,14.7,11.4c0.6-0.2,1.3-0.5,2-0.8
			C-205.2,431.2-205.1,431.3-205,431.2L-205,431.2z"/>
		<path class="st4" d="M-164.3,426.4c0.3,0.4,0.2,0.6,0.7,0.8c0.2,0.1,0.4,0.1,0.5,0.1c5.9,0.7,9.8-1.5,11.2-4.8
			c1.4-3.2,0.5-7.8-3.8-12.9c-1.1-1.3-2.3-2.4-3.7-3.3c-1.5-1.1-3.1-2-4.6-3.1c-0.1-0.1-0.3-0.2-0.4-0.3c-0.3-0.1-0.5-0.2-0.8-0.3
			c-0.3-0.3-0.9-0.3-1.2,0c-0.3,0.3-0.3,0.9,0,1.2c0.2,0.3,0.3,0.6,0.5,0.9c0.3,0.4,0.7,0.7,1.1,1c0.7,0.6,1.5,1.2,2.2,1.8
			c1.7,1.2,3.4,2.4,4.7,3.9c3.3,3.9,4.4,7.4,3.3,9.8c-1,2.4-4,3.4-8.3,3.1c-0.2,0-0.3-0.1-0.5,0c-0.5,0.1-0.4,0.3-0.8,0.6
			c-0.4-0.1-0.7,0.2-0.8,0.6S-164.6,426.3-164.3,426.4z"/>
	</g>
	<g>
		<path class="st10" d="M-269.8,339.3c0,0,0,14.8,1.7,15.8c2.9,1.7,5.7-0.1,8,1.4c3.4,2.2-0.5,21.9,4.5,26.4
			c3.3,2.9,11.8,5.4,22.7,5.5c7.7,0.1,18.3-3.6,20.1-6.9c3.9-7.3,2.4-11.8,4.3-17.2c1-2.9,6.1-3.4,6.6-4.6c1.3-3.4-3-9.2,4.8-11.4
			c8-2.3,5.9,6.9,7.3,8.8c1.6,2.3,3.7,0.8,5.3,3c3.2,4.4,2.7,10.6,8.4,15.9c10.3,9.6,37.9,13.2,46.2,0.6c3-4.5,2.4-15.1,4.1-17.3
			c2.2-2.8,7.1-0.2,9.6-3c0.2-0.2,0.3-0.4,0.5-0.7c0.9-1.5,1.3-3.1,1.5-4.8c0.2-1.7,0.1-3.5,0-5.2c-0.7-7.3-4.1-4.5-10.1-8.7
			c-3.8-2.7-2.4-7-7.6-8.6c-5.9-1.8-43.5-2.4-48.5,0.8c-3.4,2.2-3.9,21.1-3.9,21.1s-0.7-7.3-6.2-10.8c-4.9-3.2-13-1.5-16.2,3.9
			c-1.7,2.9-3.6,8.9-3.6,8.9s2-19.4-5-22.9c-7.2-3.7-29.6,0.1-38.3,0.9c-5.5,0.5-4.7,5.7-6.5,7.7C-261.6,339-267.9,339-269.8,339.3z
			"/>
		<path class="st4" d="M-185.7,341.8c-1-1.5-2.3-3-4-4.1c-2.9-1.8-6.7-2.3-10.3-1.4c-3.4,0.9-6.6,2.9-8.4,6
			c-0.2,0.3-0.3,0.5-0.5,0.8c-0.1-2.8-0.4-5.9-1-8.6c-0.3-1.5-0.7-2.8-1.3-4c-0.8-1.5-2-2.6-3.4-3.3c-2.6-1.3-7.2-1.8-12.4-1.8
			c-9.4,0.2-21.3,2.1-27.1,2.7c-2.5,0.3-4,1.3-5,2.6c-0.8,1-1.3,2.3-1.7,3.5c-0.3,0.9-0.5,1.8-0.9,2.4c-0.1,0.2-0.5,0.2-0.8,0.3
			c-0.8,0.2-1.7,0.3-2.6,0.4c-2,0.2-4.1,0.2-5,0.3v-0.1c-0.8,0.2-1.4,0.9-1.4,1.8c-0.1,0,0.3,8.3,1.1,13c0.4,2.1,1.1,3.6,1.7,4
			c1,0.6,1.9,0.8,2.9,0.9s2.1,0,3,0c0.7,0,1.4,0,2,0.4c0.2,0.1,0.3,0.4,0.4,0.7c0.2,0.6,0.3,1.4,0.4,2.3c0.5,4.7-0.1,12.3,0.9,17.6
			c0.5,2.5,1.3,4.5,2.6,5.7c1.8,1.6,4.9,3.1,9.2,4.1c4,1,8.9,1.7,14.4,1.8c4.2,0.1,9.2-0.9,13.3-2.4c4-1.5,7.2-3.5,8.1-5.2
			c1.4-2.6,2.2-4.9,2.6-7.1c0.8-3.8,0.6-6.9,1.8-10.3c0.3-0.8,1.1-1.2,1.9-1.6c1.3-0.7,2.7-1.1,3.5-1.6c0.7-0.4,1-0.9,1.2-1.3
			c0.5-1.2,0.4-2.6,0.3-4.1c-0.1-1.4-0.5-2.9,0.1-4.1c0.4-1,1.4-1.7,3.3-2.2c1.8-0.5,2.8-0.4,3.4,0.3c1,1.2,1,3.1,1.2,4.7
			c0.2,1.4,0.5,2.6,0.9,3.2s0.8,1,1.3,1.3c0.8,0.6,1.6,0.7,2.5,0.9c0.5,0.1,1.1,0.1,1.5,0.8c2.3,3.3,2.7,7.4,5,11.5
			c0.9,1.6,2,3.2,3.6,4.7c0.9,0.9,2.1,1.6,3.2,2.5c0.5,0.4,1,0.9,1.5,1.4c0.5,0.4,1.2,0.6,1.8,0.9c5.1,2.5,11.5,4.1,17.8,4.5
			c10.1,0.6,20-2,24.5-9c0.9-1.5,1.6-3.5,2-5.7c0.6-3,0.8-6.3,1.2-8.8c0.2-1.3,0.3-2.3,0.7-2.8c0.6-0.7,1.5-0.8,2.5-0.8
			c1.6-0.1,3.2-0.1,4.6-0.6c0.9-0.3,1.7-0.8,2.4-1.6l0.7-1c0.5-0.9,0.9-1.7,1.2-2.7c0.3-0.9,0.5-1.8,0.6-2.8
			c0.1-0.8,0.1-1.5,0.1-2.3c0-1.1-0.1-2.2-0.2-3.3c-0.4-3.8-1.5-5.4-3-6.3c-1.7-1.1-4.3-1.1-7.8-3.5c-1.3-1-1.9-2.2-2.4-3.3
			c-0.5-1.2-1.1-2.3-1.9-3.3c-0.8-0.9-2-1.7-3.7-2.3c-1.3-0.4-3.9-0.7-7.3-1c-1.4-0.2-3-0.4-4.7-0.6c-5.3-0.4-11.7-0.4-17.7-0.3
			c-9.5,0.2-18.1,1.1-20.3,2.6c-1.3,0.9-2.6,3.6-3.2,7.2C-185.3,336.7-185.5,339.3-185.7,341.8z M-203.5,358.9
			c-0.2,0.1-0.7,0.4-1.1,0.6c-1.1,0.5-2.4,1-3.4,1.7s-1.8,1.6-2.1,2.7c-1.2,3.6-1,6.8-1.8,10.7c-0.4,1.9-1.1,3.9-2.3,6.3
			c-0.9,1.7-4.4,3.3-8.4,4.5c-3.3,1-7.1,1.7-10.3,1.7c-5.3-0.1-10-0.7-13.8-1.6c-3.7-0.9-6.5-2.1-8-3.5c-1.2-1.1-1.7-3.3-2-5.9
			c-0.7-5.8-0.1-13.4-0.8-17.3c-0.3-1.7-1-2.8-1.8-3.3c-0.7-0.4-1.4-0.7-2.1-0.8c-1.7-0.3-3.8,0.5-5.8-0.5c-0.1-0.2-0.2-0.6-0.3-0.9
			c-0.2-1.1-0.4-2.6-0.4-4.3c-0.1-2.9-0.1-6.1,0-7.9l0,0c1.8-0.2,4.5-0.4,6.3-0.8c1.2-0.3,2.2-0.8,2.6-1.3c0.7-0.7,1.1-1.8,1.5-2.9
			c0.3-1,0.6-2.1,1.4-3c0.5-0.6,1.3-1,2.6-1.1c5.7-0.5,17.5-2.2,26.8-2.3c4.4,0,8.2,0.2,10.4,1.4c0.8,0.4,1.3,1.1,1.8,1.9
			s1.1,1.7,1.4,2.7c0.2,0.7,0.4,1.4,0.5,2.1c1.3,6.4,0.5,14.1,0.5,14.1c-0.1,0.8,0.5,1.6,1.3,1.7c0.8,0.2,1.6-0.3,1.8-1.1
			c0,0,0.9-2.7,2-5.3c0.5-1.2,1-2.4,1.6-3.2c1.4-2.2,3.8-3.7,6.3-4.3c2.6-0.6,5.4-0.3,7.5,1.1c1.7,1.1,2.9,2.6,3.8,4
			c0.5,0.9,1,1.8,1.3,2.6c0.5,1.6,0.6,2.8,0.6,2.8c0.1,0.8,0.8,1.5,1.7,1.4c0.8,0,1.5-0.7,1.5-1.6c0,0,0.3-6.9,1.3-12.8
			c0.4-2.1,0.8-4.1,1.4-5.5c0.2-0.6,0.4-1,0.7-1.2c2-1.3,9.7-1.7,18.3-1.9c5.9-0.1,12.2,0.1,17.4,0.2c1.7,0,3.2-0.1,4.6,0
			c3.1,0.1,5.5,0.5,6.6,0.9c1.1,0.3,1.8,0.8,2.3,1.4c0.9,0.9,1.2,2.1,1.8,3.2c0.7,1.4,1.5,2.7,3,3.8c3.5,2.5,6.2,2.6,7.9,3.7
			c0.9,0.6,1.3,1.6,1.5,3.9c0.1,0.8,0.1,1.7,0.1,2.5s0,1.6-0.1,2.4c-0.1,0.7-0.2,1.4-0.5,2.2c-0.2,0.7-0.5,1.3-0.9,1.9l-0.3,0.4
			c-0.7,0.8-1.6,0.8-2.6,0.9c-1.6,0.1-3.2,0-4.6,0.4c-1,0.3-1.9,0.8-2.6,1.7c-0.5,0.6-0.9,1.7-1.2,3.1c-0.5,2.6-0.8,6.5-1.5,9.9
			c-0.4,1.7-0.8,3.3-1.6,4.4c-3.9,5.9-12.5,7.7-21.1,7.1c-5.8-0.4-11.6-2-16.3-4.3c-0.5-0.3-1-0.6-1.6-0.8c-0.6-0.3-1.2-0.3-1.7-0.6
			c-1.1-0.6-2-1.4-2.8-2.1c-1.4-1.2-2.3-2.5-3.1-3.9c-2.4-4.2-2.8-8.4-5.2-11.8c-0.4-0.6-0.9-1-1.3-1.3c-0.6-0.4-1.3-0.6-1.9-0.8
			c-0.7-0.1-1.4-0.1-2-0.9c-0.3-0.4-0.2-1.4-0.4-2.5c-0.2-2-0.7-4.2-1.9-5.6c-1.2-1.5-3.3-2.4-6.9-1.4c-3.2,0.9-4.7,2.5-5.4,4.1
			c-0.7,1.5-0.6,3.3-0.4,4.9C-203.4,356.9-203.2,358-203.5,358.9z"/>
		<path class="st10" d="M-116.8,357.1c1.1-3.9,2.1-7.6,2.6-11.6c0.1-0.7-0.2-3.6,0.2-4c0.1-0.1,0.3,0.2,0.5,0.4
			c0.7,0.5,1.4,0.8,2.2,1.1c1.7,0.7,3.6,0.9,5.4,1.3c7.5,1.7,11.5-0.8,10.5,9.6c-0.1,1.6-0.8,4.6-1.1,5.3c-3,8.1-4.8-1.2-7.7-2.1
			C-109.6,355.5-116.8,357.1-116.8,357.1z"/>
		<path class="st4" d="M-117.4,356.9c0,0.5,0,1.1,0.2,1.4c0.2,0.5,0.4,0.7,0.6,0.5h0.2c0,0,2.7-0.6,5.9-0.6c0.9,0,1.9,0,2.8,0.1
			c0.6,0,1.2,0,1.8,0.1c0.4,0.1,0.7,0.2,1,0.4c0.2,0.1,0.3,0.3,0.5,0.5c0.5,0.5,0.9,1.2,1.4,1.9c0.8,1.2,1.8,2.3,2.6,2.7
			c1.4,0.7,3.8,0.6,5.4-4.2c0.2-0.5,0.5-1.7,0.7-2.9c0.2-1,0.4-2.1,0.4-2.9c0.4-4.2,0-6.5-0.9-8c-0.8-1.3-2-2.1-3.7-2.5
			c-1.8-0.5-4.2-0.5-7.3-1.2c-1.1-0.2-2.2-0.4-3.3-0.6c-0.6-0.1-1.2-0.3-1.8-0.5l-1.9-0.8c0.1,0,0.2,0.2,0.2,0.2s-1.3-0.9-1.8-0.9
			c-0.4,0.1-0.7,0.2-1.1,0.5c-0.2,0.2-0.5,0.6-0.6,1.2c-0.1,1,0.2,3.2,0.1,3.8c-0.3,2.1-0.8,4.1-1.3,6.1c-0.3,1.4-0.6,2.7-0.9,4.1
			c-0.1,0.2-0.2,0.5-0.2,0.7C-117.9,356.8-117.9,356.5-117.4,356.9z M-99,360.6c0.2,0,0.4-0.1,0.3,0.1
			C-98.7,360.8-98.9,360.7-99,360.6z M-112.4,344.5c0.1,0.1,0.3,0.1,0.4,0.2c0.6,0.2,1.2,0.4,1.8,0.6c1.3,0.3,2.6,0.5,3.8,0.8
			c1.7,0.4,3.2,0.6,4.5,0.7c1.5,0.2,2.7,0.2,3.6,0.6c1.3,0.7,1.4,2.3,1.1,6.2c-0.1,0.7-0.2,1.6-0.4,2.5c-0.2,1-0.5,2-0.6,2.4
			c-0.3,0.8-0.7,1.4-0.9,1.8c-0.2-0.4-0.5-1-0.8-1.3c-1.1-1.7-2.5-3.3-3.9-3.7c-0.3-0.1-0.6-0.3-0.9-0.2c-0.1,0-0.1,0.1-0.3,0.1
			c-1.4,0.1-2.9-0.6-4.3-0.6c-2-0.1-3.8,0.1-5.3,0.3c0.1-0.3,0.1-0.5,0.2-0.8c0.2-0.8,0.5-1.6,0.7-2.4c0.4-1.9,0.7-3.9,0.9-5.9
			C-112.7,345.5-112.6,345-112.4,344.5z"/>
		<path class="st10" d="M-270.1,339.6c0.1,4.4-0.1,6,0.5,10.1c0.3,2.4,0.5,5.1,0.5,5.1s-1.4-0.1-2.2-0.2c-1.1-0.2-2.3,0.1-3.3,0.6
			c-1.3,0.6-2.6,1.6-3.6,2.6c-0.3,0.3-0.4,0.9-0.7,1.1c-0.1,0.1-0.8-0.3-0.9-0.4c-1-0.8-0.8-3.2-1-4.4c-0.4-3.6-0.3-5.6-0.9-9.1
			c-0.3-2.2-0.4-5.3,0.3-5.8c1.1-0.9,2.8-0.2,4.1,0C-275.1,339.5-270.1,339.6-270.1,339.6z"/>
		<path class="st4" d="M-276.8,359.1c0.5-0.5,1.1-0.9,1.8-1.4c0.4-0.3,0.8-0.6,1.3-0.8c0.4-0.2,0.7-0.3,1.2-0.4
			c0.4-0.1,0.7-0.1,1.1-0.1l2.4,0.1c0.5,0,1-0.2,1.3-0.5c0.3-0.4,0.5-0.8,0.5-1.3c0,0,0-1.5-0.1-3.2c-0.1-0.7-0.2-1.4-0.3-2.1
			c-0.6-3.6-0.5-5.2-0.8-8.8c0-0.1,0-0.3,0-0.4c-0.3-0.5-0.3-0.3-0.8-0.6l0,0c0-1.1-0.3-1.9-0.7-2c0,0-2.1,0-4.2-0.1
			c-1-0.1-2-0.1-2.7-0.3c-1-0.2-2.3-0.5-3.4-0.4c-0.8,0-1.6,0.3-2.2,0.7c-0.5,0.4-1,1.1-1.2,2.3c-0.2,1.4-0.2,3.7,0.1,5.4l1,9
			c0.1,0.9,0.1,2.3,0.4,3.5c0.2,1,0.7,1.7,1.3,2.2c0.2,0.1,1.1,0.7,1.5,0.8c0.9,0.3,1.5-0.1,1.8-0.4
			C-277.4,360.1-276.9,359.4-276.8,359.1z M-271.6,341.6c-0.1,3.2-0.2,4.9,0.2,8.4l0.3,2.9c-0.7-0.1-1.5-0.1-2.3,0
			c-0.7,0.1-1.4,0.3-2.1,0.6c-0.7,0.3-1.5,0.7-2.3,1.3c-0.4,0.3-0.7,0.5-1,0.8l-0.2-1.7c-0.3-2.6-0.3-4.3-0.5-6.4
			c-0.1-0.9-0.2-1.8-0.4-2.8c-0.2-1.2-0.1-3.2,0-4.1c0.1,0,0.2,0,0.2,0c0.7,0.1,1.4,0.3,1.9,0.4c0.8,0.2,1.9,0.3,3.1,0.4
			C-273.5,341.4-272.4,341.5-271.6,341.6z M-280.1,340.6L-280.1,340.6c-0.1,0.1-0.1-0.1-0.1-0.1S-280.2,340.5-280.1,340.6z"/>
		<path class="st11" d="M-143.6,376.3c-5.9,1.6-23.2-0.5-25.2-1.8c-10.2-6.6-9-15.2-8.9-25.9c0-3.8,0.5-7.8,2-11.3
			c0.4-0.9,0.4-2.3,1.2-3c2-1.7,6-1.4,8.5-1.7c7.4-1,16,0.3,23.1,2.3c2,0.5,4,0.6,5.9,1.5c1.6,0.7,2.4,2.8,2.9,4.3
			c1.8,5.2-0.2,9.7-0.7,14.9c-0.4,4.2-1.2,8.2-1.8,12.3c-0.3,2,0.1,4.3-1,6.1C-138.6,375.5-142,375.8-143.6,376.3z"/>
		<path class="st4" d="M-143.4,377.1c1.1-0.3,3.1-0.6,4.6-1.2c0.9-0.4,1.6-0.9,2-1.5s0.6-1.3,0.8-2c0.3-1.4,0.2-3,0.3-4.4l1.8-12.4
			c0.3-3.1,1.2-6,1.4-8.9c0.2-2,0-4.1-0.7-6.3c-0.4-1-0.8-2.2-1.5-3.1c-0.5-0.7-1.1-1.4-1.9-1.7c-0.6-0.3-1.2-0.5-1.9-0.7
			c-1.4-0.4-2.8-0.5-4.2-0.9c-3.6-1-7.6-1.8-11.6-2.3s-8.1-0.5-11.9,0c-1.7,0.2-4.2,0.1-6.2,0.6c-1.1,0.2-2,0.7-2.8,1.3
			c-0.3,0.3-0.6,0.7-0.8,1.1c-0.3,0.7-0.4,1.6-0.7,2.2c-0.8,1.8-1.3,3.8-1.6,5.8c-0.3,1.9-0.4,3.9-0.5,5.9
			c-0.1,6.7-0.5,12.5,1.5,17.6c1.3,3.3,3.6,6.4,7.8,9.1c1.1,0.7,6.9,1.8,12.9,2.3C-151.4,377.9-146.2,377.9-143.4,377.1
			L-143.4,377.1z M-143.9,375.4c-2.6,0.7-7.6,0.7-12.4,0.3c-5.6-0.4-11-1.3-12.1-2c-3.8-2.5-5.9-5.2-7.1-8.2
			c-1.9-4.9-1.4-10.5-1.3-16.9c0-1.9,0.1-3.8,0.4-5.6c0.3-1.8,0.8-3.6,1.5-5.3c0.2-0.6,0.3-1.3,0.6-1.9c0.1-0.3,0.2-0.5,0.4-0.7
			c0.7-0.6,1.7-0.9,2.8-1c1.8-0.3,3.8-0.2,5.2-0.4c3.6-0.5,7.5-0.4,11.4,0s7.8,1.2,11.3,2.2c1.4,0.4,2.8,0.5,4.2,0.9
			c0.5,0.1,1.1,0.3,1.6,0.5s0.9,0.6,1.2,1.1c0.6,0.8,0.9,1.8,1.2,2.7c0.7,1.9,0.8,3.8,0.6,5.6c-0.2,2.9-1.1,5.8-1.4,8.9l-1.8,12.3
			c-0.2,1.2-0.1,2.5-0.2,3.7c-0.1,0.7-0.2,1.4-0.6,2c-0.3,0.5-1,0.8-1.7,1C-141.4,374.9-142.9,375.1-143.9,375.4L-143.9,375.4z"/>
		<path class="st11" d="M-252.1,375.7c0,0-1.8-7.7-2.3-13.1c-0.4-4.2-0.3-8.4-0.8-12.5c-0.3-2.5-0.6-4.9-0.7-7.4
			c-0.1-1.3-0.2-2.9,0.6-4c2.5-3.5,7.9-2.9,11.5-3.2c8.9-0.7,24.3-2.5,26.9,9.1c0.9,4,0.2,8,0.5,12c0.6,7.8,3.4,17.4-2.9,23.6
			c-3.4,3.4-8.4,2.3-12.7,1.8c-1.3-0.2-2.6-0.3-3.9-0.3C-240.9,381.6-250.2,382.1-252.1,375.7z"/>
		<path class="st4" d="M-252.7,375.9L-252.7,375.9c0.8,2.9,2.9,4.5,5.6,5.4c3.6,1.2,8.2,1.1,11.3,1.2l3.8,0.3
			c2.6,0.3,5.5,0.8,8.1,0.4c1.9-0.3,3.7-1,5.1-2.4c2.7-2.7,3.8-5.9,4.1-9.3c0.5-4.9-0.7-10.2-1-14.9c-0.2-2.8,0.1-5.6-0.1-8.4
			c-0.1-1.2-0.2-2.5-0.5-3.7c-1.1-5-4.5-7.7-8.8-9c-5.9-1.8-13.5-1-18.9-0.6c-2.2,0.2-5,0-7.5,0.7c-1.8,0.4-3.4,1.3-4.5,2.8
			c-0.4,0.5-0.6,1.2-0.7,1.8c-0.1,0.9-0.1,1.8,0,2.6l0.7,7.4l0.8,12.5c0.2,1.7,0.4,3.5,0.7,5.3
			C-253.6,372.1-252.7,375.9-252.7,375.9L-252.7,375.9z M-251.3,375.5L-251.3,375.5c-0.1,0-0.9-3.7-1.6-7.7
			c-0.3-1.8-0.6-3.6-0.7-5.2l-0.8-12.6l-0.7-7.3c0-0.7-0.1-1.6,0-2.3c0.1-0.5,0.2-0.9,0.5-1.2c0.9-1.3,2.2-1.9,3.7-2.3
			c2.4-0.6,5.1-0.4,7.3-0.6c5.2-0.4,12.6-1.2,18.3,0.6c3.8,1.2,6.8,3.5,7.8,8c0.3,1.2,0.4,2.3,0.4,3.5c0.1,2.8-0.1,5.6,0.1,8.4
			c0.3,4.6,1.5,9.9,1,14.7c-0.3,3.1-1.3,6-3.7,8.4c-1.2,1.2-2.7,1.8-4.3,2c-2.5,0.4-5.3-0.1-7.7-0.4l-3.9-0.3
			c-3-0.1-7.4,0.1-10.8-1.1C-248.8,379.2-250.6,377.9-251.3,375.5L-251.3,375.5z"/>
	</g>
</g>
</svg>
