<?xml version="1.0" encoding="utf-8"?>
<!-- Generator: Adobe Illustrator 26.0.2, SVG Export Plug-In . SVG Version: 6.00 Build 0)  -->
<svg version="1.1" id="Layer_1" xmlns:serif="http://www.serif.com/"
	 xmlns="http://www.w3.org/2000/svg" xmlns:xlink="http://www.w3.org/1999/xlink" x="0px" y="0px" viewBox="0 0 464.9 908.7"
	 style="enable-background:new 0 0 464.9 908.7;" xml:space="preserve">
<style type="text/css">
	.st0{fill-rule:evenodd;clip-rule:evenodd;fill:#FB6946;}
	.st1{fill-rule:evenodd;clip-rule:evenodd;fill:#32221A;}
	.st2{fill-rule:evenodd;clip-rule:evenodd;fill:#C1E4E5;}
	.st3{fill-rule:evenodd;clip-rule:evenodd;fill:#31221C;}
	.st4{fill-rule:evenodd;clip-rule:evenodd;fill:#F1002D;}
	.st5{fill-rule:evenodd;clip-rule:evenodd;fill:#F4C8E9;}
	.st6{fill-rule:evenodd;clip-rule:evenodd;fill:#DED6B2;}
	.st7{clip-path:url(#SVGID_00000137829170362604669110000008066285315309047710_);}
</style>
<path class="st0" d="M212.4,122.1c2.3-19.7,14.8-28.9,34.1-30.4c7.7-0.6,13.6,0.1,18.1,2.2c7.7,3.7,11,11.6,10.8,24.8
	c-0.1,11.5,0.8,28.1-8.6,33.9c-14.5,8.9-38.3-0.1-45.7,0.2C212.5,153.1,210.9,134.6,212.4,122.1z"/>
<path class="st1" d="M210.7,121.9c-0.3,1.3-0.6,2.6-0.8,3.9c-0.2,1.9-0.3,4-0.3,6c0,5.5,0.8,10.9,2.3,15.1c1.8,5.2,5,8.3,9.2,8.1
	c4.8-0.2,16.2,3.4,27.6,3.7c6.8,0.1,13.6-0.9,19.1-4.3c4.5-2.8,6.9-7.7,8.1-13.4c1.5-7.1,1.2-15.5,1.3-22.1c0-7.4-1-13.3-3.2-17.7
	c-2-4-4.9-6.9-8.8-8.7c-2.2-1-4.7-1.7-7.6-2.1c-3.3-0.5-7.1-0.5-11.4-0.1c-9.9,0.8-18.2,3.6-24.2,8.7c-4.5,3.8-8,8.8-9.6,15.4
	c-0.6,2.4-0.8,5-0.9,7.7L210.7,121.9z M213,122.1c0.5-2.6,1.3-4.9,2.1-7.1c2-5.8,4.8-10.5,8.9-14c5.6-4.7,13.3-7.2,22.5-7.9
	c4-0.3,7.6-0.2,10.7,0.3c2.5,0.4,4.7,1,6.6,1.9c3.2,1.5,5.6,3.9,7.1,7.2c1.9,4,2.7,9.3,2.6,16.1c-0.1,6.4,0.2,14.5-1.4,21.3
	c-1,4.6-2.8,8.6-6.4,10.8c-4.9,3-10.9,3.7-16.9,3.6c-11.5-0.3-23.1-4-27.9-3.8c-1.2,0-2.2-0.6-3-1.6c-1.3-1.6-2.1-4-2.7-6.7
	c-0.6-2.9-0.9-6.2-1.1-9.5c-0.1-2.2,0-4.4-0.1-6.5c0-1.4-0.1-2.8-0.1-4.1L213,122.1z"/>
<path class="st0" d="M217.2,271.8c-0.5,17.2-2.1,112.2-2.8,125.1c-1.5,29.9-3.7,58.6-5.4,113.4c-2.7,87.1,12.6,290.9,13.6,318.8
	c0.7,18-12.4,34.9-0.7,49.8c5,6.4,8.4,9.4,15.1,14.1c11.4,8,32.3,13.6,40.1-2.2c2.2-4.4,2.5-9.9,2.7-14.6c0.2-9.4,0-19.6-1-28.9
	c-2.6-25-6.7-49.9-7.4-75.1c-1.2-42.5-9.4-212.1-10.4-278.8c-0.5-32.8,4.8-74,7.1-106.7c3-42.9,1.9-77.4,3.1-120.4L217.2,271.8z"/>
<path class="st1" d="M217,271.1c-0.9,0-1.6,0.3-1.6,0.7h1.1c-0.2,1.3-0.5,2.9-0.7,5s-0.1,4.7-0.2,7.5c-0.7,31.4-2,101.6-2.6,112.6
	c-1,20.4-2.4,40.2-3.7,68c-0.6,13.1-1.2,27.9-1.8,45.4c-1,31.8,0.4,79.1,2.6,127.7c3.9,84.7,10.2,173.5,10.9,191.2
	c0.5,12.5-5.7,24.4-5.6,35.4c0,5.3,1.4,10.4,5.2,15.3c2.6,3.3,4.7,5.7,7.1,7.9c2.4,2.2,4.9,4.2,8.3,6.5c7.1,5,17.7,9,26.8,8
	c6.4-0.7,12.2-3.8,15.6-10.8c0.9-1.9,1.6-3.9,2-6.1c0.6-3.1,0.8-6.3,0.8-9.2c0.1-4.7,0.1-9.6,0-14.6c-0.2-4.9-0.4-9.9-0.9-14.6
	c-1.8-17.5-4.3-35-6-52.5c-0.7-7.5-1.2-15-1.4-22.5c-0.8-29.5-5-120.1-7.8-195.2c-1.2-33.1-2.2-63.2-2.5-83.6
	c-0.2-10,0.2-20.8,0.9-32c1.6-25.2,4.6-51.9,6.2-74.6c0.9-12.6,1.4-24.5,1.8-36.2c0.8-27.8,0.6-54,1.4-84.3c0-0.5-0.2-1-0.6-1.4
	c-0.4-0.3-0.9-0.5-1.4-0.5l-53.8,5.4v1.5H217z M218,273.6l51.1-5.2c-0.8,29.5-0.5,55.1-1.3,82.3c-0.3,11.6-0.9,23.4-1.7,36
	c-1.6,22.7-4.6,49.5-6.1,74.7c-0.7,11.2-1.1,22.1-0.9,32.2c0.3,20.4,1.3,50.5,2.6,83.7c2.9,75,7.1,165.7,7.9,195.1
	c0.2,7.6,0.8,15.2,1.4,22.7c1.6,17.5,4.2,35,6,52.5c0.5,4.6,0.8,9.5,0.9,14.3c0.2,4.9,0.2,9.7,0,14.4c-0.1,2.8-0.2,5.8-0.8,8.7
	c-0.4,1.9-0.9,3.6-1.7,5.3c-2.9,5.8-7.7,8.4-13.1,9c-8.4,0.9-18.2-2.9-24.7-7.5c-3.3-2.3-5.7-4.2-8-6.3c-2.3-2.1-4.3-4.4-6.8-7.5
	c-3.4-4.3-4.5-8.8-4.6-13.4c-0.1-11.1,6.1-23.1,5.6-35.5c-0.7-17.7-7.1-106.5-11-191.2c-2.3-48.6-3.7-95.8-2.7-127.5
	c0.5-17.5,1.1-32.3,1.7-45.4c1.3-27.9,2.6-47.7,3.6-68c0.5-11,1.8-81.2,2.4-112.7c0.1-2.8,0.2-5.4,0.2-7.5
	C218.3,275.6,218.1,274.5,218,273.6z"/>
<path class="st2" d="M105.2,45c-25.7,13.5-54.5,61.9-57.5,87.2c-2.7,22-14,123.8-8.5,153.6c8.6,46.8,24.7,67.8,24.8,67.6
	c10.3-22.8,19.2-43.7,42.6-59.5c22.1-14.9,213-18,238.9-14.8c57.2,7,54.8,67.3,56.1,68c2.1,1.3,7.7-13.6,8.2-14.9
	c22.3-72.9,26.7-152.2,21.5-227.6c-0.9-12.4-14.1-39.2-22.2-50c-0.9-1.2-10.1,37.9-29.1,47c-31,14.8-101,18.9-135.8,20.7
	c-25.4,1.4-74.5,4.1-96.6-10c-14.8-9.5-26.7-30.1-32.4-48.2C114.8,63,105.2,45,105.2,45z"/>
<path class="st3" d="M104.9,44.4c-0.3-0.1-0.4-0.2-0.7-0.1c-1.6,0.2-2.8,1.6-4.2,2.5c-11.4,7.5-23,21-32.6,35.8
	C56.2,100,47.9,119,46.3,132.1s-6.2,54.5-8.6,92.1c-1.6,25.7-2.1,49.7,0.1,61.9c3.2,17.6,7.6,31.5,11.7,42.1
	c4.8,12.3,9.2,20.1,11.6,23.7c0.8,1.2,1.3,1.9,1.6,2.2c0.1,0.2,0.2,0.3,0.3,0.3c0.2,0.2,0.3,0.3,0.4,0.3c1.2,0.6,1.8-0.1,2-0.7
	c6.3-13.9,12.1-27.1,21-38.8c5.5-7.3,12.3-14,21.1-20c9.4-6.3,49.3-10.3,94-12.7c60.2-3.3,129-3.6,143.8-1.7
	c19.8,2.4,32.3,11.3,40.2,21.9c10.7,14.4,13,31.7,13.8,39.9c0.2,2.2,0.3,3.7,0.5,4.5c0.2,1,0.7,1.4,0.9,1.5c0.7,0.4,1.4,0.5,2.3,0
	c0.7-0.4,1.5-1.3,2.4-2.7c2.5-4.1,5.6-12.1,5.9-13.1c11.2-36.5,18-74.7,21.3-113.1c3.3-38.5,3.1-77.3,0.5-115.1
	c-0.4-5.4-2.9-13.4-6.5-21.6c-4.8-11.2-11.3-23-16.1-29.4c-0.6-0.8-1.3-0.9-2.1-0.7c-0.3,0.1-0.8,0.3-1.3,1.1
	c-0.3,0.5-0.8,1.8-1.4,3.6c-2.3,6.6-7.2,21-14.9,31.6c-3.3,4.6-7.2,8.6-11.7,10.7c-12.7,6.1-32.1,10.3-52.8,13.3
	c-29.6,4.3-61.9,6.1-82.3,7.2c-14.8,0.8-37.8,2.1-58.7,0.2c-14.4-1.3-27.9-4.2-36.8-9.9c-7.4-4.7-14-12.2-19.5-20.8
	c-5.3-8.3-9.6-17.6-12.4-26.3c-0.3-0.9-6.2-12.9-9.1-17.4c-0.5-0.8-1-1.3-1.2-1.6c-0.7-0.9-1.6-0.6-1.7-0.6L104.9,44.4z M104.6,46.9
	c0.1,0.2,0.2,0.5,0.3,0.8c2.1,4.7,8.4,16.1,8.7,16.9c2.8,9,7.1,18.6,12.5,27.2c5.7,9.1,12.7,17.1,20.4,22.1
	c9.3,6,23.4,9.1,38.5,10.5c21.1,2,44.2,0.7,59.2-0.1c20.4-1.1,53-3,82.6-7.3c21.2-3.1,40.9-7.5,53.9-13.7
	c6.5-3.1,11.9-9.5,16.3-16.8c6.2-10.4,10.3-22.5,12.3-28.1c4.4,6.5,9.7,16.4,13.8,26c3.3,7.8,5.8,15.4,6.2,20.4
	c2.6,37.7,2.8,76.3-0.3,114.6c-3.2,38.2-9.8,76.1-20.9,112.5c-0.3,0.9-3.1,8.5-5.4,12.3c-0.1-0.5-0.1-1.1-0.2-1.8
	c-0.9-8.5-3.4-26.5-14.5-41.4c-8.3-11.2-21.4-20.7-42.3-23.3c-14.8-1.8-83.9-1.6-144.4,1.8c-45.5,2.5-86.1,7-95.6,13.4
	c-9.2,6.2-16.2,13.1-21.9,20.7c-8.5,11.3-14.2,23.9-20.2,37.2c-0.2-0.3-0.3-0.5-0.5-0.8c-2.9-4.4-8.3-14-13.6-29.2
	c-3.3-9.4-6.5-21-9-34.9c-2.2-12-1.7-35.7-0.1-61.2c2.3-37.6,7-78.9,8.6-91.9c1.5-12.7,9.7-31.3,20.6-48.3
	c9.3-14.5,20.5-27.8,31.6-35.3C102.3,48,103.6,47.6,104.6,46.9z"/>
<path class="st4" d="M132.2,287.9c-8.2-1.3-15.8-5.7-24.2-4.9c-10.3,0.9-24.5,12.4-34.1,3.9c-9.3-8.3-10.7-23.5-12.5-35.1
	c-5.7-36.5,2.2-75.2,10.7-110.6c2.7-11,8.9-37,19.3-43.5c15.5-9.6,31.8,16.8,44.3,22.4c12.2,5.5,25.1,1.6,37.5,0.5
	c26.1,3.6,93.4,5.5,167.4-7.8c7.5-0.3,52.2-0.7,59,4.6c24.2,19,21,84,15.2,110.8c-3.9,17.6-4.8,40.8-19.9,53.3
	c-5.7,4.7-28.9-3.8-36.7-4.6c-6.2-0.6-12.9-0.2-19.1,0.4C258.9,275.8,205.8,279.6,132.2,287.9z"/>
<path class="st3" d="M132.1,289.1c0.1,0,0.2,0,0.3,0c37.7-4.3,69.9-7.4,103.3-9.3c31.8-1.7,64.5-2.3,103.6-1.6h0.1
	c3.7-0.4,7.5-0.7,11.4-0.7c2.6,0,5.1,0,7.5,0.3c5,0.5,16.6,4.2,25.7,5.5c5.1,0.7,9.5,0.6,11.6-1.1c6.2-5.1,10.1-12,12.8-19.6
	c3.9-11.1,5.2-23.6,7.5-34.1c3.5-15.7,6.1-44.4,2.8-69.5c-2.4-18.1-7.9-34.3-18.1-42.4c-2.4-1.9-9.4-3.2-17.9-3.9
	c-15.8-1.3-36.9-1-41.8-0.8h-0.1c-29.6,5.5-58.1,8.5-83.3,9.9c-8.8,0.5-17.3,0.8-25.2,0.9c-26,0.3-46.6-1.4-58.6-3.1
	c-0.1,0-0.2,0-0.2,0c-7.5,0.6-15.1,2.1-22.6,2.1c-4.8,0-9.6-0.7-14.3-2.8c-8.5-3.8-18.7-17.1-29.2-22.2c-5.4-2.6-10.9-3.3-16.3,0.1
	c-4.5,2.8-8.3,9-11.3,16.3c-4.1,9.9-6.9,21.5-8.4,28c-5.1,21.3-9.8,43.7-11.7,66.2c-1.2,15.1-1.2,30.1,1,44.8
	c1.1,6.9,2,15.2,4.6,22.5c1.8,5.1,4.3,9.7,8.2,13.2c3.2,2.8,6.8,3.6,10.7,3.3c8-0.7,17-6.3,24.1-6.9c2.4-0.2,4.8,0,7.1,0.5
	C120.9,285.6,126.3,288,132.1,289.1L132.1,289.1z M132.1,286.8c-5.6-0.9-11-3.3-16.5-4.4c-2.5-0.5-5.1-0.7-7.7-0.5
	c-7.1,0.7-16.1,6.3-24.1,7c-3.4,0.3-6.5-0.3-9.3-2.8c-3.6-3.2-6-7.6-7.7-12.4c-2.5-7.2-3.5-15.3-4.6-22.1
	c-2.3-14.6-2.4-29.5-1.2-44.4c1.9-22.4,6.9-44.7,12-65.8c1.6-6.4,4.4-17.9,8.5-27.6c2.9-6.7,6.3-12.6,10.5-15.1
	c4.6-2.8,9.3-2.2,13.9,0.1c10.5,5.3,20.8,18.6,29.2,22.5c5,2.2,10.2,3,15.4,2.9c7.6-0.1,15.2-1.8,22.7-2.6c12.1,1.5,32.8,2.5,58.8,2
	c7.9-0.1,16.4-0.3,25.2-0.8c25.3-1.2,53.9-4,83.5-9.2c5-0.2,25.8-0.3,41.5,1.1c7.9,0.7,14.5,1.7,16.7,3.5
	c9.9,7.8,15.1,23.4,17.4,40.9c3.4,24.8,1,53.3-2.4,68.8c-2.3,10.5-3.5,23-7.3,34c-2.6,7.3-6.3,14-12.2,18.9
	c-1.9,1.5-5.8,1.4-10.4,0.8c-9.1-1.3-20.7-5.1-25.7-5.6c-2.5-0.2-5.1-0.3-7.7-0.3c-3.8,0-7.7,0.3-11.5,0.7
	c-39.2-0.8-71.9-0.4-103.7,1.3C202.1,279.6,169.8,282.6,132.1,286.8L132.1,286.8z"/>
<path class="st1" d="M279,211.6c0.2-0.9,0.6-1.6,0.7-2.5c0.3-1.9,0.1-3.8,0.1-5.8c0.3-17.3,1-34.6,1.7-51.9
	c0.3-7.4,0.7-14.9,0.8-22.3c0-1-0.8-1.8-1.7-1.8c-1,0-1.8,0.8-1.8,1.7c0,7.4-0.2,14.8-0.4,22.2c-0.5,17.3-1.6,34.6-1.6,52
	c0,1.9-0.2,3.9,0.1,5.8c0.1,0.9,0.5,1.6,0.7,2.5c0,0.4,0.3,0.7,0.7,0.7C278.6,212.3,279,212,279,211.6z"/>
<path class="st1" d="M206.8,207c0.2-0.2,0.2,0,0.4-0.3c0-0.1,0-0.1,0-0.2c0-1.3-0.1-2.6-0.1-3.9c0-2.6,0-5.2,0-7.9
	c0-10.6,0.5-21.2,0.4-31.7c0-5.8-0.3-11.6-0.3-17.4c0-2.1,0-4.1,0.2-6.2c0.1-1.4,0.4-2.7,0.5-4.1c0-0.4,0-0.8,0-1.1
	c0.1-0.9-0.6-1.7-1.5-1.8c-0.9-0.1-1.7,0.6-1.8,1.5c-0.1,0.3-0.2,0.6-0.2,0.9c-0.4,2.6-0.2,5.3-0.2,8c0,6.8,0.3,13.6,0.3,20.4
	c0,10.2-0.6,20.5-0.5,30.8c0,4,0.2,8,0.5,12c0,0.4-0.1,0.8,0.1,1.1c0.1,0.2,0.2,0.1,0.4,0.2c0,0.5,0.5,0.9,1,0.9
	C206.4,208,206.8,207.5,206.8,207z"/>
<path class="st1" d="M276,262.5c-0.7,0.2-0.4-0.3-0.9,0.3c-0.1,0.1-0.1,0.4-0.1,0.5c-0.4,2.5-0.9,4.9-0.9,7.4c0,0.3,0,0.6,0.1,0.8
	c-0.1,0.8,0.5,1.4,1.2,1.5c0.8,0.1,1.4-0.5,1.5-1.2c0.1-0.3,0.2-0.5,0.2-0.8c0.5-2.4,0.7-4.9,0.9-7.3c0-0.2,0.1-0.4,0-0.5
	c-0.3-0.6-0.1-0.1-0.8-0.5c0.1-0.4-0.2-0.7-0.6-0.8C276.4,261.9,276,262.2,276,262.5z"/>
<path class="st1" d="M208.3,271.9c0-0.1,0.1-0.2,0.5-0.1c0.1,0.5,0.5,0.9,1.1,0.9c0.5,0,0.9-0.5,0.9-1.1c1.2-0.3,0,0.7,0.6,0
	c0,0,0.1-0.1,0.1-0.2c0.1-0.1,0-0.2,0-0.3c0-1.3,0.2-2.5,0-3.8c0-0.1,0-0.2-0.1-0.2c-0.2-0.2-0.3-0.3-0.3-0.4
	c-0.4-0.4,0.6,0.4-0.7,0.1c0-0.4-0.3-0.7-0.7-0.7c-0.4,0-0.7,0.3-0.7,0.7c-1.4,0.4-0.1-0.8-1.1,0.3c-0.1,0.2-0.1,0.4-0.1,0.7
	c-0.1,1.2,0,2.4,0.2,3.6c0,0.1,0,0.2,0,0.3C208.6,272.2,208.3,272.1,208.3,271.9z"/>
<path class="st5" d="M338.7,143.1c-8.9-13.7-46.5,9.6-23.7,29.3C340.8,194.5,349.2,159.2,338.7,143.1z"/>
<path class="st3" d="M340.4,141.9c-2-3.1-5.2-4.7-9-5c-6.4-0.5-14.4,3-19.8,8.6c-3.9,4.1-6.3,9.2-5.9,14.7c0.4,4.5,2.6,9.2,7.8,13.8
	c11,9.6,19.5,9.3,24.8,4.8c4.4-3.8,6.6-10.9,6.8-18.3c0.1-6.6-1.3-13.5-4.6-18.6L340.4,141.9z M336.8,144.3
	c2.9,4.4,4.4,10.4,4.2,16.1c-0.1,3.9-1.2,7.7-2.8,10.7c-3.5,6.8-10.7,9-21.8-0.5c-4.2-3.5-6.3-7.2-6.6-10.7
	c-0.4-4.3,1.6-8.3,4.7-11.6c3.8-4,9.2-6.7,14-7.3c3.5-0.4,6.6,0.4,8.4,3.1L336.8,144.3z"/>
<path class="st3" d="M326.4,156.3c-2.8-1.8-9.5,4.2-3.3,6.9C328.5,165.7,331.5,159.1,326.4,156.3z"/>
<path class="st5" d="M153.8,153.2c-13.3-14.2-43.4,18.8-23.3,29.1C144.3,189.4,169.5,170,153.8,153.2z"/>
<path class="st3" d="M155.5,151.7c-7.6-7.8-19.6-2.8-27.2,5.7c-2.1,2.3-3.9,4.8-5.1,7.4c-0.4,0.9-0.8,1.9-1,2.9
	c-1,4.4-0.2,8.5,2.5,12c1.2,1.6,2.8,3,5,4.3c3.9,2.2,8.8,2.7,13.5,1.4c4.4-1.2,8.4-4.2,11.7-7.5c1.4-1.5,2.8-3,3.8-4.7
	c1.7-2.7,2.8-5.7,2.9-9c0-0.8-0.1-1.6-0.2-2.4C160.6,158.3,158.8,154.9,155.5,151.7L155.5,151.7z M152.2,154.8
	c2.2,2.6,3.3,5.3,3.7,7.9c0.8,4.5-0.5,8.9-3.6,12.2c-2.6,2.8-6.4,4.6-10.1,5.7c-3.8,1.2-7.7,1.6-11,0.1c-2-1-3.6-2.1-4.5-3.6
	c-1.5-2.4-1.3-5.4-0.4-8.3c0.1-0.3,0.2-0.6,0.3-0.9c0.9-2.8,2.2-5.7,4.3-8.2C136.8,152.9,146.5,148.5,152.2,154.8L152.2,154.8z"/>
<g transform="matrix(1.08187,0.353921,-0.353921,1.08187,269.047,-638.712)">
	<path class="st1" d="M112.4,711.6c-4.2-0.3-5.3-11,3.3-8.5C122.3,705.1,117.7,714,112.4,711.6z"/>
</g>
<path class="st6" d="M172.6,225.1c0,0,26.6-1.5,38.8-1.9c31.1-0.9,61.2-2.6,92.3-1.7c0,0-5,17-10.7,23.4
	c-20.9,23-70.3,27.4-95.8,9.9C187.5,248.2,178.9,235.1,172.6,225.1z"/>
<g>
	<g>
		<defs>
			<path id="SVGID_1_" d="M172.6,225.1c0,0,26.6-1.5,38.8-1.9c31.1-0.9,61.2-2.6,92.3-1.7c0,0-5,17-10.7,23.4
				c-20.9,23-70.3,27.4-95.8,9.9C187.5,248.2,178.9,235.1,172.6,225.1z"/>
		</defs>
		<clipPath id="SVGID_00000111162817661967325270000004886611368712315525_">
			<use xlink:href="#SVGID_1_"  style="overflow:visible;"/>
		</clipPath>
		<g style="clip-path:url(#SVGID_00000111162817661967325270000004886611368712315525_);">
			<path class="st0" d="M217.5,272.3c0-27-1.6-52.1-1.2-63.5c0.2-5.7,55.1-2.6,54.8,2.9c-0.8,18-0.1,48.4-1.3,56.7
				C268.5,277.6,219,269.8,217.5,272.3z"/>
			<path class="st1" d="M216.3,270.5c-0.1-0.9-0.3-1.8-0.4-2.6c0-0.6,0-1.3,0-1.9c-0.5-24.6-1.9-46.7-1.6-57.2
				c0-1.2,1.1-2.7,3.5-3.5c4.5-1.5,15.4-1.8,26.2-1.3c10.8,0.6,21.6,2.1,25.9,4c2.4,1.1,3.3,2.7,3.3,3.9
				c-0.6,12.9-0.4,32.4-0.6,45.3c-0.1,5.1-0.3,9.2-0.6,11.6c-0.2,1.6-1.2,3-3.1,4c-1.8,1-4.6,1.7-8.1,2c-11.5,1.2-30.6-0.8-39.1-0.8
				c-1.5,0-2.9,0.7-3.1,0.2c-0.2-0.4,0.6-0.4,0.7-0.7h-1c-0.2,0.8-0.6,1.2-1,0.9s-0.7-1.1-0.7-2l0,0c0-0.3-0.1-0.5-0.1-0.8l-0.8-0.3
				C215.8,271,216,270.8,216.3,270.5z M268.9,212c-0.6,13-0.4,32.3-0.7,45.2c-0.1,4.9-0.3,8.8-0.6,11.1c0,0.2-0.2,0.4-0.5,0.5
				c-0.4,0.3-1,0.6-1.6,0.8c-2.5,0.9-6.3,1.2-10.6,1.4c-11.6,0.3-27-1.2-33.9-1.2c-0.9,0-1.8,0-2.4,0.1c0.1-0.8,0.2-1.7,0.3-2.6
				c0.2-2.6,0-5.1,0-7.6c-0.1-21.5-1.1-40.4-0.7-50.1c0.5-0.2,1.9-0.7,3.2-0.9c5.1-0.8,13.7-0.9,22.3-0.4c8.5,0.5,17,1.5,22.1,2.9
				C266.9,211.4,268.3,211.6,268.9,212z M268.9,212c0.3,0.1,0.4,0.3,0.2,0.5C269,212.6,268.9,212.3,268.9,212z"/>
		</g>
	</g>
</g>
<path class="st3" d="M172.5,223c-0.7,0-1.4,0.5-1.7,1.1c-0.3,0.7-0.3,1.5,0.1,2.1c3.6,6,8.1,13.2,13.2,19.5c1.7,2.1,3.5,4.2,5.4,5.9
	c2.1,1.9,4.3,3.6,6.5,5c7,4.4,15.6,7.1,24.9,8.7c8.4,1.4,17.2,2,26.1,1.2s17.7-2.6,25.6-5.7c8.8-3.4,16.4-8.3,22.1-14.5
	c2-2.2,4-5.7,5.7-9.3c3.3-7.1,5.6-14.8,5.6-14.8c0.2-0.7,0.1-1.4-0.4-2c-0.4-0.6-1.1-0.9-1.8-1c-7.5-0.2-14.9-0.4-22.2-0.3
	c-1.9,0-3.7,0.1-5.6,0.2c-6.9,0.3-13.8,0.9-20.7,1.2c-1.7,0.1-3.4,0.1-5.2,0.2c-12.8,0.3-25.7,0.6-38.8,0.8c-2.2,0-4.9,0.1-7.8,0.2
	c-5.9,0.2-12.8,0.7-18.6,1C177.9,222.9,172.5,223.1,172.5,223L172.5,223z M176.3,227c2.9-0.2,7.2-0.4,11.9-0.7
	c4.5-0.2,9.5-0.4,14-0.6c3.5-0.2,6.7-0.4,9.3-0.5c12.4-0.5,24.7-1.3,36.9-1.7c3.1-0.1,6.1-0.2,9.2-0.2c7.7,0,15.3,0.3,23,0.4
	c6.6,0.1,13.3,0,19.9,0.1c-0.9,2.8-2.4,7.2-4.3,11.3c-1.5,3.2-3.1,6.3-4.9,8.3c-5.2,5.8-12.3,10.4-20.4,13.8
	c-7.5,3.1-15.9,5.3-24.4,6.2s-17.2,0.9-25.3-0.7c-8.7-1.7-16.5-5.2-22.8-9.8c-1.9-1.4-3.7-3.1-5.5-4.9c-1.7-1.7-3.5-3.5-5.1-5.5
	C183.6,237.6,179.7,232,176.3,227L176.3,227z"/>
</svg>
