<?xml version="1.0" encoding="utf-8"?>
<!-- Generator: Adobe Illustrator 26.0.2, SVG Export Plug-In . SVG Version: 6.00 Build 0)  -->
<svg version="1.1" id="Layer_1" xmlns:serif="http://www.serif.com/"
	 xmlns="http://www.w3.org/2000/svg" xmlns:xlink="http://www.w3.org/1999/xlink" x="0px" y="0px" viewBox="0 0 1920 1080"
	 style="enable-background:new 0 0 1920 1080;" xml:space="preserve">
<style type="text/css">
	.st0{fill-rule:evenodd;clip-rule:evenodd;fill:#487938;}
	.st1{fill-rule:evenodd;clip-rule:evenodd;fill:#32221C;}
	.st2{fill-rule:evenodd;clip-rule:evenodd;fill:#D4CCAA;}
	.st3{fill-rule:evenodd;clip-rule:evenodd;fill:#0E3A76;}
	.st4{fill-rule:evenodd;clip-rule:evenodd;}
	.st5{fill-rule:evenodd;clip-rule:evenodd;fill:#8DBCBE;}
	.st6{fill-rule:evenodd;clip-rule:evenodd;fill:#84C4E6;}
	.st7{fill-rule:evenodd;clip-rule:evenodd;fill:#D0F0F1;}
	.st8{fill-rule:evenodd;clip-rule:evenodd;fill:#46BDCC;}
	.st9{fill-rule:evenodd;clip-rule:evenodd;fill:#774161;}
	.st10{fill-rule:evenodd;clip-rule:evenodd;fill:#C1E4E5;}
	.st11{clip-path:url(#SVGID_00000118388492682932803470000011699613238112633732_);}
	.st12{fill-rule:evenodd;clip-rule:evenodd;fill:#005280;}
	.st13{fill-rule:evenodd;clip-rule:evenodd;fill:#042148;}
	.st14{fill-rule:evenodd;clip-rule:evenodd;fill:#693484;}
	.st15{fill-rule:evenodd;clip-rule:evenodd;fill:#31221C;}
	.st16{fill-rule:evenodd;clip-rule:evenodd;fill:#EBD3EA;}
	.st17{fill-rule:evenodd;clip-rule:evenodd;fill:#B471C8;}
	.st18{fill-rule:evenodd;clip-rule:evenodd;fill:#DEA849;}
	.st19{fill-rule:evenodd;clip-rule:evenodd;fill:#FB6946;}
	.st20{fill-rule:evenodd;clip-rule:evenodd;fill:#32221A;}
	.st21{fill-rule:evenodd;clip-rule:evenodd;fill:#F1002D;}
	.st22{fill-rule:evenodd;clip-rule:evenodd;fill:#F4C8E9;}
	.st23{fill-rule:evenodd;clip-rule:evenodd;fill:#DED6B2;}
	.st24{clip-path:url(#SVGID_00000141435336795822314050000008166621265905704324_);}
</style>
<g id="Layer1" transform="matrix(1,0,0,1,588.308,-372.603)">
	<path class="st0" d="M408,1044c0,0-3.8,8-3,15.1c1.2,9.9-4,19.7-3.1,29.3c1.3,14.4-9.2,27.4-10.3,41.8c-0.8,9.6,1.2,19.5,1.8,29.1
		c1.6,25.7,3.6,51,5.8,76.7c1,12-0.3,77.3,7.9,90.1c6.2,9.7,16.7,15.4,26.2,21.2c9.7,5.9,19.4,11.4,30.2,15c13.6,4.6,27.7,8,42,9.8
		c20.6,2.6,40.9,5.8,61.6,3.7c10.7-1.1,21.8-2.1,32.2-4.8c6.8-1.7,72.8-21.5,77.4-27.4c15-19,20.1-78.3,19.5-101.6
		c-0.4-14.9-3.7-29.3-4.7-44.1c-1.7-25.1,3.1-48.7,6.8-73.3c3.5-23.5,5.9-47.1,8.9-70.6c1.8-14.2,6-27.9,5.4-42.3
		c-0.7-16.2-12.6-26.8-15.8-42.5l3.9,8.8c-8.4-14-18.7-23.2-36-17.4c0,0,18.2-137.4,28.4-189.9c9-46.7,16-91.2,3.8-138.2
		c0,0-52.4-17-71-22.9c-28.9-9.3-67.8,27.5-90.9,49.4c-5.6,5.4-7.7,28.2-12.8,34.1c-8.6,9.8-7.3,35.1-13.2,46.8
		c-14.3,27.8-7.2,73.2-10.2,103.7c-2.3,23.7,1.8,46.6-3.3,70.2c-5.3,24.1,2.6,52.9-29.2,55.9l-0.6,2.6
		C426.8,985.6,416.1,1004.1,408,1044z"/>
	<path class="st1" d="M464.1,970.8l0.4-1.6c0.2-0.8,0.8-1.4,1.6-1.4c11.9-1.1,17.9-6.1,21.1-13.2c5-11.1,3.4-27,6.5-41.3
		c1.5-6.9,2.2-13.8,2.5-20.6c0.7-16.4-0.8-32.6,0.9-49.3c2.1-21-0.5-49,2.3-73.5c1.3-11.4,3.7-21.9,8.3-30.8
		c4.6-8.9,4.8-26.1,8.7-37.9c1.2-3.6,2.7-6.8,4.8-9.1c3.8-4.4,5.8-18.4,9-27.2c1.1-3.1,2.4-5.5,3.9-6.9
		c13.2-12.5,31.5-29.9,50.3-40.8c14.5-8.4,29.2-13,41.9-8.8l70.9,23c0.4,0.1,0.7,0.4,0.8,0.8c4.9,18.8,6.7,37.2,6.5,55.6
		c-0.2,27.6-5,55-10.4,83.1c-3.5,18.2-8,46.5-12.4,75.8c-7.4,49.7-14.4,102.1-15.7,112.3c8.2-2.4,14.9-1.3,20.6,1.9
		c3.8,2.2,7.2,5.4,10.3,9.4c0.1-0.7,0.5-3,1.1-1.4l3.8,8.8c0.2,0.6,0,1.2-0.5,1.5c2.9,6.5,6.7,12.4,9.3,18.9c1.7,4.3,3,8.7,3.2,13.7
		c0.2,4.4,0,8.7-0.5,13c-1.1,9.9-3.5,19.6-4.8,29.6c-2.1,16.5-3.9,33-5.9,49.5c-0.9,7.1-1.8,14.1-2.8,21.2
		c-2.1,14.8-4.7,29.2-6,43.8c-0.9,9.6-1.2,19.3-0.5,29.2c0.7,10.4,2.6,20.5,3.7,30.8c0.5,4.4,0.9,8.9,1,13.4
		c0.4,13.7-1.2,39.8-5.5,62.9c-3.2,16.7-7.8,31.9-14.2,40c-0.7,0.8-2.3,2-4.8,3.2c-4.1,2.1-10.8,4.7-18.6,7.4
		c-21.4,7.6-50.7,16.3-55.1,17.5c-4.3,1.1-8.6,1.9-13,2.6c-6.5,1-13.1,1.6-19.5,2.2c-8.4,0.9-16.7,0.9-25,0.4
		c-12.4-0.7-24.6-2.5-37-4.1c-7.2-0.9-14.3-2.2-21.4-3.9c-7.1-1.7-14.1-3.7-20.9-6c-4.4-1.5-8.6-3.3-12.7-5.3c-6.1-3-12-6.4-17.9-10
		c-5.8-3.5-11.9-7-17.3-11.4c-3.7-3-7-6.4-9.6-10.4c-2.8-4.4-4.7-14.9-5.8-27.4c-2.1-24-1.7-55.6-2.4-63.6
		c-1.1-12.8-2.1-25.6-3.1-38.3c-1-12.8-1.9-25.5-2.7-38.4c-0.4-6.7-1.5-13.6-1.8-20.4c-0.2-3-0.2-6,0.1-9
		c0.8-10.2,6.2-19.6,8.9-29.3c1.1-4,1.8-8.1,1.5-12.2c-0.7-7.8,2.5-15.7,3.2-23.7c0.2-1.8,0.2-3.7,0-5.6c-0.3-2.8,0-5.7,0.6-8.3
		c1-4.4,2.6-7.8,2.6-7.8h-0.3c-0.1,0.1-0.1,0.3-0.2,0.4v-0.1c4.1-20.1,9-34.9,17.6-46.3C432.2,985.8,444.6,977.6,464.1,970.8z
		 M696.9,974.3c2.8,8.9,8.1,16.3,11.4,24.6c1.6,4,2.8,8.2,3,12.8c0.2,4.3-0.1,8.4-0.6,12.6c-1.1,9.9-3.6,19.6-4.9,29.5
		c-2.1,16.5-4,33-6.1,49.4c-0.9,7-1.9,14.1-2.9,21.1c-2.2,14.8-4.9,29.3-6.2,43.9c-0.9,9.8-1.3,19.6-0.7,29.7
		c0.7,10.4,2.5,20.6,3.6,30.9c0.5,4.3,0.8,8.7,1,13.1c0.3,13.6-1.3,39.3-5.7,62.1c-3.1,16-7.4,30.6-13.6,38.3
		c-0.5,0.6-1.7,1.3-3.5,2.1c-4,2-10.6,4.5-18.1,7.2c-21.3,7.6-50.4,16.2-54.8,17.3c-4.1,1.1-8.3,1.9-12.6,2.5
		c-6.4,1-13,1.6-19.4,2.2c-8.2,0.8-16.3,0.8-24.4,0.4c-12.3-0.7-24.5-2.5-36.8-4c-7.1-0.9-14.1-2.2-21-3.8c-7-1.6-13.8-3.6-20.6-5.9
		c-4.2-1.4-8.3-3.2-12.3-5.1c-6-2.9-11.8-6.3-17.5-9.8c-5.7-3.4-11.6-6.8-16.9-11.1c-3.4-2.8-6.4-5.8-8.8-9.6
		c-2.7-4.1-4.2-14-5.2-25.7c-2.1-24-1.8-55.6-2.4-63.6c-1.1-12.8-2.1-25.6-3.1-38.3c-1-12.7-1.9-25.5-2.7-38.3
		c-0.4-6.7-1.5-13.5-1.9-20.3c-0.1-2.9-0.2-5.7,0.1-8.5c0.8-9.9,6.1-19.2,8.8-28.6c1.3-4.4,2-8.9,1.6-13.5
		c-0.7-7.6,2.5-15.3,3.1-23.1c0.2-2.1,0.2-4.2-0.1-6.3c-0.3-2.4,0-4.9,0.5-7.2c0.9-4,2.3-7,2.3-7v0.1c0.1-0.2,0.1-0.3,0.1-0.5h0.3
		c3.9-19.4,8.5-33.7,16.7-44.8c8.3-11.1,20.3-18.9,39.2-25.4c0.4,0.1,1.3,0.2,1.7-1.8l0.3-1.1c12.8-1.6,19.3-7.4,22.7-15.3
		c5-11.4,3.5-27.5,6.6-42c1.5-7.1,2.2-14.2,2.5-21.2c0.7-16.3-0.9-32.5,0.7-49.1c2-21-0.7-49,2-73.4c1.2-11,3.5-21.2,7.9-29.8
		c4.6-9.1,4.9-26.4,8.8-38.4c1.1-3.2,2.4-6.1,4.2-8.1c4-4.5,6.2-19,9.5-28.2c0.9-2.6,1.9-4.7,3.2-5.8c13-12.4,31.2-29.7,49.7-40.5
		c13.7-8,27.7-12.6,39.8-8.7l70.4,22.7c4.7,18.4,6.5,36.4,6.4,54.3c-0.2,27.5-4.9,54.7-10.3,82.7c-3.5,18.2-8,46.5-12.4,75.8
		c-8.3,55.3-16.1,114.1-16.1,114.1c-0.1,0.4,0.1,0.8,0.4,1c0.3,0.3,0.7,0.3,1.1,0.2c8.3-2.8,14.9-2,20.4,1.2
		C689.8,965.4,693.5,969.4,696.9,974.3z"/>
	<path class="st0" d="M554.2,731.6c-1.7,0.7,2.9-6.8,4.4-5.6c1.1,0.8,0.9-2.6,1.3-3.9c0.8-3.2,1.4-6.4,2.1-9.6c2.2-9,4-18.1,6-27.2
		c5.5-24.7,24-38.3,45.6-49.4l83.3-3.5c-23.6-91.2-119-130.6-200.8-87.4C456.2,566.2,409,612.9,393,655.5L554.2,731.6z"/>
	<path class="st1" d="M398.3,658c-0.8-0.3-1.5-0.6-2.1-0.8c-2.3-0.8-3.6-0.8-3.6-0.8c-0.5-0.2-0.7-0.7-0.5-1.2
		c0.2-1.6,0.3-3.1,0.7-4.7c0.3-1,0.8-1.9,1.2-2.9c8.6-19.4,23.1-39.2,40-56.9c18.9-19.8,40.9-36.9,61-47.5
		c41.6-22,86.7-22.9,124.3-6.6c34,14.7,62,43.4,75.7,83.2c0.7,2,1.4,4,2,6.1c0.5,2.1,0.8,4.2,1.2,6.3c0.1,0.4,0,0.8-0.2,1.1
		c-0.2,0.3-0.6,0.5-1,0.5c-3.5-0.3-6.8-0.7-10-0.8c-0.4,0-0.8,0-1.2,0c-1.9,0.1-3.7,0.1-5.4,0.2c-66.6,3.1-66.6,2.8-66.6,2.8
		c-1.8,0.9-3.6,1.9-5.4,2.9l0,0c0.2,0.1,0.2,0.1,0,0.1c-0.1,0.3-0.2,0.8-0.4,1.4c0,0-0.1,0-0.1,0.1l-0.6,0.4c-0.3,0.7-0.5,1-0.3,0.2
		l0,0l0.2-0.2c0.2-0.5,0.5-1.2,0.8-1.7l0,0l0.1-0.1l0,0l-0.1,0.1l0,0.1c-0.2,0.1-0.3,0.3-0.5,0.3h0c0-0.1,0.3-0.1,0.4-0.2l0.2-0.1
		l0-0.1c-0.6,0-1.6-0.1-2-0.2l0.5-0.3c0.1,0,0.2-0.2,0.3-0.1c0.6,0.2,1,0.3,1.3,0.4c0.3-0.6,0.4-0.8,0.2,0.1l0,0v0l0,0l0,0
		c1.8-1,3.6-1.9,5.4-2.9l0,0c0,0,0-0.3,66.6-2.8c1.8-0.1,3.6-0.2,5.4-0.2c0.4,0,0.8-0.1,1.2-0.1c2.7-0.3,5.4-0.8,8.3-1.4
		c-0.6-1.5-1.2-3-1.8-4.6c-0.7-2-1.3-4-2-6c-13.5-38.6-40.7-66.4-73.8-80.5c-36.5-15.7-80.2-14.8-120.5,6.6
		c-19.7,10.4-41.3,27.2-59.9,46.6c-16.6,17.3-30.8,36.7-39.5,55.6c-0.4,0.9-0.7,1.9-1.2,2.8c-0.7,1.2-1.6,2.3-2.4,3.4
		c0.5,0.4,1.1,0.9,2.1,1.5C396.9,657.2,397.5,657.6,398.3,658c1.1,0.5,2.4,1.1,3.9,1.8c2.1,0.9,4.4,2,7,3.2
		c28.8,13.7,89.2,42.2,122.2,57.8l5.9,2.8l15.3,7.2l0,0l1.6,0.8h0.5v1.2c-0.8,0.4-1.3,0.1-1.6-0.2c-0.3-0.2-0.6-0.7-0.5-1.5
		c0-0.1,0-0.2,0-0.3l-15.3-7.2l-5.9-2.8c-33-15.6-93.4-44.1-122.3-57.7c-2.6-1.2-4.9-2.4-6.9-3.4C400.7,659.1,399.4,658.5,398.3,658
		z M605.9,638.8l-0.2,0.1l0,0c0.2,0.1,0.5,0.1,0.7,0.2l0.9,0.2l0,0c-0.2,0.8-0.4,1.3-0.5,1.6c-4.8,3-9.3,6.2-13.5,9.5
		c-4.3,3.5-8.4,7.1-11.8,11.2c-5.5,6.7-9.7,14.5-11.8,24l-6,27.2l-2.1,9.6c-0.3,1-0.3,3-0.7,3.9c-0.4,1-1.1,1.4-1.8,1.4
		c-0.3,0-0.6,0-0.9-0.1l-3.1,3.7c0,0-0.3-0.7-0.4-0.9c-0.2-0.2-0.5-0.4-1-0.2l0.5,1.2l-1.6-0.8c0.2-0.6,0.6-1.7,1.2-2.7
		c0.9-1.5,2.2-3,3.1-3.5c0.4-0.3,0.8-0.4,1.2-0.4c0-0.8-0.1-2,0-2.5l2.1-9.6l6-27.1c2.8-12.8,9.1-22.7,17.4-30.8
		c2.4-2.3,4.9-4.5,7.6-6.5c3.9-2.9,8.2-5.4,12.6-7.8c0.6-0.3,1.3-0.7,1.9-1C605.5,638.8,605.6,638.8,605.9,638.8z M558.1,724.7
		c0,0.3-0.2,0.5-0.4,0.4C557.4,725,557.8,724.8,558.1,724.7z"/>
	<path class="st0" d="M504.2,964.2c13.7,9.8,23.3-1.2,31.7-12.1c17.5-22.6,20-50.8,25.8-77.7c4.2-19.6,5.2-42.9,6.7-63
		c0.6-7.7,0.3-15.7,1.9-23.3c1.4-6.4,3.6-12.9,6.8-18.6c4.3-7.8,11.9-13.5,11.4-23.1c-0.5-10.9-10.8-19.2-18.8-25.1
		c-1.7-1.3-3.6-2.3-5.1-3.8c-0.2-0.2-1.6-2-1.7-2"/>
	<path class="st1" d="M561.7,716.9c0.2,0.2,1.4,1.6,1.5,1.8c0.5,0.5,1.1,1,1.6,1.4c1.2,0.9,2.5,1.7,3.7,2.6
		c4.6,3.4,10,7.7,13.8,12.8c2.4,3.3,4,6.9,4.2,10.9c0.2,3.5-0.8,6.4-2.3,9.1c-2.5,4.5-6.2,8.4-8.8,13.1c-1.3,2.4-2.5,4.9-3.4,7.4
		c-0.5,1.5-0.9,3.1-1.4,4.7c-0.5,1.9-1.1,3.8-1.6,5.6c-0.1,0.5-0.3,0.9-0.5,1.4c-0.7,3.1-1.1,6.3-1.3,9.5c-0.3,4.7-0.4,9.4-0.7,14
		c-0.8,12-1.4,25.1-2.8,37.9c-0.9,8.6-2.2,17-3.9,24.9c-3.4,16.1-5.7,32.7-10.7,48.2c-3.3,10.2-7.9,19.9-14.7,28.8
		c-4.9,6.2-10,12.6-16.2,14.6c-3.5,1.1-7.4,0.8-11.8-1.9c-0.3-0.2-0.6-0.6-1-0.6c-1.2,0,0.1-0.1-0.8,0.7c-0.3-0.2-0.7-0.1-0.9,0.2
		c-0.2,0.3-0.1,0.7,0.2,0.9c-0.4,1.2-0.7-0.1-0.3,1c0.1,0.4,0.7,0.5,1.1,0.8c5.4,3.6,10.3,4,14.8,2.6c6.9-2.1,12.7-9,18-15.9
		c7.1-9.2,11.7-19.3,15.2-29.9c5.1-15.7,7.5-32.3,11-48.5c1.7-8,2.7-16.6,3.6-25.3c1.3-12.8,2.1-26,3-38c0.4-5.4,0.4-10.9,0.9-16.3
		c0.2-2.3,0.5-4.5,1-6.7c0.1-0.5,0.1-1,0.2-1.6c0.4-2,0.9-4.1,1.6-6c0.3-0.7,0.7-1.4,1-2.1c1.2-2.9,2.4-5.7,3.9-8.4
		c3.1-5.6,7.7-10.1,10.1-15.6c1.1-2.6,1.7-5.4,1.5-8.5c-0.2-4.7-2.2-9-5-12.9c-3.9-5.4-9.7-10-14.6-13.6c-1.2-0.9-2.5-1.6-3.7-2.5
		c-0.4-0.3-0.9-0.7-1.3-1.1c-0.1-0.1-1.1-1.3-1.5-1.8c-0.9-0.9-2-0.6-2.2-0.6c-0.9,0.4-1.4,1.5-1,2.4
		C561.3,716.5,561.5,716.7,561.7,716.9z"/>
	<path class="st0" d="M412.9,616.8c-35.9,42.5-36.1,98.9-48,127.7c-6.2,15.2-35.1,10-38,35.8c-2.2,19.6,28.7,18.2,24.5,33.7
		c-12.4,46-0.7,120.7,23.8,146c8.4,8.7,25.9,5.9,35.5,7c21.1,2.3,77.2,16.9,92.2-2.1c14.6-18.6,15.8-86.2,19.7-112.3
		c2.3-15.6,4.4-32.8,8.3-48.1c0.3-1,8.5,1.4,9.1,1.4c5.6,0.8,10.7-1.7,14.1-6c9.8-12.5,11.6-34.9-4.1-42.8"/>
	<path class="st1" d="M532.5,806.3c2.4,0.3,6.8,1.6,7.2,1.6c3.2,0.4,6.2,0,9-1.3c2.7-1.2,5-3.1,6.9-5.6c4.9-6.5,7.9-15.5,7.5-24
		c-0.3-7.1-3-13.6-8.4-18c-1.3-1-2.7-2-4.3-2.8c-0.4-0.2-0.9,0-1.1,0.4c-0.2,0.4,0,0.9,0.4,1.1c1.5,0.7,2.8,1.6,3.9,2.6
		c4.8,4.2,6.6,10.3,6.6,16.7c0,7.7-2.9,15.8-7.6,21.5c-1.5,1.9-3.4,3.4-5.5,4.3c-2.1,0.9-4.4,1.3-6.8,0.9c-0.5-0.1-6.3-1.7-8.5-1.7
		c-1.8,0-2.7,1.1-2.8,1.8c-1.6,6.2-2.9,12.7-4,19.3c-1.7,9.7-3,19.7-4.4,29c-2.5,17.3-3.9,52.5-8.8,79.9
		c-2.4,13.7-5.6,25.3-10.5,31.5c-4.7,6-13.8,8.2-24.5,8.7c-22.5,1.1-51.9-5.9-65.8-7.4c-5.7-0.6-14.3,0.1-22.1-1
		c-4.7-0.7-9.1-2.1-12.2-5.3c-12.8-13.2-21.9-40.1-26-69.2c-3.6-25.9-3.1-53.5,2.6-74.9c1.2-4.3,0.1-7.5-2.2-10.2
		c-3.4-4-9.9-6.7-15.2-10.4c-4.3-3-7.8-6.9-7.1-13.4c0.7-6.2,3-10.5,6.1-13.6c5.4-5.4,13.1-7.7,19.5-10.7c5.5-2.6,10.1-5.7,12.2-11
		c7.7-18.8,10.6-49.2,21.4-79.9c5.8-16.3,13.9-32.6,26.3-47.3c0.7-0.8,0.6-2.1-0.2-2.8c-0.8-0.7-2.1-0.6-2.8,0.2
		c-12.7,15.1-21,31.8-27,48.5c-10.9,30.6-13.6,61-21.3,79.7c-2.2,5.5-7.8,7.9-13.8,10.5c-6,2.6-12.4,5.2-17.2,10
		c-3.7,3.7-6.4,8.7-7.2,15.9c-0.4,4,0.3,7.2,1.9,9.9c3.6,6.4,11.7,9.7,17.6,13.7c3.7,2.5,6.4,5.2,5.1,9.8c-5.9,21.8-6.4,50-2.8,76.4
		c4.2,30.1,13.8,57.8,27,71.4c2.8,2.9,6.5,4.7,10.6,5.7c8.7,2.2,19.3,1.1,26.1,1.9c14.1,1.5,43.7,8.5,66.4,7.5
		c12.1-0.6,22.3-3.5,27.6-10.3c5.1-6.5,8.7-18.8,11.3-33.3c4.9-27.4,6.2-62.7,8.8-80c1.4-9.3,2.7-19.2,4.3-28.9
		C529.9,817.9,531.1,812,532.5,806.3z"/>
	<path class="st2" d="M391.4,748.9c0,0,13.6,0.2,19.3,6.8c7.2,8.2,1.3,28-9.3,30.9C383.8,791.3,373.2,755.3,391.4,748.9z"/>
	<path class="st1" d="M390.8,748.3c0.1-0.4,0.2-0.7,0.4-0.8h-0.3c-9.8,3.4-12.3,14.5-9.7,24.5c1.2,4.8,3.6,9.2,6.8,12.3
		c3.7,3.6,8.5,5.3,13.8,3.8c5.7-1.6,10.2-7.6,12.3-14.5c2-6.9,1.6-14.4-2.3-18.8c-2.4-2.8-6.1-4.6-9.7-5.6c-4-1.2-7.8-1.5-9.6-1.6
		c-0.3,0-0.6-0.1-0.8,0C391.3,747.8,391,748.1,390.8,748.3z M391.9,750.4c0.2,0,0.4,0,0.6,0c2.1,0.2,6.5,0.7,10.6,2.3
		c2.4,0.9,4.8,2.2,6.4,4c3.3,3.7,3.5,10.2,1.8,16.1c-1.8,5.8-5.5,11.1-10.4,12.3c-4.1,1-7.7-0.5-10.6-3.3c-2.7-2.7-4.8-6.6-5.9-10.7
		C382.3,762.8,383.8,753.3,391.9,750.4L391.9,750.4z M390.7,749.4c0.1,0.6,0.4,1.1,0.7,1.1v-0.4c-0.7-0.6,0-0.5,0-0.5l-0.1,0
		C391.2,749.6,390.9,749.5,390.7,749.4z"/>
	<path class="st2" d="M449.7,752.2c38.7-26.4,42.8,14.6,21.8,29.9C453.7,795,438.7,759.7,449.7,752.2z"/>
	<path class="st1" d="M449,751.1c-0.3-0.1-0.4-0.1-0.7,0c-1.8,0.5-2.5,2.7-3.2,4.5c-2.1,5.6-0.5,14.3,3.6,21.1
		c5.2,8.6,14.3,13.9,23.9,6.9c4.3-3.2,7.5-7.4,9.7-11.9c3.9-8,4.5-16.9,1.4-22.7c-4-7.6-14.4-11-31.8-0.2c-0.9,0.6-2,1-2.8,1.9
		c0,0-0.1,0.1-0.1,0.1C449,750.9,449,751,449,751.1z M450.5,753.3c0.1,0,0.2,0,0.4,0.1c0.1,0,0.1,0,0.2,0c1-0.4,1.8-1.2,2.7-1.7
		c14.8-9.1,23.6-7.7,27-1.2c2.7,5.1,2.2,12.9-1.3,19.8c-2,4-5.1,7.7-9,10.4c-7.6,5.5-14.4,0.8-18.6-5.9c-3.5-5.7-5.2-13-3.4-17.9
		c0.4-1.2,1.4-1.9,2-3C450.6,753.6,450.4,753.5,450.5,753.3z M450.5,753.3c0.1,0,0.1-0.2-0.3-0.6L450.5,753.3L450.5,753.3z
		 M449,751.1c0.1-0.1,0.2,0,0.4,0.5L449,751.1L449,751.1z"/>
	<path class="st1" d="M573.7,670.2c0.5,0.1,0.9,0.3,1.5,0.2c1.6-0.1,3.1-1.1,4.7-1.4c0.5-0.1,1.1-0.1,1.7-0.1c1.5,0,3.1,0.2,4.6,0.1
		c5.5-0.4,10.4,0.1,15,1.4c3.7,1.1,7.2,2.9,10.7,5.3c0.3,0.2,0.6,0.5,1,0.7c0.5,0.3,1.1,0.5,1.7,0.8c0.6,0.5,1.4,0.4,1.9-0.2
		s0.4-1.4-0.2-1.9c-0.4-0.5-0.8-1-1.3-1.5c-0.3-0.3-0.7-0.5-1.1-0.8c-3.8-2.7-7.7-4.5-11.8-5.6c-5-1.4-10.2-1.7-16.1-1.2
		c-1.4,0.1-2.9,0-4.4,0c-0.7,0-1.4,0.1-2.2,0.2c-1.7,0.4-3.5,0.8-5,1.7c-0.4,0.3-0.6,0.6-1,0.9c-0.4,0.1-0.6,0.4-0.5,0.8
		C573,670,573.3,670.2,573.7,670.2z"/>
	<path class="st1" d="M568.7,677c0.4,0.6-0.3,0.2,0.3,0.5c0.2,0.1,0.4,0,0.5-0.1c2.1-0.4,4.3-0.5,6.4-0.4c6.8,0.3,11.1,3.4,14.3,7.8
		c3.5,4.8,5.5,11.1,7.9,17c1.1,2.7,2.4,5.2,3.7,7.5c0.2,0.5,0.8,0.7,1.3,0.5c0.5-0.2,0.7-0.8,0.5-1.3c-0.8-2.5-1.4-5.2-2.3-7.9
		c-2-6.4-4.5-12.9-8.3-17.9c-3.8-5.1-9.1-8.5-17-8.6c-2.1,0-4.2,0-6.2,0.5c-0.5,0.1-1.1,0-1.4,0.4c-0.4,0.6,0-0.1,0,0.6
		c-0.4,0.1-0.5,0.5-0.4,0.8C568,676.9,568.4,677.1,568.7,677z"/>
	<path class="st1" d="M565.3,691.3c0.4,0.6,0.7,1.2,1.2,1.8c4.1,4.7,8.6,8.5,11.4,13.5c2.2,3.9,3.6,8.2,4.5,12.8
		c0.4,1.9,0.8,3.8,1,5.8c0,0.7,0.6,1.2,1.3,1.2c0.7,0,1.2-0.6,1.2-1.3c0.1-2.2,0.1-4.3-0.2-6.3c-0.7-5.1-2.5-9.7-4.9-14
		c-3.1-5.3-6.8-10.8-12.7-13.9c-0.7-0.4-1.3-0.5-2.1-0.7c-0.3-0.2-0.7-0.1-0.9,0.1C564.9,690.7,565,691.1,565.3,691.3z"/>
	<path class="st1" d="M434.3,938.2c0.6-0.1,0.3,0.3,0.8-0.1c0.2-0.1,0.2-0.4,0.4-0.6c1.5-2.6,4.3-4.6,7.4-5.7c3.3-1.2,7.1-1.5,10,0
		c1.1,0.5,2,1.3,2.8,2.2c1.1,1.1,1.9,2.6,2.9,3.7c0.3,0.3,0.6,0.6,1,0.9c0.4,0.8,1.4,1,2.1,0.6c0.8-0.4,1-1.4,0.6-2.1
		c-0.2-0.6-0.3-1.1-0.5-1.7c-0.5-1.2-1.4-2.3-2.3-3.3c-1.3-1.6-3-3-4.8-3.9c-3.9-1.9-8.9-1.8-13.3,0c-3.8,1.6-7.2,4.5-8.6,8.1
		c-0.1,0.3-0.4,0.6-0.3,0.9c0.1,0.6,0.1,0.2,0.5,0.6c-0.1,0.4,0.1,0.7,0.4,0.9C433.8,938.7,434.2,938.5,434.3,938.2z"/>
	<path class="st1" d="M377.6,940.8c0.2-0.2,0.3-0.2,0.5-0.4c0.2-0.2,0.2-0.5,0.4-0.7c1.6-3.1,4.7-6.7,8.2-9c2.6-1.7,5.4-2.7,7.9-2.1
		c1.5,0.3,2.7,1.1,3.9,2.1c0.9,0.8,1.8,1.7,2.6,2.6c0.9,1,1.8,1.9,2.6,2.8c0.5,0.6,1.3,0.6,1.9,0.1c0.6-0.5,0.6-1.3,0.1-1.9
		c-0.8-1-1.5-2.1-2.4-3.1c-0.9-1-1.9-2-2.9-2.9c-1.5-1.3-3.2-2.2-5.1-2.7c-4.1-0.9-8.6,1-12.3,4.2c-3,2.7-5.5,6.2-6.6,9.2
		c-0.1,0.2-0.2,0.4-0.2,0.6c0,0.3,0,0.5,0.1,0.7c-0.1,0.4,0.1,0.8,0.5,0.9C377.1,941.3,377.5,941.1,377.6,940.8z"/>
	<path class="st1" d="M440.2,951.9c-3.9,0.9,11.7,3.7,15.1,2.5c3.6-1.3,3.8-4.2,0.4-6.8c-3.2-2.5-9.9-2.4-13.4-0.9L440.2,951.9z"/>
	<path class="st1" d="M381.7,947.6c-2.7,5.5,9.2,1.5,12.2,0.1c1.5-0.7,5.4-1.6,5.6-3.5c0.3-2.6-4.5-3.6-6.2-3.9
		C388.2,939.3,383.9,943.2,381.7,947.6z"/>
	<path class="st1" d="M397.8,765.1c-4.5,1.6-4,8.4,0.5,6.2C401.7,769.6,397.8,765.1,397.8,765.1z"/>
	<path class="st1" d="M460.7,765.3c0,0,1.4-9.1,5.3-4.5C472.3,768.4,460.7,765.3,460.7,765.3z"/>
</g>
<g id="Layer2" transform="matrix(1,0,0,1,406.943,-158.555)">
	<path class="st3" d="M910.4,880.6c4.8-52.7,1.3-97.2,19.6-146.7c4.4-12,12.2-25.8,16.2-33.4c9.3-17.7,23.9-36.1,44.2-39.9
		c26.7-5,39.2-8.8,61.5-16.1c14.5-4.8,21.7-8,37.3-7.4c6.2,0.3,7.5,6.6,21.9-2.6c5.2-3.3,1.1,2.8,6.7,5.7
		c14.3,7.5,39.3,10.2,49.7,21.3c5.6,5.9,12.2,10.7,17.3,17.1c8.2,10.2,12.6,22.4,18.9,33.6c7.1,12.6,15.9,24.5,21.1,38
		c5.1,13.4,6.6,27.5,8.7,41.6c6.8,46,9.1,92.2,6,138.6l0-9.5c3.1,21.2,4.7,42.5,1.8,63.9c-3.5,25-10.8,48.4-8.7,74
		c1.9,22.9,20.2,70.7,12.7,89.1c-6.3,15.6-19.6,26.9-30.9,38.7c-59.4,61.9-165.3,94.5-237.1,32.2c-12.1-10.5-20.6-25-26.9-39.5
		c-7.1-16.4-7.7-33.4-11.7-50.5c-5.3-22.9-12.8-40.7-14.2-65.3c-1.6-28.8,2.6-57.2-0.4-86c-3.3-32-13.2-65.5-12.2-97.8
		c0.3-8.2,2.8-16.1,3.7-24.2L910.4,880.6z"/>
	<path class="st4" d="M910,873.5l-1.4,6.7l1.1,0.2l0,0.1v-0.1c0,0.6,0.1,1.2,0.3,1.6c-0.1,9.1,0.5,18.2,1.6,27.4
		c2.8,22.9,8.3,45.9,10.5,68.2c0.9,8.6,1.1,17.1,1,25.6c-0.1,20.1-1.9,40.1-0.7,60.4c0.5,9.7,2,18.4,4,26.8c3,12.8,7,24.9,10.3,38.8
		c2.8,12,3.9,24,6.8,35.7c1.2,5.1,2.8,10.1,5,15.1c3.2,7.4,6.9,14.7,11.4,21.6c4.5,6.9,9.8,13.3,16,18.7
		c36.4,31.6,81.6,39.2,125.1,30.9c43.2-8.2,84.7-32.1,114.6-63.3c6.8-7.1,14.3-14.1,20.6-21.9c4.3-5.3,8-11,10.6-17.4
		c2.6-6.5,2.2-16.5,0.4-27.9c-3.5-21.1-11.8-47-13.1-62c-0.8-10.1-0.2-19.8,1.1-29.5c2-14.7,5.4-29.2,7.5-44.2
		c1.5-10.8,1.8-21.5,1.4-32.3c-0.4-9.7-1.4-19.3-2.8-29c1.2-21,1.2-42,0.3-62.9c-1.1-23.2-3.3-46.3-6.7-69.3c-1.3-8.5-2.3-17-4-25.3
		c-1.2-5.6-2.6-11.1-4.7-16.6c-1.6-4.1-3.5-8.1-5.6-12c-4.8-8.9-10.6-17.4-15.6-26.2c-4.4-7.9-7.9-16.2-12.4-24
		c-2-3.4-4.1-6.7-6.6-9.8c-1.6-2-3.3-3.8-5-5.5c-4-4-8.4-7.5-12.3-11.7c-3.5-3.7-8.5-6.5-14.3-8.9c-11.6-4.8-26.1-7.6-35.8-12.7
		c-2-1.1-2.4-2.6-2.7-3.8c-0.2-0.8-0.3-1.4-0.6-1.8c-0.6-1.1-1.8-2-4.9,0c-4.5,2.9-7.6,4.2-10,4.6c-2.7,0.5-4.4-0.2-6-0.9
		c-1.5-0.6-3-1.2-5-1.3c-6.2-0.3-11.1,0.1-15.6,0.9c-7.1,1.2-13.3,3.6-22.2,6.6c-11.6,3.8-20.6,6.7-30.3,9.3
		c-8.8,2.3-18.3,4.4-31,6.8c-8.5,1.6-16,5.6-22.6,11.1c-9.5,7.9-17.1,18.9-22.7,29.6c-2.5,4.8-6.6,12.1-10.3,19.8
		c-2.2,4.6-4.3,9.3-6,13.8c-7.3,19.9-11.1,39-13.3,58.1c-3,25.9-3.6,51.9-5.2,80.1C910.1,872.3,910.1,872.9,910,873.5z
		 M1112.8,635.2c-0.3,0.1-0.6,0.3-0.9,0.5c-4.9,3.2-8.4,4.6-11.1,5c-2.8,0.5-4.7,0-6.5-0.6c-1.7-0.6-3.1-1.5-5.1-1.5
		c-5.9-0.2-10.6,0.1-15,0.8c-6.9,1.2-13,3.6-21.8,6.5c-11.7,3.9-20.7,6.7-30.5,9.3c-8.9,2.4-18.4,4.5-31.2,6.8
		c-8,1.5-15,5.3-21.2,10.4c-9.2,7.7-16.5,18.3-22,28.7c-2.5,4.8-6.5,12-10.3,19.7c-2.2,4.5-4.2,9.1-5.9,13.5
		c-7.3,19.6-11.1,38.5-13.5,57.4c-2.6,21.2-3,42.5-4.5,64.9l0.3-1.5c0.2-0.9,1.1-1.6,2.1-1.4c1,0.2,1.6,1,1.5,2
		c-0.6,5.7-2.1,11.3-2.9,16.9c-0.4,2.3-0.6,4.7-0.7,7.1c-0.3,9.7,0.4,19.4,1.6,29.2c2.8,22.9,8.3,45.9,10.6,68.3
		c0.9,8.7,1.1,17.3,1.1,26c-0.1,20-1.8,40-0.7,60.1c0.5,9.5,2,18,3.9,26.1c3,12.8,7,24.9,10.3,38.8c2.8,12,3.9,23.9,6.8,35.7
		c1.2,4.9,2.7,9.7,4.8,14.5c3.1,7.2,6.7,14.3,11.1,21c4.3,6.6,9.4,12.7,15.3,17.9c35.5,30.8,79.4,38.1,121.8,30
		c42.4-8.1,83.3-31.4,112.7-62c6.8-7,14.2-13.9,20.5-21.6c4.1-5,7.7-10.5,10.1-16.5c2.5-6,1.9-15.4,0.2-26
		c-3.4-21.2-11.8-47.2-13-62.3c-0.8-10.3-0.2-20.3,1.2-30.2c2-14.7,5.5-29.1,7.6-44.2c1.5-10.6,1.8-21.2,1.4-31.7
		c-0.3-7-0.9-14-1.7-20.9c-0.3,0-1.1,0-1.3-1.6l-0.1-0.1l0-0.3c0-0.2,0-0.4,0-0.6c0-1.1,0-3.5,0-8.6c0-0.5,0.3-1,0.7-1.3
		c1-19.6,1-39.1,0.1-58.6c-1-23.1-3.3-46.1-6.6-69c-1.2-8.4-2.3-16.9-4-25.1c-1.1-5.5-2.6-10.8-4.6-16.1c-1.5-4-3.4-7.9-5.4-11.7
		c-4.8-8.9-10.6-17.4-15.5-26.2c-4.4-7.9-7.9-16.2-12.4-24c-1.9-3.3-4-6.4-6.4-9.4c-1.5-1.9-3.1-3.6-4.8-5.3
		c-4.1-4-8.5-7.6-12.4-11.8c-3.2-3.4-7.9-6-13.3-8.2c-11.7-4.8-26.3-7.7-36-12.8c-2.6-1.3-3.5-3.2-3.9-4.8
		C1113.1,636.2,1112.9,635.6,1112.8,635.2z"/>
	<g>
		<path class="st5" d="M1061.4,722.5c0,0-15.5-30.4-21.5-44.7c-6.9-16.5-16.5-33.5-12.2-51.9c1.5-6.4,12.1-11.3,17.4-13.6
			c15.5-6.9,29.7-3.9,46-3.3c7.5,0.3,16.1-0.8,22.3,4.6c15,13.2,14.4,30.7,7.4,47.5c-2.2,5.4-4.9,11-9,15.2
			c-4.5,4.5-10.5,5.4-15.5,8.7c-3.2,2.2-6.1,6.1-8.5,9.1C1080.6,703,1076.2,723,1061.4,722.5z"/>
		<path class="st6" d="M1049.4,667.5c0-10.4,3.3-20.4,3.1-30.8c-0.2-13.9-4.2-27.5-4.6-41.3l47.2-2.5c0.3,9.2,0.8,18.5,2,27.6
			c1,7.4,2.4,14.9,2.4,22.4C1086.7,715,1041.1,711.3,1049.4,667.5z"/>
		<path class="st1" d="M1047.7,667.2c-4.6,24.6,7.2,37,20.8,32.7c11.9-3.8,26.2-21.2,32.4-56.6c0-0.1,0-0.2,0-0.3
			c0-3.1-0.2-6.1-0.6-9.2c-0.5-4.5-1.3-9-1.8-13.4c-0.6-4.5-1-9.1-1.3-13.7c-0.3-4.6-0.5-9.2-0.6-13.8c0-0.4-0.2-0.8-0.5-1.1
			c-0.3-0.3-0.7-0.4-1.1-0.4l-46.7,2.5c-3,0.2-0.4,3-0.4,3c-0.8,0-1.5-0.6-1.5-1.4c0.4,11,3,22,4.1,33.1c0.3,2.7,0.5,5.4,0.5,8.2
			c0.2,8.3-2,16.3-2.7,24.5c-0.1,0.8-0.2,1.7-0.1,2.5c0,1.3,0.3,2.5,0.5,3.8L1047.7,667.2z M1050.1,667.5c0.2-1.5,0.7-2.8,0.9-4.2
			c0.9-5.7,1.7-11.4,2.4-17.1c0.4-3.1,0.7-6.3,0.6-9.5c0-2.8-0.2-5.6-0.5-8.4c-1.1-10.5-3.5-20.9-4-31.4l44.1-2.3
			c0.1,4.1,0.3,8.2,0.6,12.3c0.3,4.6,0.7,9.3,1.3,13.9c0.6,4.5,1.3,8.9,1.8,13.4c0.3,2.9,0.5,5.8,0.5,8.7
			c-6,33.5-18.9,50.3-30.3,53.9c-11.7,3.7-20.5-7.8-16.5-28.9L1050.1,667.5z"/>
		<g transform="matrix(1,0,0,1,-28.0157,-34.8719)">
			<path class="st7" d="M1124.7,698.4l-7.4,28.2l-9.7,13.9l-6.6-15c1.8-8.8,3.2-11.3,4.8-14.6c3.4-6.9,0-6.1,4.7-11.3L1124.7,698.4z
				"/>
			<path class="st1" d="M1126.3,698.9c0.1-0.6,0-1.3-0.3-1.7c-0.3-0.5-0.8-0.7-1.3-0.7c0,0-14.2,1-14.2,1c-0.5,0-1,0.3-1.4,0.7
				c-1.3,1.5-2.1,2.6-2.5,3.4c-0.6,1.2-0.7,2.1-0.9,3.2c-0.1,1.1-0.3,2.4-1.6,5.1c-0.9,1.8-1.8,3.4-2.6,5.9c-0.7,2.2-1.5,5-2.4,9.2
				c-0.1,0.4,0,0.9,0.1,1.3c0,0,2.1,4.8,4,9c1.5,3.2,2.9,5.9,2.9,5.9c0.2,0.6,0.8,0.9,1.4,1c0.6,0.1,1.2-0.2,1.5-0.7l9.6-13.9
				c0.1-0.2,0.2-0.3,0.2-0.5L1126.3,698.9L1126.3,698.9z M1122.6,700.5l-6.6,25.4l-7.8,11c-0.4-1-0.8-2.1-1.3-3.2
				c-1.3-3.3-3-7-3.6-8.5c0.8-3.7,1.5-6.1,2.2-8.1c0.8-2.3,1.5-3.7,2.3-5.4c1.7-3.4,1.9-5.1,2-6.5c0.1-0.6,0.1-1.1,0.4-1.8
				c0.3-0.5,0.7-1.2,1.4-2L1122.6,700.5z"/>
		</g>
		<g transform="matrix(1,0,0,1,5.05287,14.6878)">
			<path class="st7" d="M1072,687c0.3-2.9,5.8-12.7,7.6-14.7c11.1-12.5,21.6-30.6,27.2-36.6c0,0,2.7,2.4,2.8,9.9
				c-3.3,2.9-9.9,17.9-19.5,31.2c-1.3,1.8-1.5,1.7-3,3.5c-3.5,4.2-7.9,29.2-9.4,34.5L1072,687z"/>
			<path class="st1" d="M1071.4,686.8c0,0.2,0,0.3,0,0.5h-0.8l5.8,27.7c0.1,0.7,0.7,1.2,1.4,1.2c0.7,0,1.3-0.4,1.5-1.1
				c1-3.5,3.2-15.5,5.6-24.5c1.2-4.4,2.3-8.1,3.5-9.5l3-3.5c2.2-3.1,4.3-6.2,6.2-9.3c6.2-10.1,10.6-19.4,13.1-21.7
				c0.3-0.3,0.5-0.7,0.5-1.2c-0.1-2.9-0.5-5-1-6.6c-1-3.2-2.4-4.4-2.4-4.4c-0.6-0.6-1.6-0.5-2.1,0.1c-4.1,4.5-11,15.5-18.8,26
				c-2.7,3.7-5.6,7.3-8.5,10.5c-1.1,1.2-3.7,5.1-5.3,9C1071.9,682.9,1071.3,685.6,1071.4,686.8L1071.4,686.8z M1073.5,686.9
				c0,0.1,0,0.1,0,0.2h-0.9c0.3-1,1.5-2.7,2.8-4.8c1-1.6,1.9-3.4,2.8-5c1.1-1.8,2-3.3,2.6-3.9c2.9-3.3,5.8-7,8.6-10.8
				c6.9-9.4,13.1-19.3,17.2-24.4c0.3,0.6,0.6,1.5,0.9,2.6c0.3,1.1,0.5,2.6,0.6,4.3c-0.6,0.6-1.2,1.6-2,2.7
				c-3.7,5.7-9.5,17.5-17.2,28.2l-2.9,3.4c-1.3,1.5-2.7,5.6-4.1,10.6c-1.5,5.7-3,12.6-4.1,17.8l-4.4-20.9V686.9z"/>
		</g>
		<g transform="matrix(1,0,0,1,-28.0157,-34.8719)">
			<path class="st7" d="M1084.2,724.4l-8,15.8l-21.8-43l15.2-8c0.7,0.2,4.7,6.8,5.2,7.8c4.3,8.7,7.1,17.9,9,27.4H1084.2z"/>
			<path class="st1" d="M1052.7,698.2l-0.1-0.1C1052.6,698.1,1052.7,698.1,1052.7,698.2c0.5,0.9,3.4,6.1,6.8,12.6
				c6.6,12.6,15.3,30.1,15.3,30.1c0.3,0.5,0.8,0.8,1.3,0.8c0.6,0,1.1-0.3,1.3-0.8l8.2-15.8v0.1c0.2-0.6,0.2-1.2,0-1.8
				c-0.9-4.6-2.1-9.2-3.5-13.7c-1.5-4.7-3.3-9.3-5.5-13.7c-0.4-0.8-2.6-4.5-4.2-6.7c-0.9-1.3-1.9-2.1-2.2-2.2
				c-0.6-0.2-1.2-0.2-1.7,0.1c-8.1,4.3-11.9,6.3-13.6,7.2c-0.8,0.4-1.2,0.6-1.4,0.7c-0.1,0-0.1,0.1-0.1,0.1l0.9,3.8
				C1053.7,699.1,1053.1,698.8,1052.7,698.2z M1061.3,695.8l7.8-4c1.4,1.9,3.5,5.4,3.9,6.1c2.1,4.3,3.9,8.6,5.3,13.1
				c1.5,4.5,2.7,9.1,3.7,13.8c0,0.1,0,0.2,0.1,0.3l-5.9,11.8c-2.7-5.4-9-17.8-13.8-27.5c-2.4-4.8-4.3-9-5.3-11.3L1061.3,695.8z"/>
		</g>
		<path class="st7" d="M1051,697.8c-6.9-5.7-19.3-36-21.5-44.6l-4.7,7.1c2,6.1,9.7,28.6,10.8,34.7c1.3,7.7,3.8,23.8,6.9,29.2
			L1051,697.8z"/>
		<path class="st1" d="M1031.1,654.4l-1.6,0.8l-1.7-2.9l-4.6,7c-0.3,0.5-0.4,1.1-0.2,1.7c1.3,4,5.2,15.2,7.9,24.1
			c1.4,4.4,2.5,8.2,2.8,10.3c0.9,5.1,2.3,13.9,4,20.9c0.9,3.8,2,7,3.1,9c0.4,0.7,1.1,1,1.9,1c0.8-0.1,1.4-0.6,1.6-1.3l8.5-26.4
			l-1.4-1.1c-0.4-0.6-0.7-1.3-1.1-2.1c-0.3-0.7-0.6-1.4-1.1-2.2c-2.5-4.4-6.1-10.7-9.1-17.4c-4.1-9.2-7.7-18.7-8.8-23
			C1031.5,653.3,1031.4,653.9,1031.1,654.4z M1028.9,657.7c2.4,7.2,7.3,19.3,12.2,28.6c1.6,3,3,5.8,4.6,7.9c0.5,0.7,1.1,1.3,1.7,1.9
			c0.6,0.6,1.2,1,1.8,1.4l-6.8,21c-0.6-1.9-1.1-4-1.6-6.2c-1.4-6.3-2.5-13.3-3.2-17.7c-0.3-2.1-1.5-6.1-2.9-10.8
			c-2.6-8.3-6.1-18.7-7.6-23.3L1028.9,657.7z"/>
		<g transform="matrix(1,0,0,1,-28.0157,-34.8719)">
			<path class="st7" d="M1125.6,651.3c21.6,5.9-4,42.3-15.3,47.7c10-1.7,15.9,9.5,18.5,17.2c1,2.9,1.8,5.8,2.6,8.8
				c0.8,3.1,1.5,6.3,2.1,9.5c3.9-4.6,13.3-11.9,17.4-16.3c9.1-9.9,12.5-26.4,16.3-38.8c5.1-16.9,5.2-20.7-2.3-28.4
				c-3.8-3.9-10.5-7.6-15.3-10.3c-7.7-4.4-16.7-7.1-25.6-7"/>
			<path class="st1" d="M1125.1,653c8.2,2.1,8.5,9.5,5.6,17.4c-4.1,11.5-14.8,24.2-21.1,27.1c-0.7,0.3-1,1.1-0.8,1.8
				c0.2,0.7,1,1.2,1.7,1c3.5-0.6,6.5,0.7,8.9,2.8c3.9,3.4,6.4,9,7.9,13.4c0.5,1.4,0.9,2.8,1.3,4.3c0.4,1.4,0.8,2.9,1.2,4.4l2.1,9.4
				c0.1,0.6,0.6,1.1,1.2,1.3c0.6,0.2,1.3,0,1.7-0.5c0.9-1,2-2.1,3.2-3.2c4.6-4.3,11.1-9.4,14.3-12.8c3.9-4.1,6.8-9.4,9.1-15.1
				c3.3-8.1,5.4-17,7.7-24.5c2.7-9.1,4-14.5,3.6-18.8c-0.4-4.3-2.4-7.5-6.5-11.7c-1.6-1.7-3.8-3.3-6.1-4.9c-3.2-2.2-6.8-4.1-9.6-5.7
				c-4-2.3-8.3-4.1-12.8-5.3c-4.5-1.3-9.2-1.9-13.8-1.8c-1.1,0-1.9,0.9-1.9,2c0,1.1,0.9,1.9,2,1.9c4.3-0.1,8.5,0.6,12.7,1.7
				c4.2,1.2,8.2,2.9,11.9,5c2.8,1.6,6.2,3.5,9.4,5.6c2.1,1.4,4,2.8,5.4,4.3c3.3,3.4,5,5.8,5.3,9.2c0.4,3.9-1,8.9-3.5,17.2
				c-2.2,7.3-4.3,16.1-7.5,24.1c-2.1,5.2-4.7,10.1-8.2,13.9c-3.1,3.4-9.4,8.6-13.8,13c-0.4,0.4-0.8,0.8-1.2,1.2c0,0-1.5-6.5-1.5-6.5
				c-0.4-1.5-0.8-3-1.2-4.5c-0.4-1.5-0.9-3-1.4-4.4c-1.7-4.8-4.6-10.9-8.9-14.7c-1.9-1.6-4-2.9-6.4-3.4c6.5-5.4,14.8-16.2,18.5-26.1
				c3.8-10,2.9-19-7.5-22c-1-0.3-2,0.3-2.3,1.3C1123.6,651.8,1124.1,652.8,1125.1,653z"/>
		</g>
		<g transform="matrix(1,0,0,1,-28.0157,-34.8719)">
			<path class="st7" d="M1076.1,640.8c-18.3,4.7-29.9,19-41.5,32.7c-2.7,3.2-8.1,7.9-9,12.6c-0.3,1.7,0.4,5.2,0.8,6.7
				c2.5,7.8,6.2,14.8,10.5,21.7c3.2,5.1,6.8,12.4,12.5,15.4c1.3-4.4,2.6-8.8,4.1-13.1c2.9-8.7,5.8-17.2,11.8-24.2
				c0.8-0.9,1.6-1.8,2.5-2.5c0.5-0.4,1.2-1.1,1.8-0.9l0-0.1c-3.4-3.8-7-8.2-7.9-13.3c-1.8-10.4,6.2-18.4,15.4-21.4"/>
			<path class="st1" d="M1069.8,691.1l1.9-1.7c0.1-0.6-0.1-1.2-0.5-1.7c-1.9-2.2-4-4.5-5.5-7.1c-0.9-1.6-1.7-3.3-2-5.2
				c-0.8-4.6,0.6-8.7,3.1-11.9c2.7-3.4,6.7-5.9,10.9-7.3c1-0.3,1.6-1.4,1.3-2.4c-0.3-1-1.4-1.6-2.4-1.3c-5,1.6-9.6,4.6-12.8,8.5
				c-3.3,4.1-5,9.3-4,15.1c0.4,2.3,1.3,4.5,2.4,6.5c1.2,2.1,2.7,4.1,4.3,5.9c-0.4,0.3-0.8,0.7-1.1,1c-0.5,0.5-1.1,1.1-1.6,1.7
				c-2.5,2.9-4.5,6.1-6.2,9.5c-2.5,4.9-4.2,10.1-6,15.4l-3.2,10.6c-1.2-1-2.3-2.1-3.3-3.3c-2.6-3.2-4.6-6.9-6.5-9.9
				c-2.2-3.4-4.2-6.8-6-10.3c-1.8-3.5-3.3-7.2-4.5-11c-0.2-0.7-0.5-1.8-0.7-3c-0.2-1.1-0.3-2.1-0.1-2.8c0.3-1.7,1.3-3.3,2.5-4.9
				c2-2.6,4.5-5.1,6.1-7c6.9-8.2,13.8-16.6,22.2-23c5.5-4.1,11.6-7.3,18.7-9c1-0.3,1.6-1.3,1.3-2.2c-0.3-1-1.3-1.6-2.2-1.3
				c-7.5,2-13.8,5.7-19.6,10.2c-8.4,6.6-15.6,15.1-22.7,23.4c-1.9,2.3-5.1,5.2-7.2,8.4c-1,1.6-1.8,3.2-2.1,4.8c-0.2,0.8-0.1,2,0,3.2
				c0.2,1.6,0.6,3.3,0.9,4.3c1,3.2,2.2,6.2,3.6,9.2c2,4.5,4.3,8.8,6.8,13c1.9,3.1,3.9,7.1,6.5,10.4c1.9,2.4,4.1,4.5,6.6,5.8
				c0.5,0.3,1.2,0.3,1.7,0.1c0.6-0.2,1-0.7,1.2-1.3l4.1-13c1.7-5.1,3.4-10.2,5.8-14.9c1.5-3.1,3.3-6,5.6-8.7l2.2-2.3
				C1069.3,691.5,1069.8,691.1,1069.8,691.1L1069.8,691.1z"/>
		</g>
		<path class="st7" d="M1038.2,739.5c4,0.7,40.6,3.7,43.9,1.9c9.7-5.3,3.2-42.9-5.2-48.4c-4-2.6-9-2.7-13.6-3.3
			c-26-3.3-28.2,31.5-19.9,49.6"/>
		<path class="st1" d="M1041.1,738.7c-1.3,0.1-2.3,0.1-2.8,0.1c-0.4-0.1-0.7,0.2-0.8,0.5c-0.1,0.4,0.2,0.7,0.5,0.8
			c1,0.3,4.3,1.4,8.7,2.1c2.6,0.4,5.7,0.5,8.8,0.7c9.1,0.6,19.2,0.9,24,0.6c1.6-0.1,2.7-0.4,3.2-0.7c1.9-1,3.4-3.1,4.3-5.9
			c1.3-3.9,1.6-9.3,1.2-15.1c-0.9-12.7-5.5-27-10.5-30.3c-1.8-1.2-3.7-2-5.7-2.5c-2.8-0.7-5.8-0.9-8.6-1.2
			c-11.8-1.5-19.1,4.2-23,12.7c-4.6,10.3-4.2,24.9-0.3,35.7C1040.6,737.1,1040.8,738,1041.1,738.7z M1044.8,738.6c0.3,0,0.6,0,0.9,0
			c1,0,2,0.1,3.2,0.1c7.5,0.5,17.4,1.4,24.5,1.6c4.1,0.1,7.2,0.2,8-0.3c1.6-0.9,2.6-2.9,3.2-5.5c1.1-4.7,1-11.1,0.1-17.5
			c-1.5-10-4.8-20-8.7-22.6c-1.4-0.9-3-1.4-4.7-1.8c-2.7-0.6-5.5-0.8-8.2-1.1c-9.8-1.3-15.9,3.5-19.1,10.6c-4.3,9.5-3.7,23-0.2,33
			c0.3,1,0.9,1.8,1.1,2.8C1044.9,738.2,1044.8,738.4,1044.8,738.6z"/>
	</g>
	<path class="st8" d="M1047.7,742.9c-4,7.6-4.8,16.9-6.5,25.3c-3.7,18.4-6.5,36.7-9.2,55.2c-0.6,3.9-3.2,9.3-2.7,13.2
		c0,0.1,9.1,10,10.2,11.6c8.1,11.3,14.4,23.6,21.8,35.3c0.3,0.5,3.3-3.1,3.5-3.3c1.8-2.4,3.2-5.1,4.5-7.8c0.1-0.2,0.2-0.5,0.4-0.7
		c0.2-0.3,0.3-0.5,0.4-0.8c4.7-8.5,9.2-17.2,14.1-25.6c2.7-4.6,13.4-14.8,14.4-19.5c1.2-5.4-3.4-15.1-4.2-20.8
		c-2-14.1-8.2-54.5-15.9-65.4C1070.6,728.3,1047.7,742.9,1047.7,742.9z"/>
	<path class="st4" d="M1047.1,742.6c-0.7,0-0.5-0.3-1.1,0.1c-0.1,0-0.1,0.1-0.1,0.2c-1.2,2.1-2,4.5-2.7,6.8
		c-1.8,5.9-2.5,12.2-3.6,18.1c-1.5,7.4-2.8,14.7-4,22.1c-1.8,11-3.5,22.1-5.1,33.2c-0.1,0.9-0.3,1.8-0.6,2.8
		c-0.1,0.2-0.2,0.4-0.3,0.7c-0.6,1.8-1,3.8-1.3,5.7c-0.3,1.6-0.5,3.2-0.3,4.5c0,0,0.4,0.9,1.4,1.9c2.4,2.7,8.2,9,9.1,10.3
		c2.4,3.4,4.6,6.8,6.8,10.3c5.1,8.3,9.7,16.7,14.9,25c0.3,0.5,1.4,1.2,2.7,0.3c1-0.7,3.3-3.3,3.4-3.5c0.8-1,1.5-2.1,2.1-3.2
		c0.9-1.6,1.8-3.2,2.6-4.9l0.3-0.7l0.4-0.8l14-25.6c1.5-2.8,5.9-7.7,9.5-12c0.9-1.1,1.8-2.1,2.6-3.1c1.4-1.8,2.3-3.5,2.6-4.9
		c0.4-2,0.3-4.4-0.3-7.1c-1-4.9-3.2-10.5-3.8-14.3c-1.1-8.2-3.5-25.2-7-40.1c-1.1-4.7-2.5-9.1-3.7-13.2c-0.4-1.4-0.7-2.7-1.1-4
		c-1.2-3.8-2.8-6.9-4.2-9c-3.2-4.5-8.5-5.6-14-4.9c-9.3,1.3-19.4,7.9-19.4,7.9L1047.1,742.6z M1061.8,881.2
		c-4.8-7.7-9.2-15.7-14.1-23.4c-2.2-3.5-4.5-7-7-10.5c-0.9-1.3-6.9-7.8-9.3-10.5c-0.3-0.3-0.5-0.6-0.7-0.8c-0.1-1,0-2,0.3-3.1
		c0.4-1.8,1.3-3.5,1.7-5.3c0.1-0.3,0-0.5,0.1-0.8c0.2-1.1,0.6-2.2,0.7-3.2c1.7-11.1,3.4-22.1,5.3-33.1c1.3-7.3,2.6-14.6,4.1-22
		c1.1-5.2,1.8-10.8,3.2-16.1c0.6-2.2,1.2-4.4,2-6.5c0.2-0.6,0.8-1.2,0.7-1.9v0c1.7-1,10.1-5.8,17.8-6.7c4-0.5,8,0.1,10.3,3.5
		c1.4,1.9,2.5,4.9,3.9,8.3c0.3,0.7,0.7,1.4,1,2.2c0.9,2.4,1.4,5,2.1,7.7c0.7,2.9,1.4,6,2.1,9.2c3.1,14.2,5.5,29.5,6.7,37.1
		c0.6,3.9,2.8,9.6,3.9,14.5c0.5,2.1,0.7,4.1,0.4,5.6c-0.2,1.2-1.3,2.7-2.5,4.5c-0.3,0.4-0.5,0.8-0.7,1.2c-3.5,4.9-9.2,10.2-11,13.3
		c-1.5,2.5-2.9,5.1-4.3,7.6c-3.3,6-6.5,12-9.7,18l-0.4,0.8l-0.4,0.8c-0.8,1.6-1.6,3.2-2.5,4.7c-0.6,1-1.2,1.9-1.9,2.9
		C1063.6,879.4,1062.6,880.4,1061.8,881.2z"/>
	<path class="st6" d="M1023.6,587.3c-16-11.7-30.7-37.3-39.5-70.5c-2.7-10.2-8.4-39.3-12-49.3c-5.2-14.4-6.2-15.8-7.6-31.7
		c-1.2-13.3-3.5-18.5-1.2-31.4c3.9-22,7-47,4.5-69.2c-1.7-15.6-16.7-60.2-11.9-71.6c15.5-37,69.6-46.4,104.5-50.2
		c8.8-1,18.2-4.2,27.1-3c30.6,4.3,55.4,33.3,62.4,61.8c3.7,15-2.3,27.9-5,42.5c-2.8,14.8-4.3,31.5-2.8,46.6
		c2.5,24.4,8.2,27.3,12.7,48.6c3.7,17.6,9.2,20,6.1,36.6c-2,10.9-0.5,40.9-0.9,51.8c-0.4,13-3.6,30-7.8,42.5
		c-9.2,27.5-26.5,49.1-56.9,53c-6.7,0.9-13.5-0.6-20.3-0.1C1059.2,594.8,1037.4,597.3,1023.6,587.3z"/>
	<path class="st1" d="M1022.4,588.9c1.8,1.4,3.7,2.6,5.7,3.6c4.5,2.2,9.7,3.3,15,3.9c10.9,1.3,22.6,0,32.2-0.8
		c5.3-0.4,10.7,0.4,16.1,0.3c1.4,0,2.9-0.1,4.3-0.3c15.7-2,28-8.7,37.6-18.3c9.5-9.6,16.3-22.1,21-36.2c2.1-6.3,4-13.8,5.3-21.3
		c1.4-7.6,2.3-15.2,2.5-21.8c0.2-7.3-0.4-23.3-0.2-36.3c0.1-6.2,0.4-11.7,1-15.2c1.3-7,1.1-11.6,0.3-15.7c-1.3-6-4.1-11.1-6.4-21.7
		c-3.4-16-7.4-21.6-10.3-33.7c-0.9-4-1.8-8.6-2.4-14.7c-0.8-7.4-0.8-15.2-0.2-23c0.5-7.8,1.6-15.6,3-23c1.7-8.8,4.5-17,5.7-25.4
		c0.8-5.8,0.9-11.7-0.6-17.9c-3.5-14.6-11.6-29.4-22.7-41.1c-11.2-11.8-25.4-20.4-41.2-22.7c-2.9-0.4-5.8-0.4-8.8-0.1
		c-6.4,0.6-12.8,2.3-19,3c-20.9,2.3-48.8,6.6-71.2,17.5c-15.8,7.7-28.9,18.7-35.4,34.3c-1.4,3.2-1.4,8.9-0.5,15.9
		c2.4,18.1,11,45.6,12.3,57.1c1,8.8,1.1,18.1,0.6,27.4c-0.7,14-2.7,28.1-5,41.1c-0.9,5.3-1.1,9.3-1,13.1c0.3,5.7,1.4,10.8,2.2,19
		c0.7,8,1.4,12.4,2.5,16.5c1.1,4.3,2.7,8.3,5.4,15.7c1.2,3.2,2.6,8.5,4,14.4c3,12.4,6.3,27.8,8.1,34.6c4.8,17.9,11.3,33.5,18.7,46
		c5.8,9.8,12.3,17.7,19,23.3c0.7,0.6,1.5,1,2.1,1.7C1022.2,588.5,1022.3,588.7,1022.4,588.9L1022.4,588.9z M1024.8,585.6
		c-0.2-0.1-0.4-0.1-0.7-0.2c-0.7-0.4-1.3-1-2-1.6c-6.4-5.4-12.5-13-18.1-22.5c-7.2-12.3-13.4-27.7-18-45.2
		c-1.8-6.9-4.9-22.2-7.8-34.6c-1.5-6.2-2.9-11.6-4.1-14.9c-2.6-7.2-4.1-11.2-5.2-15.3c-1-4-1.6-8.2-2.3-15.8
		c-0.7-8.1-1.8-13.1-2.1-18.7c-0.1-3.5,0.1-7.2,0.9-12.1c2.4-13.2,4.5-27.5,5.2-41.7c0.5-9.6,0.4-19.1-0.5-28.2
		c-1.1-10.1-7.8-32.5-11-50.1c-1.6-8.9-2.6-16.5-1-20.2c6.1-14.4,18.3-24.4,32.9-31.5c21.9-10.7,49-14.9,69.4-17.2
		c6.1-0.7,12.5-2.6,18.9-3.2c2.6-0.3,5.1-0.3,7.6,0c14.8,2,28.2,10,38.7,20.8c10.7,11,18.5,25.1,22,39c1.4,5.7,1.3,11.1,0.6,16.4
		c-1.2,8.4-4,16.5-5.6,25.2c-1.4,7.5-2.5,15.4-3,23.4c-0.5,8-0.5,16.1,0.2,23.7c0.6,6.2,1.5,11.1,2.4,15.2
		c2.9,12.1,6.9,17.7,10.3,33.6c2.2,10.6,5.1,15.7,6.4,21.7c0.8,3.8,0.9,7.9-0.3,14.2c-0.7,3.6-1,9.4-1.1,15.8
		c-0.2,13,0.4,28.9,0.2,36.3c-0.2,6.4-1.1,13.8-2.5,21.2c-1.3,7.3-3.2,14.6-5.2,20.7c-4.5,13.4-11,25.4-20,34.6
		c-9,9-20.5,15.2-35.2,17c-1.3,0.2-2.5,0.2-3.8,0.2c-5.4,0.1-10.9-0.8-16.3-0.4c-9.3,0.7-20.7,1.9-31.3,0.6
		c-4.8-0.6-9.4-1.8-13.6-3.6C1028.2,587.6,1026.4,586.7,1024.8,585.6L1024.8,585.6z"/>
	<g>
		<path class="st6" d="M1135.8,542.1c7.8-3.9,24.4-13.1,29-20.8c5.8-9.6,3.4-25.1,0.5-35.2c-2.2-7.8-6.9-15.3-8.4-22.5"/>
		<path class="st1" d="M1136.1,542.7c1.6-0.4,3.4-0.7,5.4-1.5c3.5-1.4,7.3-4,11.1-6.4c6-3.9,11.5-8.5,14-12.5
			c2.5-4.2,3.6-9.4,3.8-14.8c0.3-7.6-1.3-15.8-3.1-22c-0.4-1.6-1-3.2-1.6-4.7c-1.4-3.6-3-7.2-4.4-10.7c-1-2.4-2-4.6-2.6-6.9
			c-0.2-0.9-1-1.5-1.9-1.3c-0.9,0.2-1.4,1-1.3,1.9c0.3,2.4,1,4.8,1.9,7.3c1.9,5,4.7,10.1,6.2,15.4c1.7,5.9,3.2,13.6,2.9,20.8
			c-0.2,4.7-1.1,9.3-3.3,12.9c-1.4,2.3-4,4.8-7.1,7.1c-4.4,3.5-9.9,6.7-14.6,9.4c-0.7,0.4-1.3,0.8-1.9,1.2c-1.7,1.2-2.9,2.5-4.2,3.4
			c-0.3,0.2-0.5,0.6-0.3,0.9C1135.4,542.7,1135.8,542.9,1136.1,542.7z"/>
		<path class="st6" d="M1005.8,552.8c-9.4-5.4-29.2-16.2-32-27.5c-2.1-8.5,1-19.1,3.3-27.1c2-7,5.2-13.7,7.5-20.6"/>
		<path class="st1" d="M1005.3,554.1c-0.1,0-0.4-0.1,0.2-0.7c0.3,0.2,0.7,0.1,0.9-0.3c0.2-0.3,0.1-0.7-0.3-0.9
			c0.3-1.3,0.8,0.2,0.3-1.1c-0.3-0.8-1.5-0.9-2.3-1.4c-3.9-2.4-8.7-5.5-13.4-8.9c-2.9-2.1-5.7-4.3-8.1-6.6c-3.2-3-5.7-6.2-6.6-9.4
			c-0.8-3.2-0.8-6.7-0.4-10.2c0.6-5.5,2.3-11.1,3.7-15.8c0.7-2.4,1.6-4.8,2.4-7.1c0.9-2.4,1.7-4.8,2.5-7.2c0.7-2.1,1.4-4.2,2-6.4
			c0.3-0.9-0.2-1.8-1.1-2.1c-0.9-0.3-1.8,0.2-2.1,1.1c-1.7,4.8-4,9.4-5.8,14.2c-0.8,2.1-1.5,4.2-2.2,6.4c-1.4,4.9-3.1,10.7-3.8,16.5
			c-0.5,4.1-0.5,8.1,0.4,11.8c1.2,5.1,5.5,10.2,11,14.8c2.4,2,5.1,3.8,7.8,5.6c4.3,2.8,8.7,5.1,12.3,6.9c0.7,0.4,1.4,1.2,2.1,1.1
			C1005.4,554.1,1005.4,554.1,1005.3,554.1z"/>
		<path class="st9" d="M1124.3,454.6c6.6,7.2,11.5,15.8,16.5,24.1c9.1,14.9,14.3,34.3-0.7,48.5c-4.4,4.2-17.5,8.4-23.3,10.1
			c-30.3,9-61.4,8.2-92,1c-3.8-0.9-8.1-1.9-11.5-4c-8.2-5.3-24.5-12.3-24.4-22.5c0.1-8.2,8.4-33,11.9-40.1"/>
		<path class="st1" d="M1123.7,455.1c0.9,1.3,1.7,2.6,2.6,3.9c1.3,1.9,2.7,3.7,4,5.6c3.2,4.8,6.2,9.9,9.2,14.9
			c3.2,5.2,5.9,11.1,7.4,17c1,4,1.5,8.1,1.1,12.1c-0.3,3.3-1.1,6.6-2.7,9.7c-1.4,2.8-3.5,5.5-6.1,8c-1.7,1.6-4.9,3.2-8.4,4.7
			c-5.1,2.1-11,3.9-14.3,4.9c-15,4.4-30.2,6.4-45.5,6.4c-15.2,0-30.5-2-45.7-5.6c-2.2-0.5-4.6-1.1-6.9-1.9c-1.4-0.5-2.8-1.1-4-2
			c-4.6-3-11.8-6.7-17.2-11.1c-3.5-2.9-6.3-6-6.2-9.8c0-3.3,1.4-9.4,3.3-15.9c1.6-5.8,3.7-11.8,5.4-16.6c0.7-1.9,1.3-3.5,1.8-4.9
			c0.3-0.8,0.5-1.5,0.7-2.1c0.3-0.7,0.1-1.5-0.6-1.8c-0.7-0.3-1.5-0.1-1.8,0.6c-0.4,0.6-0.9,1.4-1.3,2.3c-0.5,1-1,2.2-1.5,3.5
			c-1.6,3.9-3.3,8.9-5,14c-2.6,8.3-4.8,16.7-4.9,21c-0.1,3.9,1.8,7.4,4.9,10.5c5.5,5.6,14.9,10,20.5,13.5c1.5,0.9,3.1,1.6,4.8,2.2
			c2.4,0.8,4.9,1.4,7.3,2c15.4,3.6,31,5.6,46.5,5.6c15.5-0.1,31-2.2,46.4-6.8c3.4-1,9.4-3,14.6-5.2c3.9-1.7,7.3-3.5,9.2-5.4
			c2.9-2.8,5-5.8,6.6-8.8c2.6-5.1,3.6-10.6,3.3-16.1c-0.5-8.8-4.2-17.7-8.9-25.4c-3.1-5-6.1-10.1-9.5-14.9c-1.4-1.9-2.7-3.9-4.3-5.6
			c-1.1-1.2-2.3-2.2-3.5-3.2c-0.3-0.3-0.7-0.3-1,0C1123.5,454.3,1123.5,454.8,1123.7,455.1z"/>
		<path class="st10" d="M1001.8,468.9c8.5,20.8,9.5,43.3,12.7,65.2c0,0-0.2,10.2,41,11c14.9,0.3,35.2,0.6,63-8.9
			c3.3-15.2,5.1-30.4,6.5-45.9c1-11.6-3.4-22.7-4.2-33L1001.8,468.9z"/>
		<g>
			<defs>
				<path id="SVGID_1_" d="M1001.8,468.9c8.5,20.8,9.5,43.3,12.7,65.2c0,0-0.2,10.2,41,11c14.9,0.3,35.2,0.6,63-8.9
					c3.3-15.2,5.1-30.4,6.5-45.9c1-11.6-3.4-22.7-4.2-33L1001.8,468.9z"/>
			</defs>
			<clipPath id="SVGID_00000044177805852665043560000013463757069599973022_">
				<use xlink:href="#SVGID_1_"  style="overflow:visible;"/>
			</clipPath>
			<g style="clip-path:url(#SVGID_00000044177805852665043560000013463757069599973022_);">
				<path class="st1" d="M1008.9,502.7c-0.1,0.1-0.1,0-0.1,0.2c0,0.1,0.1,0.1,0.1,0.2c0.6,0.8,1.2,1.6,1.9,2.3
					c2.9,2.9,6.9,4.9,11.2,6.3c7.8,2.5,16.9,2.8,23.6,2.6c7.2-0.2,14.6-0.3,21.9-0.8c4.9-0.3,9.9-0.9,14.7-1.8
					c1.2-0.2,2.5-0.6,3.7-0.9c2.7-0.8,5.3-1.8,8-2.5c3.7-0.9,8.2-1.4,12.2-2.6c1.9-0.6,3.7-1.3,5.2-2.3c2.7-1.7,5.6-4.4,8.3-7.3
					c2.3-2.6,4.5-5.3,6.1-7.7c0.1-0.1,0.2-0.2,0.2-0.4c0.1-0.3,0.1-0.5,0.1-0.7c0.3-0.5,0.2-1.2-0.3-1.6c-0.5-0.4-1.2-0.2-1.6,0.3
					c-0.2,0.1-0.4,0.2-0.6,0.4c-0.1,0.1-0.2,0.3-0.4,0.5c-1.9,2.7-4.5,5.9-7.2,8.7c-2.1,2.1-4.2,4-6.3,5.3c-1.8,1.1-3.9,1.8-6.1,2.4
					c-3.5,0.9-7.3,1.4-10.4,2.1c-2.8,0.7-5.5,1.7-8.2,2.5c-1.1,0.3-2.2,0.6-3.4,0.9c-4.7,0.9-9.5,1.5-14.3,1.8
					c-7.3,0.5-14.6,0.6-21.8,0.9c-6.4,0.2-15.2-0.1-22.8-2.2c-4-1.2-7.7-2.9-10.6-5.3c-0.7-0.6-1.3-1.2-1.9-1.9
					c0-0.1-0.1-0.1-0.1-0.2c-0.1-0.1,0,0-0.2,0c-0.2-0.3-0.6-0.4-0.9-0.1C1008.8,502,1008.7,502.4,1008.9,502.7z"/>
				<path class="st1" d="M1030.1,478.6c0.1,0.4,0.1,0.8,0.2,1.2c0.3,1.5,0.9,3,1.4,4.7c1.8,6.8,3.3,15.5,4.5,24.3
					c0.7,5.2,1.3,10.5,1.7,15.4c0.5,5.9,0.8,11.2,0.7,15.4c0,0.6,0.5,1.2,1.1,1.2c0.6,0,1.2-0.5,1.2-1.1c0.2-4.3,0.1-9.7-0.3-15.7
					c-0.4-5-0.9-10.3-1.7-15.6c-1.3-8.9-3.1-17.7-5.1-24.5c-0.5-1.7-0.9-3.4-1.6-4.8c-0.2-0.4-0.5-0.7-0.7-1.1
					c-0.1-0.4-0.5-0.5-0.9-0.4C1030.1,477.9,1029.9,478.3,1030.1,478.6z"/>
				<path class="st1" d="M1065.4,543.8c0.3-0.2,0.3,0.1,0.4-0.3c0.1-0.3-0.1-0.6-0.1-0.9c-0.4-3.2-0.9-6.5-1.3-9.7
					c-1.9-14.4-3.5-29-5.3-43.4c-0.2-1.6-0.4-3.2-0.7-4.8c0-0.2-0.1-0.5-0.2-0.7c-0.1-0.2-0.2-0.3-0.3-0.5c-0.1-0.5-0.6-0.9-1.1-0.8
					c-0.5,0.1-0.9,0.5-0.8,1.1c-0.1,0.2-0.1,0.2-0.2,0.4c-0.1,0.3,0,0.6,0,0.9c0,1,0.2,2,0.3,3c1.4,12.6,2.8,25.4,4.6,38
					c0.8,5.4,1.6,10.9,2.6,16.2c0.1,0.5,0.2,1,0.3,1.4c0,0,0,0.1,0,0.1c0.3,0.3,0.1,0,0.5,0.1c0.1,0.4,0.4,0.6,0.8,0.6
					S1065.5,544.1,1065.4,543.8z"/>
				<path class="st1" d="M1088.8,542.8c0.4-0.5,0.6-0.3,0.9-0.9c0-0.1,0-0.1,0-0.2c0.1-0.8,0-1.6-0.1-2.4c-0.1-4.1-0.2-8.1-0.1-12.1
					c0-6.1,0.2-12.1,0.7-18.2c0.3-4,0.7-8,1.3-12c0.9-6,2.3-11.9,3.5-17.9c0.1-0.7,0.3-1.3,0.3-2c0-0.5-0.1-0.9-0.1-1.4
					c0.2-0.9-0.3-1.8-1.2-2c-0.9-0.2-1.8,0.3-2,1.2c-0.3,0.5-0.6,1-0.8,1.5c-0.3,0.8-0.5,1.6-0.7,2.4c-1.5,6-2.3,12.2-3.1,18.3
					c-0.8,6.1-1.5,12.3-1.8,18.5c-0.2,4.1-0.4,8.2-0.3,12.4c0.1,4.1,0.4,8.2,0.9,12.3c0.1,0.6,0,1.4,0.3,1.9c0.3,0.5,0.5,0.4,1,0.7
					c0,0.4,0.4,0.6,0.7,0.6S1088.8,543.2,1088.8,542.8z"/>
				<path class="st1" d="M1111.4,464.5c-0.4,0.5-0.6,0.2-0.7,0.8c-0.1,0.5,0.1,1,0.2,1.4c1.1,5.8,2.3,12.1,2.6,18.4
					c0.1,2.9,0.1,5.9-0.2,8.7c-0.4,4.5-1.1,9-1.8,13.5c-0.8,5.3-1.7,10.5-2.7,15.7c-1,5.3-2.1,10.5-2.8,15.8
					c-0.2,1.7-0.3,3.4-0.4,5.1c-0.1,0.5,0.3,0.9,0.8,1c0.5,0.1,0.9-0.3,1-0.8c0.4-2.3,0.9-4.6,1.4-6.9c0.9-4.6,1.7-9.3,2.7-13.9
					c1-4.6,2.2-9.3,3.1-13.9c1-5,1.7-10.1,2.3-15.2c0.5-5,0.2-10.2-0.4-15.4c-0.6-4.6-1.5-9.2-2.4-13.4c-0.1-0.2,0-0.5-0.2-0.7
					c-0.4-0.5-0.5-0.2-1.1-0.5c-0.1-0.4-0.4-0.6-0.8-0.5C1111.6,463.8,1111.4,464.1,1111.4,464.5z"/>
			</g>
		</g>
		<path class="st1" d="M1001.7,468.2c-0.4,0-0.8,0.1-1.1,0.3c-0.2,0.2-0.3,0.4-0.1,0.6h0.7c3.3,8.3,5.4,16.8,7,25.5
			c2.3,13.1,3.4,26.4,5.2,39.5c0,0.7,0.6,5.1,11.2,8.3c6.1,1.9,15.7,3.4,30.9,3.8c8.7,0.2,19.3,0.4,32.1-1.4
			c9.2-1.3,19.6-3.6,31.3-7.6c0.4-0.1,0.7-0.5,0.8-0.9c1.6-7.6,2.9-15.2,4-22.9c1-7.7,1.8-15.4,2.5-23.1c0.3-3.5,0.1-6.9-0.3-10.2
			c-1-8-3.3-15.7-3.9-23c0-0.3-0.2-0.6-0.4-0.8c-0.2-0.2-0.6-0.3-0.9-0.3l-119,11.5V468.2z M1003.1,470.2c0,0,104.3-10.4,116.7-11.7
			c0.7,7,2.9,14.3,3.8,21.9c0.4,3.2,0.5,6.5,0.3,9.8c-0.7,7.7-1.5,15.3-2.5,23c-1,7.4-2.2,14.7-3.8,22.1c-11.3,3.8-21.3,6-30.2,7.3
			c-12.7,1.8-23.1,1.6-31.8,1.4c-11.8-0.2-20.2-1.2-26.1-2.5c-13.7-3-13.8-7.3-13.8-7.3c0-0.1,0-0.1,0-0.2
			c-2-13.2-3.2-26.5-5.7-39.6C1008.3,486.1,1006.2,478,1003.1,470.2L1003.1,470.2z"/>
		<path class="st6" d="M987.3,452.9c5.5,4.8,9.5,12.2,15.8,15.9c14.6,8.7,30.9,11.7,47.8,12.2c6.2,0.2,12.6,1.7,18.7,1.2
			c26.9-2.3,48.6-19.9,64.3-40.6"/>
		<path class="st1" d="M986.9,453.4c1.4,1.5,2.5,3.2,3.8,4.9c1.9,2.5,4,5,6.1,7.3c1.7,1.8,3.5,3.3,5.5,4.6
			c7.4,4.5,15.3,7.5,23.5,9.4c8.1,1.9,16.5,2.7,25,2.9c4.3,0.1,8.7,0.9,13,1.1c2,0.1,3.9,0.2,5.8,0c13.7-1.2,26.1-6.2,37.1-13.6
			c8.7-5.9,16.6-13.2,23.4-21.3c1.7-2,3.3-4.1,4.8-6.3c0.5-0.6,0.4-1.5-0.3-2c-0.6-0.5-1.5-0.4-2,0.3c-1.6,2-3.3,4-5,6
			c-6.7,7.8-14.2,15.1-22.7,20.8c-10.5,7.1-22.4,12-35.6,13.2c-1.8,0.1-3.6,0.1-5.4,0c-4.4-0.3-8.8-1.1-13.1-1.3
			c-8.3-0.3-16.4-1.2-24.3-3.1c-7.9-1.9-15.5-4.7-22.6-8.9c-1.2-0.7-2.3-1.5-3.4-2.5c-2.6-2.3-4.7-5.2-7.2-7.8
			c-1.7-1.8-3.6-3.4-5.6-4.8c-0.3-0.2-0.7-0.2-1,0.1C986.6,452.8,986.6,453.2,986.9,453.4z"/>
	</g>
	<g>
		<path class="st1" d="M1094.4,408.8c1,0.9,1.8,2,2.7,3c1.3,1.4,2.7,2.8,3.7,4.4c1.6,2.4,2.7,5,3.4,7.8c0.1,0.2,0.1,0.4,0.2,0.6
			c0.1,0.2,0.2,0.2,0.3,0.3c0.1,0.7,0.8,1.2,1.5,1c0.7-0.1,1.2-0.8,1-1.5c0.1-0.2,0.2-0.3,0.2-0.5c0-0.2-0.1-0.4-0.1-0.6
			c-0.7-3.2-2.2-6.2-4.1-8.8c-1.3-1.7-2.6-3.4-4.4-4.7c-1.2-0.9-2.4-1.5-3.7-2.1c-0.3-0.2-0.8-0.1-1,0.2
			C1094,408.1,1094.1,408.6,1094.4,408.8z"/>
		<path class="st1" d="M1103.5,418.6c0.8-0.1,1.6-0.1,2.4-0.2c0.5-0.1,1-0.1,1.5-0.3c5-1,10.2-1.7,15.1-0.8c2.4,0.5,4.7,1.3,6.9,2.5
			c1.4,0.8,2.9,1.5,4.3,2.7c0.4,0.4,1,0.4,1.3,0c0.4-0.4,0.4-1,0-1.3c-1.1-1.5-2.3-2.8-3.7-3.8c-3.4-2.6-7.6-3.6-11.7-3.9
			c-4.5-0.3-9.4,0.2-13.6,2.1c-1.1,0.5-2,1.1-3,1.8c-0.4,0.1-0.5,0.5-0.4,0.9C1102.7,418.5,1103.1,418.7,1103.5,418.6z"/>
		<path class="st1" d="M1017.9,419c-0.7-0.2-0.5-0.4-1.2-0.3c-0.3,0-0.4,0.2-0.6,0.4c-1.6,1.2-2.8,2.8-4,4.4c-2.1,3-3.5,6.4-4.4,9.9
			c-0.3,1,0.3,2,1.3,2.3c1,0.3,2-0.3,2.3-1.3c0.5-2.1,1.3-4.1,2.3-6c1.3-2.5,3.4-4.5,5.1-6.8c0.1-0.1,0.2-0.2,0.2-0.4
			c0.1-0.7-0.1-0.4-0.2-1.1c0.3-0.2,0.3-0.7,0.1-0.9C1018.6,418.8,1018.2,418.7,1017.9,419z"/>
		<path class="st1" d="M1008.8,426.3c-0.8-1,0.2-0.8-1-1.2c-0.2-0.1-0.5,0.1-0.7,0.2c-3.9,1-8.2,2.5-11.9,4.6
			c-3.1,1.7-5.9,3.9-7.8,6.8c-0.6,0.9-1.2,1.8-1.5,2.8c-0.1,0.5-0.2,0.9-0.3,1.4c-0.3,0.8,0.1,1.7,0.9,2.1c0.8,0.3,1.7-0.1,2.1-0.9
			c0.2-0.3,0.5-0.6,0.8-0.9c0.5-0.7,1-1.5,1.6-2.2c1.2-1.5,2.6-2.8,4.3-4c3.8-2.6,8.4-4.2,12.7-5.4c0.3-0.1,0.7,0,0.9-0.3
			c0.9-1,0-0.3,0.3-1.6c0.4-0.1,0.6-0.5,0.5-0.8C1009.6,426.4,1009.2,426.2,1008.8,426.3z"/>
		<path class="st1" d="M973.3,448.9c0.2-0.2,0.2,0.1,0.2-0.2c0.1-0.4-0.2-0.7-0.4-1.1c-1.2-3.4-2.1-7.1-2.1-10.8
			c0.1-2.5,0.6-5,2.1-7.2c0.5-0.8,1.2-1.7,1.9-2.5c0.6-0.6,1.3-1,2.1-1.1c0.8-0.1,1.7,0.1,2.5,0.3c1.1,0.3,2.2,0.6,3.2,0.8
			c0.7,0.2,1.4-0.1,1.6-0.8c0.2-0.7-0.1-1.4-0.8-1.6c-1.1-0.5-2.4-1.3-3.7-1.7c-1.1-0.4-2.2-0.5-3.2-0.4c-1.3,0.1-2.5,0.7-3.5,1.6
			c-1.3,1.1-2.3,2.5-3,3.8c-1.7,2.8-2.3,5.9-2.2,9c0.1,3.9,1.4,8,3,11.5c0.2,0.4,0.2,0.9,0.5,1.1c0.3,0.2,0,0,0.3,0
			c0.2,0.4,0.6,0.5,0.9,0.4C973.3,449.7,973.5,449.3,973.3,448.9z"/>
		<path class="st1" d="M1150.9,429.9L1150.9,429.9c0.2,0.1,0.5,0.2,0.7,0.4c0.1,0.1-0.1,0.2-0.1,0.3c0,0.2,0.1,0.5,0.4,0.6
			c0.2,0.1,0.5,0.1,0.7,0c0.1-0.1,0.1-0.3,0.2-0.2c0.2,0.1,0.4,0.2,0.6,0.3l0,0c-0.8,0.2-1.4,0.4-2,0.6l0-0.1
			c-0.2-0.6-0.2-0.6-0.3-1.2L1150.9,429.9c-7-3.8-4.7,1.3-2.1,3.9c0.1,0.4,0.5,0.7,1.1,1c0.5,0.4,1,0.5,1.3,0.4l0.1,0
			c1.4,0.3,2.9,0.4,4.3,0c0.2-0.1,0.4-0.1,0.6-0.2c0.9-0.5,0.4-1.4-0.2-1.9c-0.2-0.2-0.5-0.4-0.8-0.6c-0.4-0.3-0.9-0.6-1.3-0.9
			l-0.5-0.3l0,0c0,0,0-0.1,0.1-0.1c0.2-0.3,0.4-0.7,0.6-1c1.7-3.2,2.9-7.9,2.3-11.8c-0.5-3.4-2.4-6.3-6-7.8
			c-1.6-0.6-3.4-0.8-5.4-0.8c-1.5,0-3,0.1-4.5,0.4c-0.6,0.1-1.2,0.2-1.7,0.3c-0.4,0.1-0.7,0.3-1.1,0.4c-0.8,0.1-1.3,0.7-1.3,1.5
			c0.1,0.8,0.7,1.3,1.5,1.3c0.3,0.1,0.7,0.1,1,0.2c0.7,0.1,1.5,0,2.3,0c1.5-0.1,3.2-0.2,4.7,0c1,0.1,2,0.3,2.8,0.6
			c2.2,0.9,3.2,2.7,3.6,4.7c0.6,3.2-0.1,7-1.2,9.8c-0.1,0.3-0.3,0.6-0.4,0.9C1151,429.8,1150.9,429.8,1150.9,429.9L1150.9,429.9z"/>
		<path class="st1" d="M1048.6,582.8c1.1-0.9,2.4-1.6,3.6-2.5c4.5-3.3,9.3-6.3,14.8-8.4c7.1-2.6,14.8-4,22.1-5.1
			c3.4-0.5,6.6-1.1,9.7-1.5c0.8-0.1,1.5-0.8,1.4-1.7c-0.1-0.8-0.8-1.5-1.7-1.4c-3.2,0.1-6.6,0.2-10,0.6c-7.6,0.9-15.6,2.8-22.9,5.7
			c-5.8,2.3-11.5,5.1-15.5,9.5c-1.1,1.2-1.8,2.5-2.6,3.8c-0.2,0.3-0.2,0.7,0.1,1C1047.9,583.1,1048.3,583.1,1048.6,582.8z"/>
		<path class="st1" d="M1128.2,405.9c0.6,0.2,1.1,0.5,1.4,0.8c0.3,0.4,0.4,0.9,0.5,1.4c0,0.4,0.3,0.6,0.3,1.1
			c-0.2,0.3,0,0.7,0.3,0.9c0.3,0.2,0.7,0,0.9-0.3c0.5-0.3,0.7-0.5,1-0.9c0.6-1.1,0.3-2.3-0.2-3.3c-0.6-1.2-1.8-2.2-3.6-2.6
			c-0.3-0.1-0.5-0.1-0.9-0.1l0,0c0.9-1.2,2.1-2.3,2.7-3.2c1-1.5,1.9-3.1,2.7-4.8c1.1-2.4,2-4.9,3.1-7.2c0.3-0.5,0.1-1.2-0.4-1.4
			c-0.5-0.3-1.2-0.1-1.4,0.4c-0.7,1.1-1.3,2.2-1.8,3.3c-0.8,1.6-1.5,3.3-2.4,4.9c-0.6,1.1-1.2,2.2-2,3.2c-0.8,1.1-2.3,2.3-3.2,3.7
			c-0.6,0.9-0.9,1.8-0.9,2.8c0,0.7,0.3,1.1,0.7,1.4c0.4,0.3,0.9,0.4,1.7,0.3C1127.2,406.3,1128.1,406,1128.2,405.9z"/>
		<path class="st1" d="M991.1,426.7c0.4-0.3,0.8-0.6,1.2-0.9c0.4-0.4,0.6-0.8,0.9-1.3c1.3-2.3,1.2-3.8,0.7-4.7
			c-0.6-1.3-2.3-1.8-4.3-1.8c-1,0-2.2,0-3.1,0c-0.4,0-0.8,0-1-0.2c-0.5-0.5-0.9-1.1-1.2-1.7c-1-1.8-1.6-3.9-2.7-5.6
			c-1.4-1.8-2.9-3.3-4.2-4.9c-0.8-0.9-1.5-1.9-2-3.2c-0.1-0.5-0.7-0.9-1.2-0.7c-0.5,0.1-0.9,0.7-0.7,1.2c0.2,1.3,0.5,2.4,1.1,3.4
			c1.2,2.2,3.1,3.8,4.6,6c1.1,1.6,1.6,3.6,2.5,5.3c0.5,0.9,1.1,1.8,1.9,2.5c0.6,0.6,1.8,0.9,3.2,0.9c1.6,0,3.5-0.4,4.8,0
			c0.2,0.1,0.4,0.3,0.3,0.6c0,0.5-0.2,1.2-0.5,2l-1,2.4c-0.2,0.3-0.2,0.7,0.1,0.9C990.4,427.1,990.8,427,991.1,426.7z"/>
	</g>
	<g>
		<path class="st1" d="M1037.3,423.6c-0.2,0.6-0.5,1-0.5,1.6c-0.2,1.3,0.2,2.5,0.4,3.7c0.4,2,1.3,3.7,2.8,5.2
			c3.1,2.8,11.8,4,20.3,3.4c8.5-0.6,16.8-3,19.5-6.5c1.6-2,2.3-4.4,2.4-6.9c0.1-2.7-0.2-5.6-1.2-8.1c-0.2-0.7-0.6-1.2-0.8-1.8
			c-0.2-0.5-0.7-0.8-1.3-0.7c-0.5,0.2-0.8,0.7-0.7,1.3c0.1,0.6,0.1,1.3,0.2,1.9c0.4,2.4,1,4.9,0.8,7.3c-0.1,1.9-0.6,3.7-1.8,5.2
			c-2.4,3-9.8,4.7-17.3,5.1c-7.5,0.5-15.1-0.2-17.9-2.6c-0.6-0.5-1.1-1.2-1.5-1.9c-0.8-1.5-0.7-3.3-1.3-5c-0.2-0.6-0.5-0.8-0.9-1.3
			c0-0.4-0.4-0.6-0.8-0.6C1037.5,422.9,1037.2,423.3,1037.3,423.6z"/>
		<path class="st1" d="M1037.6,427.6l0.2,0.5c0.9,0.3,1.8,0.5,2.5,0.7c-0.3,0.7-0.6,1.5-0.9,2.4c4.4,8.4,5.6,1.1,4.7-3
			c0-0.3-0.1-0.7-0.3-1.1c-0.2-0.6-0.5-1-0.8-1.1l-0.2-0.2c-1.2-1.2-2.7-2.4-4.4-2.9c-0.9-0.3-1.8-0.2-1.9,0.9c0,0.3,0,0.5,0,0.8
			c0.1,0.4,0.2,0.7,0.3,1.1C1037,426.3,1037.3,427,1037.6,427.6z M1039.4,431.2l-0.1-0.2c-0.1-0.2-0.3-0.5-0.4-0.7
			c0-0.1,0.2-0.1,0.3-0.2c0.1-0.2,0.2-0.5,0-0.7c-0.1-0.2-0.3-0.4-0.6-0.4c-0.1,0-0.3,0.2-0.3,0.1c-0.2-0.2-0.3-0.5-0.4-0.7
			l-0.1-0.2l0,0c-0.1,0-0.1,0-0.1,0.1c-0.5,0.2-1,0.4-1.5,0.6c-5.5,1.7-10-2.8-10.4-8.2c-0.3-4.1,1.8-8.5,7.3-11.8
			c0.7-0.4,1.6-0.8,2.4-1.3c0.4-0.2,0.6-0.5,1-0.8c0.5-0.2,0.7-0.7,0.6-1.2c-0.2-0.5-0.7-0.7-1.2-0.6c-0.5,0-0.9,0-1.3,0.1
			c-1,0.2-1.9,0.7-2.8,1.2c-7,3.6-9.4,9.5-9.1,14.6c0.4,7.6,6.9,13.8,14.7,11.4c0.6-0.2,1.3-0.5,2-0.8
			C1039.2,431.2,1039.3,431.3,1039.4,431.2L1039.4,431.2z"/>
		<path class="st1" d="M1080.1,426.4c0.3,0.4,0.2,0.6,0.7,0.8c0.2,0.1,0.4,0.1,0.5,0.1c5.9,0.7,9.8-1.5,11.2-4.8
			c1.4-3.2,0.5-7.8-3.8-12.9c-1.1-1.3-2.3-2.4-3.7-3.3c-1.5-1.1-3.1-2-4.6-3.1c-0.1-0.1-0.3-0.2-0.4-0.3c-0.3-0.1-0.5-0.2-0.8-0.3
			c-0.3-0.3-0.9-0.3-1.2,0c-0.3,0.3-0.3,0.9,0,1.2c0.2,0.3,0.3,0.6,0.5,0.9c0.3,0.4,0.7,0.7,1.1,1c0.7,0.6,1.5,1.2,2.2,1.8
			c1.7,1.2,3.4,2.4,4.7,3.9c3.3,3.9,4.4,7.4,3.3,9.8c-1,2.4-4,3.4-8.3,3.1c-0.2,0-0.3-0.1-0.5,0c-0.5,0.1-0.4,0.3-0.8,0.6
			c-0.4-0.1-0.7,0.2-0.8,0.6S1079.8,426.3,1080.1,426.4z"/>
	</g>
	<g>
		<path class="st12" d="M974.6,339.3c0,0,0,14.8,1.7,15.8c2.9,1.7,5.7-0.1,8,1.4c3.4,2.2-0.5,21.9,4.5,26.4
			c3.3,2.9,11.8,5.4,22.7,5.5c7.7,0.1,18.3-3.6,20.1-6.9c3.9-7.3,2.4-11.8,4.3-17.2c1-2.9,6.1-3.4,6.6-4.6c1.3-3.4-3-9.2,4.8-11.4
			c8-2.3,5.9,6.9,7.3,8.8c1.6,2.3,3.7,0.8,5.3,3c3.2,4.4,2.7,10.6,8.4,15.9c10.3,9.6,37.9,13.2,46.2,0.6c3-4.5,2.4-15.1,4.1-17.3
			c2.2-2.8,7.1-0.2,9.6-3c0.2-0.2,0.3-0.4,0.5-0.7c0.9-1.5,1.3-3.1,1.5-4.8c0.2-1.7,0.1-3.5,0-5.2c-0.7-7.3-4.1-4.5-10.1-8.7
			c-3.8-2.7-2.4-7-7.6-8.6c-5.9-1.8-43.5-2.4-48.5,0.8c-3.4,2.2-3.9,21.1-3.9,21.1s-0.7-7.3-6.2-10.8c-4.9-3.2-13-1.5-16.2,3.9
			c-1.7,2.9-3.6,8.9-3.6,8.9s2-19.4-5-22.9c-7.2-3.7-29.6,0.1-38.3,0.9c-5.5,0.5-4.7,5.7-6.5,7.7C982.8,339,976.5,339,974.6,339.3z"
			/>
		<path class="st1" d="M1058.7,341.8c-1-1.5-2.3-3-4-4.1c-2.9-1.8-6.7-2.3-10.3-1.4c-3.4,0.9-6.6,2.9-8.4,6
			c-0.2,0.3-0.3,0.5-0.5,0.8c-0.1-2.8-0.4-5.9-1-8.6c-0.3-1.5-0.7-2.8-1.3-4c-0.8-1.5-2-2.6-3.4-3.3c-2.6-1.3-7.2-1.8-12.4-1.8
			c-9.4,0.2-21.3,2.1-27.1,2.7c-2.5,0.3-4,1.3-5,2.6c-0.8,1-1.3,2.3-1.7,3.5c-0.3,0.9-0.5,1.8-0.9,2.4c-0.1,0.2-0.5,0.2-0.8,0.3
			c-0.8,0.2-1.7,0.3-2.6,0.4c-2,0.2-4.1,0.2-5,0.3v-0.1c-0.8,0.2-1.4,0.9-1.4,1.8c-0.1,0,0.3,8.3,1.1,13c0.4,2.1,1.1,3.6,1.7,4
			c1,0.6,1.9,0.8,2.9,0.9c1,0.1,2.1,0,3,0c0.7,0,1.4,0,2,0.4c0.2,0.1,0.3,0.4,0.4,0.7c0.2,0.6,0.3,1.4,0.4,2.3
			c0.5,4.7-0.1,12.3,0.9,17.6c0.5,2.5,1.3,4.5,2.6,5.7c1.8,1.6,4.9,3.1,9.2,4.1c4,1,8.9,1.7,14.4,1.8c4.2,0.1,9.2-0.9,13.3-2.4
			c4-1.5,7.2-3.5,8.1-5.2c1.4-2.6,2.2-4.9,2.6-7.1c0.8-3.8,0.6-6.9,1.8-10.3c0.3-0.8,1.1-1.2,1.9-1.6c1.3-0.7,2.7-1.1,3.5-1.6
			c0.7-0.4,1-0.9,1.2-1.3c0.5-1.2,0.4-2.6,0.3-4.1c-0.1-1.4-0.5-2.9,0.1-4.1c0.4-1,1.4-1.7,3.3-2.2c1.8-0.5,2.8-0.4,3.4,0.3
			c1,1.2,1,3.1,1.2,4.7c0.2,1.4,0.5,2.6,0.9,3.2c0.4,0.6,0.8,1,1.3,1.3c0.8,0.6,1.6,0.7,2.5,0.9c0.5,0.1,1.1,0.1,1.5,0.8
			c2.3,3.3,2.7,7.4,5,11.5c0.9,1.6,2,3.2,3.6,4.7c0.9,0.9,2.1,1.6,3.2,2.5c0.5,0.4,1,0.9,1.5,1.4c0.5,0.4,1.2,0.6,1.8,0.9
			c5.1,2.5,11.5,4.1,17.8,4.5c10.1,0.6,20-2,24.5-9c0.9-1.5,1.6-3.5,2-5.7c0.6-3,0.8-6.3,1.2-8.8c0.2-1.3,0.3-2.3,0.7-2.8
			c0.6-0.7,1.5-0.8,2.5-0.8c1.6-0.1,3.2-0.1,4.6-0.6c0.9-0.3,1.7-0.8,2.4-1.6l0.7-1c0.5-0.9,0.9-1.7,1.2-2.7
			c0.3-0.9,0.5-1.8,0.6-2.8c0.1-0.8,0.1-1.5,0.1-2.3c0-1.1-0.1-2.2-0.2-3.3c-0.4-3.8-1.5-5.4-3-6.3c-1.7-1.1-4.3-1.1-7.8-3.5
			c-1.3-1-1.9-2.2-2.4-3.3c-0.5-1.2-1.1-2.3-1.9-3.3c-0.8-0.9-2-1.7-3.7-2.3c-1.3-0.4-3.9-0.7-7.3-1c-1.4-0.2-3-0.4-4.7-0.6
			c-5.3-0.4-11.7-0.4-17.7-0.3c-9.5,0.2-18.1,1.1-20.3,2.6c-1.3,0.9-2.6,3.6-3.2,7.2C1059.1,336.7,1058.9,339.3,1058.7,341.8z
			 M1040.9,358.9c-0.2,0.1-0.7,0.4-1.1,0.6c-1.1,0.5-2.4,1-3.4,1.7c-1,0.7-1.8,1.6-2.1,2.7c-1.2,3.6-1,6.8-1.8,10.7
			c-0.4,1.9-1.1,3.9-2.3,6.3c-0.9,1.7-4.4,3.3-8.4,4.5c-3.3,1-7.1,1.7-10.3,1.7c-5.3-0.1-10-0.7-13.8-1.6c-3.7-0.9-6.5-2.1-8-3.5
			c-1.2-1.1-1.7-3.3-2-5.9c-0.7-5.8-0.1-13.4-0.8-17.3c-0.3-1.7-1-2.8-1.8-3.3c-0.7-0.4-1.4-0.7-2.1-0.8c-1.7-0.3-3.8,0.5-5.8-0.5
			c-0.1-0.2-0.2-0.6-0.3-0.9c-0.2-1.1-0.4-2.6-0.4-4.3c-0.1-2.9-0.1-6.1,0-7.9l0,0c1.8-0.2,4.5-0.4,6.3-0.8c1.2-0.3,2.2-0.8,2.6-1.3
			c0.7-0.7,1.1-1.8,1.5-2.9c0.3-1,0.6-2.1,1.4-3c0.5-0.6,1.3-1,2.6-1.1c5.7-0.5,17.5-2.2,26.8-2.3c4.4,0,8.2,0.2,10.4,1.4
			c0.8,0.4,1.3,1.1,1.8,1.9c0.5,0.8,1.1,1.7,1.4,2.7c0.2,0.7,0.4,1.4,0.5,2.1c1.3,6.4,0.5,14.1,0.5,14.1c-0.1,0.8,0.5,1.6,1.3,1.7
			c0.8,0.2,1.6-0.3,1.8-1.1c0,0,0.9-2.7,2-5.3c0.5-1.2,1-2.4,1.6-3.2c1.4-2.2,3.8-3.7,6.3-4.3c2.6-0.6,5.4-0.3,7.5,1.1
			c1.7,1.1,2.9,2.6,3.8,4c0.5,0.9,1,1.8,1.3,2.6c0.5,1.6,0.6,2.8,0.6,2.8c0.1,0.8,0.8,1.5,1.7,1.4c0.8,0,1.5-0.7,1.5-1.6
			c0,0,0.3-6.9,1.3-12.8c0.4-2.1,0.8-4.1,1.4-5.5c0.2-0.6,0.4-1,0.7-1.2c2-1.3,9.7-1.7,18.3-1.9c5.9-0.1,12.2,0.1,17.4,0.2
			c1.7,0,3.2-0.1,4.6,0c3.1,0.1,5.5,0.5,6.6,0.9c1.1,0.3,1.8,0.8,2.3,1.4c0.9,0.9,1.2,2.1,1.8,3.2c0.7,1.4,1.5,2.7,3,3.8
			c3.5,2.5,6.2,2.6,7.9,3.7c0.9,0.6,1.3,1.6,1.5,3.9c0.1,0.8,0.1,1.7,0.1,2.5c0,0.8,0,1.6-0.1,2.4c-0.1,0.7-0.2,1.4-0.5,2.2
			c-0.2,0.7-0.5,1.3-0.9,1.9l-0.3,0.4c-0.7,0.8-1.6,0.8-2.6,0.9c-1.6,0.1-3.2,0-4.6,0.4c-1,0.3-1.9,0.8-2.6,1.7
			c-0.5,0.6-0.9,1.7-1.2,3.1c-0.5,2.6-0.8,6.5-1.5,9.9c-0.4,1.7-0.8,3.3-1.6,4.4c-3.9,5.9-12.5,7.7-21.1,7.1
			c-5.8-0.4-11.6-2-16.3-4.3c-0.5-0.3-1-0.6-1.6-0.8c-0.6-0.3-1.2-0.3-1.7-0.6c-1.1-0.6-2-1.4-2.8-2.1c-1.4-1.2-2.3-2.5-3.1-3.9
			c-2.4-4.2-2.8-8.4-5.2-11.8c-0.4-0.6-0.9-1-1.3-1.3c-0.6-0.4-1.3-0.6-1.9-0.8c-0.7-0.1-1.4-0.1-2-0.9c-0.3-0.4-0.2-1.4-0.4-2.5
			c-0.2-2-0.7-4.2-1.9-5.6c-1.2-1.5-3.3-2.4-6.9-1.4c-3.2,0.9-4.7,2.5-5.4,4.1c-0.7,1.5-0.6,3.3-0.4,4.9
			C1041,356.9,1041.2,358,1040.9,358.9z"/>
		<path class="st12" d="M1127.6,357.1c1.1-3.9,2.1-7.6,2.6-11.6c0.1-0.7-0.2-3.6,0.2-4c0.1-0.1,0.3,0.2,0.5,0.4
			c0.7,0.5,1.4,0.8,2.2,1.1c1.7,0.7,3.6,0.9,5.4,1.3c7.5,1.7,11.5-0.8,10.5,9.6c-0.1,1.6-0.8,4.6-1.1,5.3c-3,8.1-4.8-1.2-7.7-2.1
			C1134.8,355.5,1127.6,357.1,1127.6,357.1z"/>
		<path class="st1" d="M1127,356.9c0,0.5,0,1.1,0.2,1.4c0.2,0.5,0.4,0.7,0.6,0.5h0.2c0,0,2.7-0.6,5.9-0.6c0.9,0,1.9,0,2.8,0.1
			c0.6,0,1.2,0,1.8,0.1c0.4,0.1,0.7,0.2,1,0.4c0.2,0.1,0.3,0.3,0.5,0.5c0.5,0.5,0.9,1.2,1.4,1.9c0.8,1.2,1.8,2.3,2.6,2.7
			c1.4,0.7,3.8,0.6,5.4-4.2c0.2-0.5,0.5-1.7,0.7-2.9c0.2-1,0.4-2.1,0.4-2.9c0.4-4.2,0-6.5-0.9-8c-0.8-1.3-2-2.1-3.7-2.5
			c-1.8-0.5-4.2-0.5-7.3-1.2c-1.1-0.2-2.2-0.4-3.3-0.6c-0.6-0.1-1.2-0.3-1.8-0.5l-1.9-0.8c0.1,0,0.2,0.2,0.2,0.2s-1.3-0.9-1.8-0.9
			c-0.4,0.1-0.7,0.2-1.1,0.5c-0.2,0.2-0.5,0.6-0.6,1.2c-0.1,1,0.2,3.2,0.1,3.8c-0.3,2.1-0.8,4.1-1.3,6.1c-0.3,1.4-0.6,2.7-0.9,4.1
			c-0.1,0.2-0.2,0.5-0.2,0.7C1126.5,356.8,1126.5,356.5,1127,356.9z M1145.4,360.6c0.2,0,0.4-0.1,0.3,0.1
			C1145.7,360.8,1145.5,360.7,1145.4,360.6z M1132,344.5c0.1,0.1,0.3,0.1,0.4,0.2c0.6,0.2,1.2,0.4,1.8,0.6c1.3,0.3,2.6,0.5,3.8,0.8
			c1.7,0.4,3.2,0.6,4.5,0.7c1.5,0.2,2.7,0.2,3.6,0.6c1.3,0.7,1.4,2.3,1.1,6.2c-0.1,0.7-0.2,1.6-0.4,2.5c-0.2,1-0.5,2-0.6,2.4
			c-0.3,0.8-0.7,1.4-0.9,1.8c-0.2-0.4-0.5-1-0.8-1.3c-1.1-1.7-2.5-3.3-3.9-3.7c-0.3-0.1-0.6-0.3-0.9-0.2c-0.1,0-0.1,0.1-0.3,0.1
			c-1.4,0.1-2.9-0.6-4.3-0.6c-2-0.1-3.8,0.1-5.3,0.3c0.1-0.3,0.1-0.5,0.2-0.8c0.2-0.8,0.5-1.6,0.7-2.4c0.4-1.9,0.7-3.9,0.9-5.9
			C1131.7,345.5,1131.8,345,1132,344.5z"/>
		<path class="st12" d="M974.3,339.6c0.1,4.4-0.1,6,0.5,10.1c0.3,2.4,0.5,5.1,0.5,5.1s-1.4-0.1-2.2-0.2c-1.1-0.2-2.3,0.1-3.3,0.6
			c-1.3,0.6-2.6,1.6-3.6,2.6c-0.3,0.3-0.4,0.9-0.7,1.1c-0.1,0.1-0.8-0.3-0.9-0.4c-1-0.8-0.8-3.2-1-4.4c-0.4-3.6-0.3-5.6-0.9-9.1
			c-0.3-2.2-0.4-5.3,0.3-5.8c1.1-0.9,2.8-0.2,4.1,0C969.3,339.5,974.3,339.6,974.3,339.6z"/>
		<path class="st1" d="M967.6,359.1c0.5-0.5,1.1-0.9,1.8-1.4c0.4-0.3,0.8-0.6,1.3-0.8c0.4-0.2,0.7-0.3,1.2-0.4
			c0.4-0.1,0.7-0.1,1.1-0.1l2.4,0.1c0.5,0,1-0.2,1.3-0.5c0.3-0.4,0.5-0.8,0.5-1.3c0,0,0-1.5-0.1-3.2c-0.1-0.7-0.2-1.4-0.3-2.1
			c-0.6-3.6-0.5-5.2-0.8-8.8c0-0.1,0-0.3,0-0.4c-0.3-0.5-0.3-0.3-0.8-0.6v0c0-1.1-0.3-1.9-0.7-2c0,0-2.1,0-4.2-0.1
			c-1-0.1-2-0.1-2.7-0.3c-1-0.2-2.3-0.5-3.4-0.4c-0.8,0-1.6,0.3-2.2,0.7c-0.5,0.4-1,1.1-1.2,2.3c-0.2,1.4-0.2,3.7,0.1,5.4l1,9
			c0.1,0.9,0.1,2.3,0.4,3.5c0.2,1,0.7,1.7,1.3,2.2c0.2,0.1,1.1,0.7,1.5,0.8c0.9,0.3,1.5-0.1,1.8-0.4
			C967,360.1,967.5,359.4,967.6,359.1z M972.8,341.6c-0.1,3.2-0.2,4.9,0.2,8.4l0.3,2.9c-0.7-0.1-1.5-0.1-2.3,0
			c-0.7,0.1-1.4,0.3-2.1,0.6c-0.7,0.3-1.5,0.7-2.3,1.3c-0.4,0.3-0.7,0.5-1,0.8l-0.2-1.7c-0.3-2.6-0.3-4.3-0.5-6.4
			c-0.1-0.9-0.2-1.8-0.4-2.8c-0.2-1.2-0.1-3.2,0-4.1c0.1,0,0.2,0,0.2,0c0.7,0.1,1.4,0.3,1.9,0.4c0.8,0.2,1.9,0.3,3.1,0.4
			C970.9,341.4,972,341.5,972.8,341.6z M964.3,340.6L964.3,340.6c-0.1,0.1-0.1-0.1-0.1-0.1C964.2,340.5,964.2,340.5,964.3,340.6z"/>
		<path class="st13" d="M1100.8,376.3c-5.9,1.6-23.2-0.5-25.2-1.8c-10.2-6.6-9-15.2-8.9-25.9c0-3.8,0.5-7.8,2-11.3
			c0.4-0.9,0.4-2.3,1.2-3c2-1.7,6-1.4,8.5-1.7c7.4-1,16,0.3,23.1,2.3c2,0.5,4,0.6,5.9,1.5c1.6,0.7,2.4,2.8,2.9,4.3
			c1.8,5.2-0.2,9.7-0.7,14.9c-0.4,4.2-1.2,8.2-1.8,12.3c-0.3,2,0.1,4.3-1,6.1C1105.8,375.5,1102.4,375.8,1100.8,376.3z"/>
		<path class="st1" d="M1101,377.1c1.1-0.3,3.1-0.6,4.6-1.2c0.9-0.4,1.6-0.9,2-1.5c0.4-0.6,0.6-1.3,0.8-2c0.3-1.4,0.2-3,0.3-4.4
			l1.8-12.4c0.3-3.1,1.2-6,1.4-8.9c0.2-2,0-4.1-0.7-6.3c-0.4-1-0.8-2.2-1.5-3.1c-0.5-0.7-1.1-1.4-1.9-1.7c-0.6-0.3-1.2-0.5-1.9-0.7
			c-1.4-0.4-2.8-0.5-4.2-0.9c-3.6-1-7.6-1.8-11.6-2.3c-4-0.5-8.1-0.5-11.9,0c-1.7,0.2-4.2,0.1-6.2,0.6c-1.1,0.2-2,0.7-2.8,1.3
			c-0.3,0.3-0.6,0.7-0.8,1.1c-0.3,0.7-0.4,1.6-0.7,2.2c-0.8,1.8-1.3,3.8-1.6,5.8c-0.3,1.9-0.4,3.9-0.5,5.9
			c-0.1,6.7-0.5,12.5,1.5,17.6c1.3,3.3,3.6,6.4,7.8,9.1c1.1,0.7,6.9,1.8,12.9,2.3C1093,377.9,1098.2,377.9,1101,377.1L1101,377.1z
			 M1100.5,375.4c-2.6,0.7-7.6,0.7-12.4,0.3c-5.6-0.4-11-1.3-12.1-2c-3.8-2.5-5.9-5.2-7.1-8.2c-1.9-4.9-1.4-10.5-1.3-16.9
			c0-1.9,0.1-3.8,0.4-5.6c0.3-1.8,0.8-3.6,1.5-5.3c0.2-0.6,0.3-1.3,0.6-1.9c0.1-0.3,0.2-0.5,0.4-0.7c0.7-0.6,1.7-0.9,2.8-1
			c1.8-0.3,3.8-0.2,5.2-0.4c3.6-0.5,7.5-0.4,11.4,0c3.9,0.4,7.8,1.2,11.3,2.2c1.4,0.4,2.8,0.5,4.2,0.9c0.5,0.1,1.1,0.3,1.6,0.5
			c0.5,0.2,0.9,0.6,1.2,1.1c0.6,0.8,0.9,1.8,1.2,2.7c0.7,1.9,0.8,3.8,0.6,5.6c-0.2,2.9-1.1,5.8-1.4,8.9l-1.8,12.3
			c-0.2,1.2-0.1,2.5-0.2,3.7c-0.1,0.7-0.2,1.4-0.6,2c-0.3,0.5-1,0.8-1.7,1C1103,374.9,1101.5,375.1,1100.5,375.4L1100.5,375.4z"/>
		<path class="st13" d="M992.3,375.7c0,0-1.8-7.7-2.3-13.1c-0.4-4.2-0.3-8.4-0.8-12.5c-0.3-2.5-0.6-4.9-0.7-7.4
			c-0.1-1.3-0.2-2.9,0.6-4c2.5-3.5,7.9-2.9,11.5-3.2c8.9-0.7,24.3-2.5,26.9,9.1c0.9,4,0.2,8,0.5,12c0.6,7.8,3.4,17.4-2.9,23.6
			c-3.4,3.4-8.4,2.3-12.7,1.8c-1.3-0.2-2.6-0.3-3.9-0.3C1003.5,381.6,994.2,382.1,992.3,375.7z"/>
		<path class="st1" d="M991.7,375.9C991.7,375.9,991.7,375.9,991.7,375.9c0.8,2.9,2.9,4.5,5.6,5.4c3.6,1.2,8.2,1.1,11.3,1.2l3.8,0.3
			c2.6,0.3,5.5,0.8,8.1,0.4c1.9-0.3,3.7-1,5.1-2.4c2.7-2.7,3.8-5.9,4.1-9.3c0.5-4.9-0.7-10.2-1-14.9c-0.2-2.8,0.1-5.6-0.1-8.4
			c-0.1-1.2-0.2-2.5-0.5-3.7c-1.1-5-4.5-7.7-8.8-9c-5.9-1.8-13.5-1-18.9-0.6c-2.2,0.2-5,0-7.5,0.7c-1.8,0.4-3.4,1.3-4.5,2.8
			c-0.4,0.5-0.6,1.2-0.7,1.8c-0.1,0.9-0.1,1.8,0,2.6l0.7,7.4l0.8,12.5c0.2,1.7,0.4,3.5,0.7,5.3C990.8,372.1,991.7,375.9,991.7,375.9
			L991.7,375.9z M993.1,375.5C993.1,375.5,993.1,375.5,993.1,375.5c-0.1,0-0.9-3.7-1.6-7.7c-0.3-1.8-0.6-3.6-0.7-5.2l-0.8-12.6
			l-0.7-7.3c0-0.7-0.1-1.6,0-2.3c0.1-0.5,0.2-0.9,0.5-1.2c0.9-1.3,2.2-1.9,3.7-2.3c2.4-0.6,5.1-0.4,7.3-0.6
			c5.2-0.4,12.6-1.2,18.3,0.6c3.8,1.2,6.8,3.5,7.8,8c0.3,1.2,0.4,2.3,0.4,3.5c0.1,2.8-0.1,5.6,0.1,8.4c0.3,4.6,1.5,9.9,1,14.7
			c-0.3,3.1-1.3,6-3.7,8.4c-1.2,1.2-2.7,1.8-4.3,2c-2.5,0.4-5.3-0.1-7.7-0.4l-3.9-0.3c-3-0.1-7.4,0.1-10.8-1.1
			C995.6,379.2,993.8,377.9,993.1,375.5L993.1,375.5z"/>
	</g>
</g>
<g id="Layer3" transform="matrix(1,0,0,1,-5.22884,-57.3345)">
	<g transform="matrix(1,0,0,1,-15.8516,20.6568)">
		<path class="st14" d="M306.2,1086.9c-13.3-26.3-7.1-62.3-5.1-90.4c2.5-35.1,6.5-70.3,10.8-105.2c6.1-49.5,5.1-112.4,37.9-153.2
			c28.2-35.1,131.1-72,170.8-41.6c25.3,19.4,33.2,78.8,38,108.9c5.5,34.9,5.2,69.1,7.2,104.2c1.7,29.9,7.4,59.3,9.1,89.2
			c1,18.2-2.7,36.2-3.1,54.4c-0.5,18.5,2,36.8,1.7,55.3L306.2,1086.9z"/>
		<path class="st15" d="M305.6,1087.7c0.1,0.6,0.3,0.9,0.6,1c-0.1,0,35.2,2.9,80.1,6.5c78.7,6.3,187.1,14.8,187.1,14.8
			c0.5,0,0.9-0.1,1.3-0.4c0.3-0.3,0.6-0.8,0.6-1.2c0.2-14.8-1.3-29.5-1.7-44.3c-0.1-3.7-0.1-7.3,0-11c0.3-12.7,2.3-25.3,3-38
			c0.3-5.5,0.5-11,0.1-16.5c-0.3-6-0.8-12-1.4-17.9c-2.4-23.7-6.3-47.4-7.6-71.2c-1.2-21.1-1.6-41.9-2.9-62.6
			c-0.9-13.9-2.2-27.7-4.4-41.7c-2.8-17.7-6.7-45.3-14.6-69.2c-5.7-17.2-13.4-32.4-24.1-40.7c-16.8-12.8-44.6-14-73.5-8.3
			c-40.4,8-82.8,29.5-99.4,50.2c-13.4,16.7-21.2,37-26.2,58.6c-7.3,31.6-8.4,65.9-12,95.4c-2.5,21-5,42-7.1,63.1
			c-1.4,14.1-2.6,28.1-3.6,42.2c-1.1,16.8-3.8,36.4-2.9,55c0.5,11.5,2.4,22.6,6.8,32.5c0.2,0.6,0.5,1.2,0.8,1.7
			c0.3,0.6,0.7,1,1.1,1.5V1087.7z M306.4,1085.1c0-0.1-0.1-0.2-0.1-0.3c-0.2-0.6-0.5-1.1-0.7-1.6c-4.2-9.7-5.9-20.6-6.4-31.8
			c-0.8-18.6,2-38.1,3.2-54.8c1-14,2.3-28.1,3.7-42.1c2.2-21,4.7-42.1,7.3-63c3.6-29.5,4.7-63.7,12-95.1
			c4.9-21.2,12.5-41.1,25.6-57.4c16.3-20.3,58-41.2,97.7-49.1c27.9-5.5,54.8-4.6,71,7.8c10.3,7.9,17.6,22.6,23,39.2
			c7.7,23.7,11.5,51.2,14.3,68.7c2.2,13.9,3.4,27.6,4.3,41.4c1.3,20.8,1.6,41.5,2.8,62.6c1.4,23.9,5.3,47.6,7.7,71.4
			c0.6,5.9,1.1,11.9,1.4,17.8c0.3,5.4,0.2,10.8-0.1,16.1c-0.8,12.7-2.7,25.3-3,38.1c-0.1,3.7-0.1,7.4,0,11.1
			c0.3,14.1,1.7,28.2,1.6,42.3c-14.5-1.2-112.5-9.2-185.3-15C342.8,1087.9,308.1,1085.2,306.4,1085.1z M306.8,1086.2
			c0.5,0.1,0.9,0.2,1.1,0.3h-1L306.8,1086.2z"/>
	</g>
	<path class="st16" d="M384,744.5c0,0,3.1,11.6,3.1,18.4c-0.1,16.4,2.3,25.3,4.9,40.6c0.9,5.5,0.8,12.5,5.6,16.5
		c3.9,3.2,12.7,3,17.5,2.6c3.6-0.2,5.9,0.4,9.4-1.3c6.4-3.1,7.2-12.4,7.1-18.5c-0.3-17.2-2.4-34.6-4-51.7
		c-0.3-3.7,0.4-18.6-2.9-20.6c-9-5.3-24.1,2.5-32.6,5.9C389.9,737.2,382.7,740.7,384,744.5z"/>
	<path class="st15" d="M382.7,744.9c0,0.1-0.1,0.2-0.1,0.3c-0.1,0.3,0.2,0.8,0.3,1.4c0.8,3.5,2.4,11.2,2.3,16.2
		c-0.1,6.4,0.2,11.7,0.8,16.6c0.9,7.9,2.4,14.9,4,24.4c0.6,3.4,0.8,7.3,1.9,10.8c0.8,2.6,2.2,5,4.4,6.9c1.8,1.5,4.6,2.5,7.7,2.9
		c3.9,0.6,8.3,0.4,11.2,0.2c2.3-0.2,4,0,5.9-0.2c1.3-0.2,2.7-0.5,4.2-1.3c3-1.5,5-4.1,6.3-7.2c1.7-4.2,2-9.3,1.9-13.1
		c-0.1-6.9-0.5-13.9-1.1-20.8c-0.8-10.4-1.9-20.7-2.8-31c-0.2-2.8,0.2-11.9-1-17.2c-0.6-2.5-1.7-4.3-2.9-5
		c-4.1-2.4-9.3-2.4-14.7-1.2c-7.1,1.5-14.4,5.1-19.6,7.1c-1.7,0.7-5.9,2.7-7.9,5.3c-1.1,1.4-1.6,2.9-1.2,4.5c0,0.1,0,0.2,0.1,0.3
		C382.5,744.8,382.5,744.8,382.7,744.9z M385.2,744L385.2,744c0.2-0.1,0.3,0,0.3-0.2c0-0.1,0-0.2,0-0.3c0.1-0.8,0.7-1.4,1.4-2.1
		c1.8-1.7,4.6-2.9,5.8-3.4c5-1.9,12.2-5.4,19-6.8c4.4-0.9,8.6-1,12,1c0.3,0.2,0.3,0.6,0.4,1.1c0.5,1.4,0.8,3.2,1,5.3
		c0.4,4.9,0.3,10.6,0.5,12.7c0.9,10.3,2.1,20.6,3,31c0.6,6.9,1,13.7,1.1,20.6c0.1,3.4-0.2,7.9-1.6,11.6c-0.9,2.2-2.2,4.1-4.4,5.1
		c-1.1,0.5-2.1,0.8-3.1,0.9c-1.8,0.2-3.4,0-5.6,0.2c-2.8,0.2-6.8,0.3-10.4-0.2c-2.3-0.3-4.4-0.9-5.7-2c-1.6-1.3-2.5-3.1-3.1-5
		c-1-3.3-1.2-7-1.7-10.2c-1.6-9.4-3-16.4-4-24.2c-0.6-4.8-1-9.9-1-16.1c-0.1-3.9-1.1-9.3-2.1-13.3c-0.5-2.3-1-4.1-1.3-5
		c0-0.1,0-0.2-0.1-0.3C385.4,744.2,385.3,744.1,385.2,744z M382.7,744.8L382.7,744.8L382.7,744.8c0-0.1,0-0.1,0-0.2V744.8z"/>
	<path class="st17" d="M399.8,1029.9c0.7-26.4-1.7-48.6-1.5-72.5c0.3-31.5-4.1-61.1,1.3-92.5c3.2-18.8,5.5-31,1.9-49.6
		c-0.5-2.8-0.9-12.8-3.5-14.4c-6.4-4.1-43.7,12.9-52.2,14.3c-4.8,0.8-10.6,2.3-15,4.6c-0.1,0.1-1,0.4-1,0.6c0,4.3,9.1,9.9,11.9,12.7
		c8.5,8.8,19.3,21,23.3,32.7c4.4,12.5,5.9,26.1,9.2,38.9c4.2,16.2,10.2,32.2,13.5,48.6C392.2,975.7,399.8,1029.9,399.8,1029.9z"/>
	<path class="st15" d="M400.6,1029.8l1.2-0.1l-0.3-2.3c0.7-4,0-8.1,0-11.9c0-20.3-1.4-38.6-1.1-58c0.3-22.1-1.8-43.3-1.1-64.8
		c0.3-9,1-18.1,2.6-27.3c2-11.5,3.6-20.6,3.7-30c0.1-6.3-0.4-12.8-1.9-20.3c-0.4-1.9-0.6-6.9-1.5-10.6c-0.6-2.6-1.7-4.5-2.9-5.3
		c-1-0.6-2.5-1-4.4-1c-2.1,0-4.9,0.5-8,1.3c-13.6,3.4-35.1,12.9-41.3,14c-2.4,0.4-5.2,1-7.9,1.8c-2.7,0.8-5.4,1.8-7.6,3
		c-0.1,0.1-0.9,0.4-1.2,0.7c-0.7,0.5-0.8,1.2-0.8,1.6c0,1.8,1.1,3.9,2.9,5.9c2.8,3.2,7.5,6.4,9.3,8.3c5,5.2,10.7,11.5,15.5,18.3
		c3.1,4.5,5.9,9.1,7.5,13.6c1.3,3.7,2.3,7.5,3.2,11.4c0.6,2.7,1.1,5.4,1.7,8.2c1.3,6.5,2.6,13,4.2,19.3c2.9,11.3,6.8,22.6,10,33.9
		c1.4,4.8,2.6,9.7,3.6,14.5c1.5,7.6,3.4,18.9,5.3,30.5c3.6,22.4,6.9,45.9,6.9,45.9v-0.2c0.1,0.4,1.1,0.6,2.1,0.6
		c1,0,1.9-0.3,1.9-0.7h-1.3L400.6,1029.8z M398.1,1003.8c-0.9-6.4-2-13.4-3.1-20.2c-1.8-11.6-3.7-23-5.2-30.6c-1-5-2.2-9.9-3.6-14.9
		c-3.1-11.3-7-22.6-9.9-33.9c-2-7.7-3.3-15.6-5-23.4c-1.2-5.3-2.5-10.6-4.4-15.7c-1.7-4.9-4.5-10-7.8-14.8
		c-4.8-6.9-10.8-13.5-15.9-18.8c-1.8-1.9-6.5-4.9-9.5-8c-0.8-0.8-1.5-1.5-1.8-2.3c2-1,4.4-1.8,6.8-2.5c2.5-0.7,5.1-1.3,7.4-1.7
		c5.5-0.9,23-8.2,36.5-12.2c4.2-1.2,7.9-2.1,10.8-2.4c1.5-0.2,2.7-0.2,3.4,0.2c0.2,0.2,0.3,0.5,0.5,0.9c0.3,0.9,0.6,1.9,0.8,3.1
		c0.6,3.4,0.9,7.4,1.2,9c1.4,7.2,1.9,13.4,1.8,19.4c-0.2,9.3-1.7,18.1-3.7,29.4c-1.6,9.4-2.3,18.7-2.6,28
		c-0.5,21.5,1.6,42.8,1.5,64.9C396.4,973.1,397.5,988,398.1,1003.8z"/>
	<path class="st17" d="M455.2,796.5c6.9-19.1,22.7-35.3,37.9-48.1c3-2.5,19.6-12.2,20.4-14c4.8-9.6,1.6-23.3,3.4-33.8
		c3.5-20.1,10.5-39.7,16.8-59c3.8-11.6,8.2-23.7,14-34.5c1.9-3.5,4.4-6.8,5.9-10.5c0.6-1.4,0.7-3,1.1-4.4c0.1-0.5,1-1.6,0.5-1.5
		c-2.9,0.6-10.9,13.8-13.2,16.2c-12.4,13.4-27.7,24.7-42.8,35c-26.1,17.7-71.6,46.8-103.1,48.2c-9.4,0.4-19.2-3.7-28.2-5.7
		c-15.7-3.3-30.1-7.2-43.8-16.1c-9.7-6.2-18.7-13-26-21.9c-3.3-4.1-6.1-9.4-9.9-13c-0.6-0.6,0.5,1.6,0.7,2.5
		c0.3,1.7,0.5,3.4,0.7,5.1c0.6,4.9,1.6,9.8,2.7,14.6c1.9,8.2,1.7,16.6,3.2,24.9c1.2,6.4,3.9,12.3,5.4,18.6c4.1,17.6-2.1,33-2.5,50.3
		c-0.1,3.7,9.8,8.8,12.2,10.2c10.5,6.1,18.4,14,24.9,24.3c3.6,5.6,9.6,27.8,14.8,31c0.9,0.6,19.6-6.2,23-7.1
		c6.5-1.8,12.8-3.6,19.5-4.3c0.2,0,2-0.1,2-0.2c1.4-3.3-4.9-13.4-6.1-16.3c-6.2-14.7-9.5-28.3,3.3-40.6c3.4-3.3,7.7-6,12.6-6.8
		c5.7-1,17.9-1.1,22.6,2.3c7.3,5.3,8.4,21.2,6.1,29.4c-1.2,4.5-8.1,17.2-7.7,17.9c0.8,1.3,25.5,6.8,31.4,8.3L455.2,796.5z"/>
	<path class="st15" d="M456.8,794.8c0.6-1.2,1.3-2.3,1.9-3.5c3.8-7.1,8.2-14,13.6-20.2c6.7-7.9,14.4-15.1,21.9-21.4
		c2.1-1.8,11.2-7.2,16.5-10.7c2.5-1.7,4.2-3.1,4.5-3.7c1.6-3.2,2.4-6.7,2.7-10.5c0.8-7.8-0.4-16.6,0.9-23.7c1.4-8,3.4-15.9,5.6-23.7
		c3.4-11.8,7.4-23.5,11.2-35c1.9-5.8,3.9-11.7,6.2-17.4c2.3-5.8,4.8-11.4,7.7-16.8c1.3-2.5,2.9-4.8,4.3-7.2c0.6-1.1,1.2-2.3,1.7-3.5
		l1.2-4.6c0.1-0.3,0.5-1,0.6-1.3c0.2-0.6,0.1-1.1-0.1-1.4c-0.3-0.7-0.9-1.5-2.3-1.2c-1,0.2-2.6,1.4-4.2,3.3
		c-3.6,4.1-8.3,11.7-10,13.5c-4.9,5.3-10.3,10.3-15.9,15c-8.5,7.1-17.5,13.6-26.5,19.7c-15.2,10.4-37.2,24.6-59,34.9
		c-15.2,7.1-30.3,12.4-43,13c-2.7,0.1-5.4-0.2-8.2-0.7c-6.6-1.2-13.3-3.6-19.6-5c-7.8-1.6-15.2-3.4-22.5-5.9
		c-7.1-2.4-14-5.6-20.7-9.9c-4.8-3.1-9.4-6.3-13.7-9.8c-4.3-3.5-8.3-7.3-11.9-11.7c-2.3-2.8-4.4-6.2-6.7-9.3
		c-1.1-1.4-2.2-2.8-3.4-3.9c-1.3-1.3-2.5-0.4-2.8-0.1c-0.3,0.3-0.7,0.8-0.6,1.6c0,0.4,0.7,2,0.9,2.7l0.7,5c0.3,2.5,0.7,5,1.2,7.4
		c0.5,2.5,1,4.9,1.5,7.3c0.6,2.4,0.9,4.8,1.2,7.2c0.7,5.8,0.9,11.7,2,17.6c0.4,2,0.9,3.9,1.5,5.9c1.3,4.3,3,8.5,4,12.8
		c1.2,5,1.5,9.9,1.3,14.6c-0.4,11.7-3.5,23-3.8,35.2c-0.1,1.6,1,3.7,3,5.5c3.1,2.9,8.2,5.4,9.9,6.4c5.1,3,9.6,6.4,13.5,10.3
		c4,3.9,7.5,8.3,10.6,13.3c2.6,4.2,6.6,17.5,10.6,25.3c1.6,3.1,3.2,5.4,4.8,6.3c0.3,0.2,1.2-0.3,2.5,0.2c0.2,0.1,0,0.1,0.2,0.2
		c0.4,0.1,0.8-0.2,1.3-0.3c5.3-1.5,17.9-6,20.6-6.8c3.9-1.1,7.7-2.2,11.5-3c2.5-0.6,5.1-1,7.7-1.3c0.2,0,1.4-0.1,1.9-0.1
		c1.1-0.2,1.6-1,1.7-1.2c0.6-1.4,0.4-3.9-0.7-6.7c-1.6-4.2-4.6-9.3-5.4-11.2c-2.9-7.1-5.2-13.9-5.2-20.4c0-6.3,2.2-12.2,8.1-17.9
		c1.6-1.5,3.4-2.9,5.3-4c1.9-1,3.9-1.8,6.1-2.2c3.2-0.5,8.5-0.8,13.2-0.3c3.1,0.3,6,0.9,7.7,2.2c3.3,2.4,5,7.2,5.8,12.3
		c0.8,5.3,0.6,10.9-0.4,14.7c-1,3.5-5.4,12-7,15.7c-0.4,1-0.7,1.8-0.7,2.2c-0.1,0.8,0.1,1.4,0.3,1.7c0.2,0.3,0.6,0.7,1.5,1.1
		c1,0.5,3.1,1.2,5.9,1.9c4.3,1.2,10,2.9,15.2,4c1.4,0.3,2.8,0.5,4.1,0.7c2.6,0.6,4.7,1.2,6,1.5c1.1,0.3,2.3-0.3,2.7-1.4
		c0.4-1.1-0.1-2.3-1.1-2.8L456.8,794.8z M551.1,597.7c-0.2,0.4-0.4,0.8-0.7,1.2c-1.4,2.5-3,4.8-4.4,7.3c-2.9,5.5-5.5,11.3-7.8,17.1
		c-2.3,5.9-4.4,11.8-6.3,17.7c-3.8,11.6-7.8,23.3-11.1,35.2c-2.2,8-4.2,16-5.6,24.1c-1.3,7.3-0.1,16.1-0.8,24
		c-0.3,3.3-1,6.5-2.3,9.3c-0.2,0.4-1.5,1.2-3.3,2.4c-5.4,3.7-14.5,9.2-16.7,11c-9.2,7.8-18.6,16.7-26.1,26.9
		c-3.5,4.8-6.8,9.7-9.1,15.1c-0.8,1.8-1.4,3.7-1.9,5.6c-1.2-0.3-2.6-0.6-4.2-1c-0.9-0.3-1.8-0.6-2.8-0.9c-7-1.9-15.8-3.6-19.7-4.8
		l-0.1,0c1.8-4,6.2-12.5,7.2-16.1c1.4-5.1,1.6-13,0-19.8c-1.2-5.1-3.5-9.6-6.9-12.1c-2.2-1.6-5.9-2.6-9.9-3.1
		c-5.2-0.6-11-0.2-14.5,0.4c-2.7,0.5-5.2,1.4-7.5,2.7c-2.3,1.3-4.4,2.9-6.2,4.7c-5.4,5.3-8.1,10.7-9,16.4
		c-1.3,8.4,1.4,17.3,5.4,26.7c0.7,1.7,3.1,5.7,4.8,9.5c0.6,1.3,1.1,2.6,1.3,3.6c0,0.2,0.1,0.4,0.1,0.5c-0.2,0-0.4,0-0.4,0
		c-2.8,0.3-5.4,0.8-8.1,1.3c-3.9,0.8-7.8,1.9-11.7,3c-2.8,0.7-15.4,5.2-20.7,6.6c-0.4,0.1-0.7,0.1-1,0.2c-0.1,0.1-0.1,0.2-0.2,0.3
		c-1.4-1.2-2.8-4.1-4.3-7.4c-3.6-8-7-18.9-9.4-22.6c-3.3-5.3-7-9.9-11.2-14c-4.2-4.1-8.9-7.7-14.3-10.9c-1.4-0.8-5.2-2.8-8.1-5
		c-0.7-0.5-1.3-1-1.8-1.5c-0.8-0.7-1.5-1.2-1.5-1.9c0.3-12.2,3.5-23.5,4-35.2c0.2-5.1-0.1-10.2-1.3-15.6c-1-4.5-2.7-8.7-4-13.1
		c-0.5-1.8-1-3.6-1.4-5.4c-1-5.7-1.2-11.6-1.9-17.3c-0.3-2.5-0.7-5.1-1.3-7.6c-0.6-2.4-1.1-4.8-1.5-7.2c-0.4-2.4-0.8-4.8-1.1-7.2
		l-0.1-0.4c1.7,2.5,3.4,5.1,5.2,7.3c3.8,4.6,7.9,8.6,12.4,12.2c4.4,3.6,9.2,6.9,14,10.1c5.6,3.6,11.2,6.4,17.1,8.7
		c8.8,3.4,17.9,5.7,27.4,7.7c6.3,1.3,13,3.8,19.7,5c3,0.5,6.1,0.9,9.1,0.7c13.2-0.6,28.8-5.9,44.5-13.3
		c22.1-10.4,44.2-24.8,59.6-35.2c9.1-6.2,18.2-12.7,26.8-19.9c5.8-4.8,11.3-9.9,16.3-15.3C544.8,606.8,548,601.8,551.1,597.7z"/>
	<path class="st16" d="M363.9,748.3c-41.4-36.2-36.8-127.9-12.8-184.7c10.5-24.8,33.2-47.9,62.9-44.1c7.3,0.9,15.6,5.9,22.3,8.9
		c7.3,3.2,15.6,4.5,21.3,10.4c31.7,32.7,28.6,71.7,21.8,112.6c-2.7,16.4-4.9,32.7-11.3,48.3c-4.5,10.9-14.3,20.6-19.5,31.1
		c-9.9,20-25.9,36.9-44.5,37.9C389,769.7,374.6,757.7,363.9,748.3z"/>
	<path class="st15" d="M362.6,749.8c6.5,5.7,14.3,12.3,22.8,16.5c6,3,12.3,4.8,18.8,4.4c8.4-0.5,16.3-4,23.3-9.5
		c9.2-7.2,17-17.8,22.7-29.5c4.1-8.3,11.2-16.1,16.1-24.4c1.3-2.2,2.5-4.5,3.5-6.8c2.6-6.3,4.5-12.7,6-19.2
		c2.3-9.7,3.8-19.5,5.5-29.5c2.7-14.7,5-29.1,5.2-43.2c0.2-10-0.7-19.8-2.9-29.2c-3.6-15.1-10.9-29.5-23.7-42.9
		c-1.9-2-4.2-3.6-6.5-4.9c-4.9-2.7-10.6-4.1-15.7-6.3c-4.7-2.1-10.1-5.2-15.5-7.2c-2.6-1-5.2-1.7-7.8-2.1c-7.8-1-15.1-0.4-21.9,1.7
		c-7,2.1-13.5,5.7-19.3,10.3c-11.1,8.8-19.7,21.4-25,34.4c-13.5,32.9-20.2,77.2-16,116c3.2,29.3,12.6,55.4,30.6,71.1L362.6,749.8z
		 M365,747.1c-17.4-15.3-26.6-40.6-29.3-69c-3.6-38,4.4-81.3,18.3-113.2c5.2-11.9,13.3-23.3,23.6-31.3c5.1-4,10.9-7,17.1-8.9
		c5.9-1.8,12.2-2.4,18.9-1.6c2.7,0.3,5.5,1.3,8.3,2.5c4.5,1.9,9.1,4.3,13.1,6.1c4.3,1.9,9.1,3.1,13.4,5c2.5,1.1,4.9,2.5,6.9,4.5
		c12.1,12.3,19.1,25.7,22.6,39.7c2.3,9,3.2,18.3,3.2,27.8c0.1,13.8-1.5,28-3.7,42.5c-1.6,9.8-2.9,19.6-5.2,29.3
		c-1.5,6.3-3.3,12.6-5.8,18.7c-0.9,2.1-2,4.2-3.2,6.3c-5,8.4-12.1,16.3-16.3,24.6c-5.5,11.2-13,21.3-21.7,28.2
		c-6.4,5-13.6,8.3-21.2,8.7c-5.8,0.3-11.5-1.4-16.8-4.1c-8.2-4.1-15.7-10.5-22-16L365,747.1z"/>
	<path class="st15" d="M356.6,674c0.8,1.6,1.6,3.2,2.5,4.7c0.9,1.5,2,3,3,4.4c3.1,4.2,6.5,8.2,9.7,12.4c1.2,1.5,2.5,4,4,6
		c0.8,1,1.7,1.9,2.5,2.4c1.1,0.7,2.1,0.8,3.2,0.5c1.5-0.3,3-1.5,4.5-2.6c1.1-0.8,2.2-1.6,3.3-1.4c1,0.2,1.6,1,2.3,1.9
		c1.2,1.4,2.4,3.1,4.2,4.4c1.1,0.8,2.5,1.5,4.3,1.8c3.1,0.7,6.3,0.8,9.5,0.5c3.1-0.3,6.2-1,9.2-1.9c8.1-2.5,13.7-5.5,18.4-9.7
		c3.4-3,6.4-6.6,9.4-11.1c0.5-0.8,1.1-1.7,1.6-2.6c0.5-0.9,0.8-1.8,1.2-2.8c0.4-0.6,0.2-1.4-0.4-1.7c-0.6-0.4-1.3-0.2-1.7,0.4
		c-0.7,0.8-1.4,1.5-2,2.3c-0.6,0.8-1.2,1.7-1.7,2.5c-2.9,4.2-5.6,7.7-8.7,10.6c-4.4,4-9.5,6.8-17,9.3c-2.8,0.9-5.7,1.6-8.6,1.9
		c-2.9,0.3-5.8,0.3-8.6-0.3c-1.3-0.3-2.4-0.8-3.3-1.4c-1.7-1.1-2.7-2.6-3.8-3.9c-1.1-1.3-2.3-2.3-3.7-2.7c-1-0.2-2.1,0-3.1,0.4
		c-1.4,0.6-2.8,1.8-4.1,2.7c-1,0.7-2,1.3-3.1,0.6c-0.7-0.4-1.3-1.1-1.9-1.8c-1.5-1.9-2.9-4.4-4-6c-3.3-4.2-6.6-8.2-9.9-12.3
		c-1.1-1.4-2.1-2.8-3.1-4.2c-1-1.4-2.1-2.7-3.1-4.2c-0.2-0.3-0.6-0.4-0.9-0.2C356.5,673.3,356.4,673.7,356.6,674z"/>
	<path class="st15" d="M453.7,668.2c-1,0.3-3,0.4-3.2,0.4c-1.6,0.1-3.2,0.2-4.8,0.3c-1,0-2.1,0-3.1-0.1c-4.7-0.4-9.6-1.9-14.4-3.8
		c-6.5-2.6-12.8-6-18.5-9.1c-0.3-0.2-0.7-0.4-1-0.6c-0.4-0.1-0.8-0.2-1.2-0.3c-0.6-0.3-1.4-0.1-1.8,0.5s-0.1,1.4,0.5,1.8
		c0.3,0.3,0.5,0.6,0.8,0.9c0.3,0.2,0.7,0.4,1,0.6c5.8,3.2,12.2,6.8,18.8,9.4c5.1,2,10.3,3.5,15.4,3.9c1.1,0.1,2.3,0.1,3.5,0
		c1.7-0.1,3.4-0.2,5-0.4c0.5-0.1,3.9-0.9,4.9-1.7c0.8-0.6,1-1.4,0.8-1.9c-0.5-1.7-2.1-4-4.3-6.5c-4-4.6-9.8-9.7-12-11.9
		c-4.4-4.3-8.1-9.4-11.1-14.8c-2.7-4.9-4.8-10.2-6.2-15.5c-0.1-0.4-0.1-0.9-0.3-1.3c-0.1-0.2-0.3-0.3-0.5-0.5
		c-0.1-0.4-0.4-0.6-0.8-0.5c-0.4,0.1-0.6,0.4-0.5,0.8c-0.1,0.3-0.2,0.4-0.3,0.7c0,0.4,0.2,0.9,0.3,1.3c1.2,5.6,3.2,11.2,5.9,16.3
		c3,5.8,6.9,11.1,11.4,15.7c2.2,2.2,8.1,7.1,12.1,11.6C451.8,665.2,453.1,666.8,453.7,668.2z M453.9,668.1c0.3-0.1,0.4-0.3,0.3-0.5
		C454,667.3,453.9,667.7,453.9,668.1z"/>
	<g>
		<path class="st16" d="M435,593.2c0,0-10.4,6.3-11,12.5c-0.8,8,8.1,19.1,16.4,17.5c9.7-1.9,16.3-8.6,23.5-14.7
			c3.1-2.6,7.3-7,6.6-11.5c-0.6-4-5.5-6.1-8.8-7.3C451.9,586.4,443,587.8,435,593.2z"/>
		<path class="st15" d="M434.1,592C434.2,592,434.2,592,434.1,592c0.1,0-4.7,2.9-8.1,6.8c-1.8,2.1-3.2,4.4-3.5,6.8
			c-0.5,4.3,1.5,9.5,4.9,13.5c3.5,4.2,8.5,6.8,13.3,6c4.1-0.8,7.7-2.4,11-4.4c4.8-3,8.9-6.9,13.4-10.7c2-1.7,4.3-4.1,5.8-6.7
			c1.1-2,1.7-4.2,1.3-6.4c-0.3-2-1.5-3.7-3.1-5c-2-1.7-4.8-2.8-6.9-3.5c-5.1-1.7-9.9-2.2-14.5-1.5C443,587.2,438.4,589,434.1,592
			L434.1,592z M435.7,594.4C435.7,594.4,435.7,594.4,435.7,594.4c4-2.6,8.1-4.2,12.4-4.7c4.2-0.5,8.5,0,13.1,1.6
			c1.8,0.6,4.1,1.5,5.8,3c0.9,0.8,1.7,1.8,1.9,3c0.2,1.4-0.3,2.9-1,4.2c-1.3,2.3-3.3,4.3-5,5.7c-4.3,3.6-8.4,7.4-13,10.3
			c-2.9,1.8-6.1,3.3-9.7,4c-3.6,0.7-7.4-1.5-10.1-4.6c-2.9-3.2-4.8-7.4-4.5-11c0.2-1.8,1.3-3.6,2.7-5.2
			C431.2,597,435.7,594.4,435.7,594.4L435.7,594.4z"/>
		<path class="st16" d="M391,601.2c10.8,6.3,7.6,15.1-0.2,23c-6.3,6.4-20.3,9-28.5,4.9c-8.5-4.2-4.2-13.2,0-18.9
			c5.8-7.8,20.2-12.4,29.5-8.6L391,601.2z"/>
		<path class="st15" d="M391.7,600L391.7,600c4.8,2.7,7,6,7.5,9.4c0.8,5.1-2.2,10.7-7.3,16c-3.4,3.4-8.8,5.8-14.5,6.8
			c-5.7,1-11.5,0.5-15.9-1.6c-4-2-5.6-5-5.7-8.2c-0.2-4.4,2.5-9.4,5.2-13.1c3.1-4.1,8.4-7.4,14.3-9.2c5.2-1.5,10.8-1.8,15.4-0.4
			c0.3-0.1,0.6,0,0.9,0.1L391.7,600L391.7,600z M390.6,602.7c4.6,2.8,6.3,6,5.8,9.5c-0.5,3.6-3.2,7.3-6.8,10.8
			c-2.9,3-7.7,5-12.7,5.9c-4.9,0.9-10.1,0.6-13.9-1.3c-2.8-1.3-3.9-3.3-4-5.5c-0.2-3.7,2.3-8,4.6-11.1c2.7-3.7,7.5-6.6,12.7-8.2
			C381.1,601.5,386.3,601.2,390.6,602.7z"/>
		<g transform="matrix(1,0,0,1,6.90547,-1.53378)">
			<path class="st15" d="M368.7,626.5c16.5,0.2,13.6-16.3,2.7-16.5C363.2,609.8,356.3,626.3,368.7,626.5z"/>
		</g>
		<path class="st15" d="M442.4,598.5c-9.4,3.3-9.1,20.6,2.6,17.2C461.5,610.9,454.8,594.2,442.4,598.5z"/>
	</g>
	<path class="st14" d="M407.6,489.5c-13.4,0.2-28,5.9-40.6,10.1c-38,12.7-100.2,33.4-112.7,74c-3.8,12.4,7.5,26.2,30.8,33
		c18.1,5.3,55.9,10.9,73.5,11c29.8,0.3,61.9-0.7,90.7-10c4.5-1.5,8.5-4.6,12.8-6.6c8.1-3.7,16.6-6.5,24.8-9.7
		c16.2-6.2,45.1-17.2,57.4-28.1c5.6-5.1,9-11.5,13.5-17.4c6.3-8.3,17-18.1,14.8-29.9c-1.7-9.3-15-13.4-22-17.2
		c-12.4-6.7-24.5-14.9-38.8-17c-5.7-0.8-11.3,0-17-0.5c-7-0.6-14.2-1.9-21.3-1.3c-12.1,1.1-23.1,5-35,6.9
		c-7.3,1.2-28.9,0.7-34.4,4.1"/>
	<path class="st15" d="M405.9,488.8c-2.2,0-4.5,0.2-6.8,0.5c-2.8,0.4-5.5,1-8.3,1.6c-8.3,2-16.6,5.1-24.1,7.5
		c-22.3,7.4-52.9,17.7-77,33c-17.3,11-31.3,24.7-36.6,41.8c-2,6.6-0.2,13.5,5.3,19.7c5.4,6.1,14.3,11.5,26.4,15.1
		c9,2.6,22.8,5.4,36.7,7.4c14.1,2.1,28.3,3.6,37.2,3.6c17.9,0.1,36.7-0.2,55.1-2.5c12.3-1.5,24.5-4,36.1-7.7
		c1.4-0.5,2.8-1.1,4.2-1.8c3-1.5,5.8-3.5,8.8-4.8c3.2-1.5,6.5-2.8,9.8-4.1c5-1.9,10-3.7,15-5.6c9.5-3.7,23.3-8.9,35.6-14.8
		c8.9-4.3,17-8.9,22.2-13.5c1.7-1.6,3.3-3.2,4.7-5c3.2-4,5.8-8.4,9-12.6c3.8-5,9.2-10.6,12.5-16.8c2.3-4.4,3.6-9.1,2.6-14.2
		c-0.8-4.1-3.6-7.4-7.2-10c-4.9-3.5-11.3-6-15.5-8.2c-7.5-4-14.9-8.6-22.7-12.1c-5.3-2.4-10.8-4.2-16.7-5.1
		c-1.8-0.3-3.5-0.4-5.3-0.4c-3.9-0.1-7.9,0.3-11.8-0.1c-4.2-0.4-8.5-1-12.8-1.3c-2.9-0.2-5.9-0.3-8.8,0c-3.7,0.3-7.2,0.9-10.8,1.6
		c-8.2,1.7-16,4-24.4,5.4c-5.5,0.9-19,0.9-27.7,2.3C408.8,488.1,407.2,488.4,405.9,488.8z M403,490.6c-1.2,0.2-2.4,0.4-3.6,0.6
		c-2.7,0.5-5.4,1.1-8.1,1.8c-8.2,2.2-16.4,5.2-23.9,7.8c-22.2,7.4-52.6,17.5-76.5,32.8c-16.7,10.7-30.3,23.9-35.3,40.5
		c-1.7,5.7,0,11.7,4.8,17c5.1,5.8,13.6,10.8,25.1,14.1c8.9,2.6,22.6,5.2,36.3,7.3c14,2.1,28,3.6,36.8,3.7
		c17.8,0.2,36.5-0.1,54.7-2.3c12.1-1.5,24.1-3.8,35.6-7.5c1.3-0.4,2.5-1,3.8-1.6c3-1.5,5.9-3.5,8.9-4.9c2.4-1.1,4.9-2.2,7.4-3.2
		c5.8-2.3,11.7-4.3,17.5-6.6c9.4-3.6,23.2-8.9,35.4-14.8c8.6-4.2,16.5-8.7,21.5-13.2c1.6-1.5,3-3,4.4-4.7c3.2-4,5.8-8.4,8.9-12.6
		c3.7-4.9,9-10.3,12.2-16.4c2-3.8,3.1-7.9,2.3-12.3c-0.6-3.4-3.1-6-6.1-8.2c-4.8-3.4-11.1-5.8-15.2-8c-7.4-4-14.7-8.5-22.5-11.9
		c-5.1-2.2-10.3-4-15.9-4.8c-1.6-0.2-3.3-0.3-4.9-0.4c-4-0.1-8,0.3-12-0.1c-4.2-0.4-8.5-1-12.7-1.3c-2.8-0.2-5.5-0.3-8.3,0
		c-3.6,0.3-7,0.9-10.4,1.5c-8.2,1.6-16.1,3.9-24.5,5.3c-4.8,0.8-15.8,0.8-24.4,1.7c-3.1,0.3-5.9,0.9-7.9,1.4
		c-0.7,0.2-1.3,0.3-1.7,0.5c-0.5,0.3-1.2,0.2-1.5-0.4C402.9,491.3,402.9,491,403,490.6z"/>
	<path class="st14" d="M367.8,566.4c-21.1,0.5-30.8-1.8-39.1-9.8c-4.6-4.5,3.9-18.4,5.9-28.5c5.2-27.3,16.1-56,30.6-79.7
		c4.5-7.4,10.5-15.6,16.9-21.4c1.2-1.1,7-4,7.2-5.2c0.8-3.5-12-7.5-13.8-8.5c-8.6-4.6-12.7-14.1-11.8-23.6
		c1.6-16.8,14.9-21.3,27.2-28.4c0.6-0.3-1.1-0.9-1.7-1.2c-1.8-1.2-3.7-2.3-5.4-3.7c-5-4.1-10.3-8.6-9-15.7
		c3.5-19.2,29.1-28.8,30.4-32.1c0.3-0.8-7.6-10.3-8.1-10.9c-3.6-4.9-8.6-9.3-10.9-14.9c-5.2-12.9,2.2-25.7,16.5-23.4
		c7.4,1.2,5.2,6.4,2.2,10.9c-0.3,0.5,0.8,0.8,1.2,1.1c3.4,2.8,7.3,4.9,11,7.4c7.2,4.9,11.7,13.4,10.9,22c-0.5,6-1.3,13.9-4.8,18.9
		c-1.4,2-3.5,3.5-5.6,4.8c-0.9,0.5-3.4,0.8-2.6,1.5c1.5,1.2,17.2-0.8,22.4,2.7c15.6,10.4-3.5,36.7-14.3,43.3
		c-4,2.4-8.1,4.7-12.1,7.1c-0.3,0.2-2,0.9-2,1.1c0,0.4,3.4,1.1,3.8,1.2c7.8,2,24.5,3.9,28.4,12.2c4.3,9.2-1.1,25.5-6.3,33.2
		c-2,3-4.3,5.7-6.4,8.6c-0.7,0.9-1.4,1.8-2.1,2.6c-0.4,0.5-1.7,2.1-1.2,1.6c5.7-5.2,15.5-18.6,23-7.3c11.2,17,15.3,38.5,22.9,57.1
		c3.3,8.2,10.4,18.4,9.9,27.4c-1.1,17.6-15.1,40.1-33.6,41.2"/>
	<path class="st15" d="M402.6,308c-0.7,0.5-1.8,1.3-2.8,1.9c-4.6,2.9-12,7.3-17.9,13.4c-4.5,4.6-8.1,10.2-9.3,16.8
		c-0.6,3.4,0,6.3,1.4,8.8c1.8,3.5,5.1,6.3,8.3,9c0.7,0.6,1.5,1.2,2.3,1.7c0.7,0.5,1.5,0.9,2.3,1.4c-6.8,3.7-13.5,7-18.3,12.2
		c-3.7,4-6.3,9.1-7,16.2c-0.5,5.1,0.4,10.3,2.5,14.7c2.2,4.5,5.7,8.4,10.4,10.9c0.9,0.5,4.5,1.7,7.9,3.3c1.5,0.7,3,1.5,4,2.3
		c0.2,0.2,0.5,0.4,0.6,0.6c-1.7,1.4-5.4,3.3-6.3,4.2c-3.3,3-6.4,6.6-9.4,10.4c-2.9,3.8-5.5,7.7-7.8,11.5c-7.3,12-13.7,25.2-19,38.8
		c-5.2,13.7-9.3,27.8-12,41.5c-1.4,7.4-6.3,16.7-7.1,23c-0.4,3.2,0.1,5.8,1.8,7.4c4.3,4.2,9,7,15.2,8.6c5.8,1.5,13.1,1.9,22.8,1.5
		c0.7,0,1.4,0.3,2-0.1c0.6-0.4,0.1-0.3,0.5-1c0.4,0,0.7-0.3,0.7-0.7c0-0.4-0.3-0.7-0.7-0.7c-0.4-0.7,0.1-0.5-0.5-0.9
		c-0.6-0.3-1.3,0-2,0c-9.3-0.2-16.2-0.7-21.7-2.2c-5.5-1.5-9.6-3.8-13.4-7.5c-0.5-0.5-0.6-1.1-0.7-1.9c-0.1-1.3,0.2-2.9,0.6-4.7
		c1.6-6.1,5.3-13.8,6.5-20.1c2.6-13.6,6.5-27.4,11.7-40.9c5.1-13.4,11.4-26.4,18.6-38.2c2.2-3.6,4.8-7.5,7.6-11.1
		c2.8-3.6,5.8-7,9-9.9c0.8-0.7,4.1-2.4,5.8-3.7c1.2-0.9,1.9-1.9,2-2.5c0.3-1.5-0.4-3.3-2.4-4.8c-3.5-2.7-11.1-5.2-12.4-6
		c-3.9-2.1-6.7-5.3-8.5-9c-1.8-3.8-2.5-8.1-2.1-12.5c0.6-6,2.7-10.3,5.9-13.7c5.2-5.7,12.9-8.9,20.2-13.1c1.1-0.7,1.3-1.5,1.1-2.3
		c-0.1-0.4-0.3-1-0.8-1.4c-0.4-0.3-1.5-0.8-1.9-1.1l-5.1-3.6c-2.8-2.3-5.7-4.6-7.3-7.6c-0.9-1.7-1.4-3.7-0.9-6
		c1-5.8,4.3-10.6,8.1-14.6c6.8-7,15.5-11.6,19.4-14.3c1.6-1.1,2.5-2.1,2.7-2.8c0.1-0.3,0.2-0.8,0.1-1.4c-0.1-0.4-0.3-1-0.9-1.8
		c-1.8-2.8-7.2-9.3-7.6-9.8c-2.5-3.4-5.7-6.5-8.2-10c-1-1.4-1.9-2.9-2.5-4.4c-2.3-5.7-2-11.3,0.6-15.4c2.6-4.1,7.4-6.4,13.7-5.4
		c2.4,0.4,3.4,1.1,3.4,2.4c0,1.7-1.2,3.7-2.5,5.6c-0.6,0.9-0.5,1.8,0.1,2.6c0.3,0.4,1.1,0.8,1.5,1.1c1.1,0.9,2.2,1.7,3.3,2.5
		c2.5,1.7,5.2,3.3,7.8,5c3.3,2.2,6,5.3,7.8,8.8c1.8,3.5,2.6,7.4,2.3,11.4c-0.3,3.4-0.7,7.6-1.7,11.4c-0.6,2.4-1.5,4.7-2.8,6.6
		c-0.6,0.9-1.4,1.6-2.2,2.3c-0.9,0.7-1.8,1.3-2.8,1.9c-0.6,0.4-2.1,0.6-2.6,1c-0.6,0.4-0.9,0.9-1.1,1.3c-0.2,0.7-0.2,1.6,0.8,2.5
		c0.4,0.3,1.3,0.7,2.6,0.8c2.9,0.3,9.1-0.1,14.3,0.5c2.3,0.3,4.3,0.6,5.6,1.5c5.7,3.8,5.9,10.1,3.8,16.4
		c-3.3,9.8-11.9,19.9-17.9,23.6l-12,7.1c-0.3,0.2-1.6,0.7-2,1.1c-0.8,0.6-0.9,1.3-0.9,1.7c0,0.4,0.2,1.4,1.4,1.9
		c0.9,0.5,3.5,1.1,3.8,1.2c4.5,1.2,12,2.4,18.2,4.8c3.9,1.5,7.3,3.4,8.7,6.5c1.6,3.4,1.7,7.9,1,12.5c-1.1,7-4,14.3-7,18.7l-6.3,8.6
		l-2,2.5c-0.4,0.4-1.2,1.5-1.4,1.8c-0.3,0.4-0.3,0.8-0.3,1c-0.1,0.6,0.2,1,0.4,1.3c0.3,0.4,0.7,0.7,1.3,0.8c0.1,0,0.8,0.1,1.6-0.6
		c3.3-2.9,7.9-8.7,12.7-10.5c2.5-1,5-0.4,7.3,3c3.3,5,6,10.4,8.3,16.1c5.5,13.3,9.1,27.7,14.4,40.7c2,4.8,5.2,10.4,7.5,16
		c1.4,3.5,2.4,7.1,2.2,10.5c-0.5,8.3-4.1,17.8-9.6,25.3c-3.3,4.5-7.4,8.3-11.9,10.9c-3.1,1.8-6.4,3.1-10,3.5
		c-0.9,0.1-1.6,0.8-1.6,1.8c0.1,0.9,0.8,1.6,1.8,1.6c4.1-0.1,8.1-1.1,11.8-3.1c3.5-1.8,6.7-4.5,9.5-7.5c8.3-8.8,13.7-21.4,14.4-32.2
		c0.2-3.1-0.4-6.3-1.5-9.5c-2.2-6.6-6.3-13.2-8.6-18.9c-5.3-13-8.9-27.4-14.5-40.7c-2.4-5.9-5.3-11.5-8.7-16.8
		c-3.8-5.7-8.1-6.2-12.3-4.5c-0.2,0.1-0.3,0.1-0.5,0.2c3-4.8,6-12.1,7.2-19.2c0.9-5.5,0.7-10.8-1.2-14.9c-1.4-3.1-4.3-5.4-8-7.2
		c-6.7-3.3-15.9-4.6-21.4-5.9l10.3-6.1c6.5-4,16.1-14.9,19.7-25.6c2.8-8.2,2-16.2-5.3-21.1c-1.7-1.1-4.4-1.8-7.4-2.2
		c-3.2-0.4-6.7-0.4-9.7-0.4c0.4-0.3,0.8-0.6,1.2-0.9c0.9-0.8,1.6-1.6,2.3-2.5c1.5-2.2,2.6-5,3.4-7.9c1-4,1.4-8.4,1.7-12
		c0.4-4.7-0.6-9.4-2.7-13.5c-2.1-4.1-5.2-7.7-9.1-10.3c-2.5-1.7-5.2-3.2-7.8-5c-1-0.7-2-1.4-3-2.2c1.8-3,2.8-6.1,1.9-8.4
		c-0.7-1.8-2.5-3.5-6.3-4.1c-8.2-1.3-14.3,1.8-17.7,7c-3.2,5-3.9,12-1.1,19.1c0.7,1.9,1.8,3.6,2.9,5.3c2.5,3.6,5.6,6.8,8.1,10.2
		C395.8,299.3,400.7,305.1,402.6,308z"/>
	<g transform="matrix(1,0,0,1,-9.74789,-97.6683)">
		<path class="st18" d="M399.6,342.8c2.7-6.7,5.8-13.2,8.2-20c1.4-4.1,2.1-8.9,4.3-12.6c0.2-0.3,0.2,0.7,0.2,1
			c0.2,0.8,0.4,1.7,0.5,2.5c0.3,2.2,0.7,4.4,1.1,6.7c1.2,6.9-0.6,14.6,1.1,21.3c0.1,0.2,0.3-0.4,0.5-0.5c0.4-0.4,0.9-0.6,1.4-0.8
			c1.5-0.5,3.3-0.7,4.9-0.7c2.5,0,5,0.9,7.5,1.1c3,0.2,6.2-0.3,9.2,0.1c0.4,0.1-1,2.6-1.1,2.8c-0.5,0.7-1.2,1.3-1.9,1.9
			c-3.4,3.1-6.5,6.4-9.9,9.4c-1,0.9-4,2.9-4.5,4.2c0,0,0.5,0.5,0.5,0.5c1.1,1.3,1.7,2.8,2.3,4.4c2.2,6.1,5.5,11.4,8.7,17
			c0.5,0.9,3.4,5.4,3,6.4c0,0.1-2.2-0.5-2.4-0.6c-1.4-0.4-2.6-0.9-3.9-1.5c-5.3-2.5-10-5.7-15.2-8.3c-0.6-0.3-3.9-3.2-4.5-3.1
			c-0.3,0.1-2.9,4.1-3.4,4.6c-4.1,4.2-8.2,8.4-12.1,12.8c-1.4,1.5-2.5,3.3-4,4.7c0,0-0.5,0.5-0.5,0.5c-0.8-0.4,0.4-7,0.6-7.9
			c1.3-6.1,3.2-11.9,5.7-17.6c0.5-1.2,3-5.5,2.5-6.9c-1.2-3.4-6.2-5.2-8.9-7.1c-3.4-2.4-5.7-6-8.9-8.5c-1.7-1.4-3.7-2.9-5.5-4.1
			c-0.8-0.5-1.5-1.1-2.1-1.8c-0.2-0.2-0.9-0.5-0.6-0.6c1.3-0.6,3.6-0.3,4.9-0.4c8-0.5,14.9,0.5,22.7,1.3"/>
		<path class="st15" d="M398.7,340.4c-1.1,0-2.2,0-3.2-0.1c-3.8-0.3-7.5-0.8-11.3-0.9c-2.3-0.1-4.6,0-7,0.1c-0.9,0.1-2.3,0-3.5,0.2
			c-0.8,0.1-1.5,0.3-2,0.6c-0.9,0.5-1.1,1.1-1.1,1.7c0,0.3,0.1,0.7,0.4,1.1c0.1,0.1,0.5,0.5,0.7,0.6c0.3,0.4,0.7,0.8,1.1,1.1
			c0.4,0.4,0.8,0.7,1.3,1l5.3,4c2.2,1.8,3.9,4,5.9,6c1,1,2,1.9,3.1,2.6c1.6,1.1,4,2.3,5.9,3.6c1,0.7,1.9,1.4,2.4,2.4
			c-1.7-0.2-2,4.7-2.4,5.6c-1.2,2.9-2.4,5.8-3.3,8.8c-1,3-1.8,6-2.5,9.1c-0.2,0.8-1,5.8-0.8,7.7c0.1,1.3,0.8,2,1.3,2.2
			c0.2,0.1,1.2,0.5,2.1-0.3c0.1-0.1,0.5-0.5,0.5-0.5c0.5-0.5,1-1,1.4-1.5c0.9-1.1,1.7-2.2,2.7-3.3c1.9-2.2,3.9-4.3,5.9-6.4
			c2-2.1,4.1-4.2,6.1-6.2c0.3-0.3,1.5-2,2.4-3.3l0.1,0.1c1.2,1,2.7,2.1,3.1,2.3c3.6,1.8,7,3.9,10.5,5.8c1.6,0.8,3.1,1.7,4.8,2.4
			c0.8,0.4,1.6,0.7,2.5,1c0.6,0.2,1.2,0.4,1.8,0.6c0.2,0,1.7,0.3,2.4,0.3c1.5,0.1,2.2-1,2.2-1.2c0.2-0.5,0.1-1.4-0.3-2.5
			c-0.7-1.8-2.3-4.6-2.7-5.3c-1.9-3.3-3.8-6.6-5.5-9.9c-1.1-2.2-2.1-4.4-3-6.8c-0.4-1-0.8-2-1.3-3c-0.3-0.5-0.6-1-1-1.5
			c0.1-0.1,0.3-0.2,0.4-0.4c1-0.9,2.3-1.8,2.9-2.4l9.9-9.5l2.1-2.2c0.1-0.2,1.3-2.3,1.4-3.1c0.3-1.5-0.7-2-1.4-2.1
			c-1-0.1-2-0.2-3-0.2c-2.1,0-4.3,0.2-6.3,0c-1.7-0.1-3.4-0.6-5.1-0.9c-0.8-0.1-1.7-0.2-2.5-0.2c-0.9,0-1.8,0-2.7,0.1
			c-0.9,0.1-1.9,0.3-2.8,0.6l-0.2,0.1c-0.1-0.5-0.1-1-0.1-1.5c-0.4-5.6,0.6-11.6-0.4-17.2l-1.2-6.6l-0.6-2.7
			c-0.1-0.4-0.3-1.4-0.5-1.5c-0.4-0.5-0.8-0.6-1.3-0.6c-0.3,0-0.7,0.2-1.2,0.7c-0.2,0.2-0.4,0.4-0.6,0.7c-0.6,0.9-1,2.1-1.4,3.2
			c-1.1,2.9-1.7,6.1-2.7,9c-2.2,6.1-4.9,11.9-7.4,17.9C398.8,340.2,398.8,340.3,398.7,340.4z M411.6,315.9c-0.7,2.5-1.3,5.1-2.1,7.5
			c-2.2,6.2-4.9,12.1-7.4,18.1l0,0.1c0.3,0.4,0.4,1,0.4,1.5c-0.1,1.3-1.3,2.2-2.6,2.1c-1.5-0.3-3-0.6-4.5-0.8
			c-2.3-0.3-4.5-0.5-6.8-0.7c-3.6-0.3-7.2-0.4-11.1-0.2l-0.2,0c0.4,0.3,0.8,0.5,1.2,0.8c1.2,0.8,2.3,1.7,3.3,2.6
			c2.3,1.8,4.2,4.2,6.3,6.3c0.8,0.8,1.6,1.5,2.5,2.2c1.9,1.3,5,2.6,7.1,4.5c1.2,1.1,2.1,2.3,2.5,3.7c0.2,0.6,0.2,1.5-0.1,2.6
			c-0.5,1.9-2.1,4.8-2.5,5.7c-1.2,2.8-2.3,5.6-3.2,8.5c-0.9,2.9-1.7,5.8-2.4,8.8c-0.1,0.3-0.3,1.3-0.4,2.5l1.2-1.4l12.1-12.9
			c0.4-0.4,2.1-3.1,2.9-4.1c0.7-0.9,1.4-1.1,1.6-1.1c0.4-0.1,1.3,0,2.4,0.7c1.2,0.7,2.9,2.2,3.3,2.4c3.6,1.9,7.1,4,10.6,6
			c1.5,0.8,2.9,1.6,4.5,2.3l2.3,0.9c-0.7-1-1.3-2-1.5-2.4c-1.9-3.4-3.9-6.7-5.6-10.1c-1.2-2.3-2.3-4.7-3.2-7.2
			c-0.2-0.7-0.5-1.4-0.8-2.1c-0.3-0.6-0.6-1.2-1-1.7c0,0,0.1,0.1,0.1,0.1s-0.3-0.4-0.4-0.5c-0.6-1-0.5-1.8-0.4-1.8
			c0.2-0.6,0.8-1.3,1.6-2.1c1.1-1,2.7-2.1,3.4-2.7l9.9-9.4l1.7-1.7c0,0,0.1-0.2,0.1-0.5l-0.5,0c-2.2,0-4.4,0.2-6.6,0.1
			c-1.8-0.1-3.6-0.6-5.4-0.9c-0.7-0.1-1.3-0.2-2-0.2c-0.7,0-1.5,0-2.3,0.1c-0.7,0.1-1.4,0.2-2.1,0.5l-0.9,0.5c0,0,0.1-0.2,0.1-0.2
			s-1,1.1-1.3,1.1c-0.5,0.1-0.9,0.1-1.3-0.2c-0.3-0.2-0.6-0.4-0.8-1.1c-0.4-1.5-0.6-3-0.7-4.5c-0.4-5.5,0.5-11.4-0.4-16.9
			L411.6,315.9z M435.2,385.6c0.1,0,0.2,0,0.3,0c0,0,0.3-0.2,0.2,0C435.7,385.7,435.5,385.7,435.2,385.6z"/>
	</g>
	<path class="st17" d="M399.6,1030.3c2-17.8,1.7-26.4,3.9-43.5c1.8-13.9,1.4-27.8,4.7-41.5c6.6-27.3,25.5-59.9,38.5-85.3
		c8.2-16,15.4-33.3,24.8-48.6c2.4-3.9,4.9-7.8,7.4-11.7c0.1-0.2,1-1.3,0.9-1.4c-1.5-1.9-26.2-3.5-28.5-3.4
		c-18.5,0.9-35.5-11.9-41,13.3c-1.4,6.3-1.4,13-2.6,19.4c-8.1,43.9-11.1,89-9.2,133.8C399.4,979.3,399.6,1030.3,399.6,1030.3z"/>
	<path class="st15" d="M400.2,1030.3l0,0.1h0.9c-0.1,0.4-0.8,0.6-1.6,0.6c-0.8,0-1.5-0.3-1.5-0.7v0c0,0-0.1-21.4-0.4-41.4
		c-0.1-10.8-0.4-21.2-0.6-27.5c-1-22.4-0.7-44.9,0.8-67.3c1.5-22.4,4.3-44.8,8.3-66.8c0.9-5.1,1.1-10.3,1.9-15.5
		c0.2-1.3,0.4-2.7,0.7-4c0.2-1.2,0.6-2.2,0.8-3.2c0.1-0.3,0.1-0.6,0.1-0.8c1.9-8.1,6.6-11.3,11.4-12.5c8-2,18.8,2.5,30.1,2
		c1.2-0.1,7.9,0.3,14.6,1c0.7,0.1,1.4,0,2,0.2c0.3,0.1,0.5,0.3,0.8,0.3c4.4,1.1,8.6,1.1,10.5,1.7c0.9,0.3,1.4,0.7,1.7,1
		c0.1,0.2,0.6,0.9,0.1,1.8c-0.2,0.4-0.8,1.2-0.9,1.3l-7.4,11.7c-2.8,4.6-5.4,9.4-7.9,14.2c-5.8,11.3-11,23.1-16.7,34.3
		c-7.7,15.1-17.4,32.6-25.5,50.1c-5.5,11.9-10.2,23.8-12.9,34.8c-1,4-1.6,8.1-2.1,12.2c-1.2,9.7-1.4,19.4-2.7,29.2
		c-2,14-2,22.3-3.4,34.7c-0.1,1.2-0.2,2.4-0.4,3.6c0,3.1,0,4.9,0,4.9L400.2,1030.3z M477.7,799L477.7,799l-7.4,11.7
		c-2.9,4.6-5.5,9.5-8.1,14.4c-5.9,11.3-11.2,23.1-16.9,34.3c-7.7,15.1-17.5,32.7-25.6,50.2c-5.6,12.1-10.3,24.3-13,35.5
		c-1,4.2-1.7,8.3-2.1,12.5c-1.1,9.7-1.3,19.4-2.5,29.2c-0.5,4.1-0.8,7.8-1.1,11.2c0-3-0.1-6-0.1-8.9c-0.1-10.9-0.3-21.3-0.6-27.6
		c-1-22.3-0.7-44.7,0.8-67c1.5-22.3,4.3-44.5,8.4-66.4c1-5.1,1.2-10.4,1.9-15.6c0.2-1.3,0.4-2.5,0.7-3.7c0.2-1.1,0.4-2.1,0.8-3
		c0.1-0.2,0.3-0.5,0.3-0.7c2.5-6.1,5-9.2,8.9-10.2c7.8-2,18.4,2.5,29.5,2c1.2-0.1,8.4,0.4,15.3,1c0.3,0,0.6,0.1,0.9,0.1
		c0.3,0,0.6-0.2,0.9-0.2c3.6-0.1,6.9,0.8,8.9,1.3C477.5,798.9,477.6,799,477.7,799z"/>
</g>
<g id="Layer4" transform="matrix(1,0,0,1,-291.253,-170.588)">
	<path class="st19" d="M1049.7,464c2.3-19.7,14.8-28.9,34.1-30.4c7.7-0.6,13.6,0.1,18.1,2.2c7.7,3.7,11,11.6,10.8,24.8
		c-0.1,11.5,0.8,28.1-8.6,33.9c-14.5,8.9-38.3-0.1-45.7,0.2C1049.8,495,1048.2,476.5,1049.7,464z"/>
	<path class="st20" d="M1048,463.8c-0.3,1.3-0.6,2.6-0.8,3.9c-0.2,1.9-0.3,4-0.3,6c0,5.5,0.8,10.9,2.3,15.1c1.8,5.2,5,8.3,9.2,8.1
		c4.8-0.2,16.2,3.4,27.6,3.7c6.8,0.1,13.6-0.9,19.1-4.3c4.5-2.8,6.9-7.7,8.1-13.4c1.5-7.1,1.2-15.5,1.3-22.1c0-7.4-1-13.3-3.2-17.7
		c-2-4-4.9-6.9-8.8-8.7c-2.2-1-4.7-1.7-7.6-2.1c-3.3-0.5-7.1-0.5-11.4-0.1c-9.9,0.8-18.2,3.6-24.2,8.7c-4.5,3.8-8,8.8-9.6,15.4
		c-0.6,2.4-0.8,5-0.9,7.7L1048,463.8z M1050.3,464c0.5-2.6,1.3-4.9,2.1-7.1c2-5.8,4.8-10.5,8.9-14c5.6-4.7,13.3-7.2,22.5-7.9
		c4-0.3,7.6-0.2,10.7,0.3c2.5,0.4,4.7,1,6.6,1.9c3.2,1.5,5.6,3.9,7.1,7.2c1.9,4,2.7,9.3,2.6,16.1c-0.1,6.4,0.2,14.5-1.4,21.3
		c-1,4.6-2.8,8.6-6.4,10.8c-4.9,3-10.9,3.7-16.9,3.6c-11.5-0.3-23.1-4-27.9-3.8c-1.2,0-2.2-0.6-3-1.6c-1.3-1.6-2.1-4-2.7-6.7
		c-0.6-2.9-0.9-6.2-1.1-9.5c-0.1-2.2,0-4.4-0.1-6.5c0-1.4-0.1-2.8-0.1-4.1L1050.3,464z"/>
	<path class="st19" d="M1054.5,613.7c-0.5,17.2-2.1,112.2-2.8,125.1c-1.5,29.9-3.7,58.6-5.4,113.4c-2.7,87.1,12.6,290.9,13.6,318.8
		c0.7,18-12.4,34.9-0.7,49.8c5,6.4,8.4,9.4,15.1,14.1c11.4,8,32.3,13.6,40.1-2.2c2.2-4.4,2.5-9.9,2.7-14.6c0.2-9.4,0-19.6-1-28.9
		c-2.6-25-6.7-49.9-7.4-75.1c-1.2-42.5-9.4-212.1-10.4-278.8c-0.5-32.8,4.8-74,7.1-106.7c3-42.9,1.9-77.4,3.1-120.4L1054.5,613.7z"
		/>
	<path class="st20" d="M1054.3,613c-0.9,0-1.6,0.3-1.6,0.7h1.1c-0.2,1.3-0.5,2.9-0.7,5c-0.2,2.1-0.1,4.7-0.2,7.5
		c-0.7,31.4-2,101.6-2.6,112.6c-1,20.4-2.4,40.2-3.7,68c-0.6,13.1-1.2,27.9-1.8,45.4c-1,31.8,0.4,79.1,2.6,127.7
		c3.9,84.7,10.2,173.5,10.9,191.2c0.5,12.5-5.7,24.4-5.6,35.4c0,5.3,1.4,10.4,5.2,15.3c2.6,3.3,4.7,5.7,7.1,7.9
		c2.4,2.2,4.9,4.2,8.3,6.5c7.1,5,17.7,9,26.8,8c6.4-0.7,12.2-3.8,15.6-10.8c0.9-1.9,1.6-3.9,2-6.1c0.6-3.1,0.8-6.3,0.8-9.2
		c0.1-4.7,0.1-9.6,0-14.6c-0.2-4.9-0.4-9.9-0.9-14.6c-1.8-17.5-4.3-35-6-52.5c-0.7-7.5-1.2-15-1.4-22.5c-0.8-29.5-5-120.1-7.8-195.2
		c-1.2-33.1-2.2-63.2-2.5-83.6c-0.2-10,0.2-20.8,0.9-32c1.6-25.2,4.6-51.9,6.2-74.6c0.9-12.6,1.4-24.5,1.8-36.2
		c0.8-27.8,0.6-54,1.4-84.3c0-0.5-0.2-1-0.6-1.4c-0.4-0.3-0.9-0.5-1.4-0.5l-53.8,5.4V613z M1055.3,615.5l51.1-5.2
		c-0.8,29.5-0.5,55.1-1.3,82.3c-0.3,11.6-0.9,23.4-1.7,36c-1.6,22.7-4.6,49.5-6.1,74.7c-0.7,11.2-1.1,22.1-0.9,32.2
		c0.3,20.4,1.3,50.5,2.6,83.7c2.9,75,7.1,165.7,7.9,195.1c0.2,7.6,0.8,15.2,1.4,22.7c1.6,17.5,4.2,35,6,52.5
		c0.5,4.6,0.8,9.5,0.9,14.3c0.2,4.9,0.2,9.7,0,14.4c-0.1,2.8-0.2,5.8-0.8,8.7c-0.4,1.9-0.9,3.6-1.7,5.3c-2.9,5.8-7.7,8.4-13.1,9
		c-8.4,0.9-18.2-2.9-24.7-7.5c-3.3-2.3-5.7-4.2-8-6.3c-2.3-2.1-4.3-4.4-6.8-7.5c-3.4-4.3-4.5-8.8-4.6-13.4
		c-0.1-11.1,6.1-23.1,5.6-35.5c-0.7-17.7-7.1-106.5-11-191.2c-2.3-48.6-3.7-95.8-2.7-127.5c0.5-17.5,1.1-32.3,1.7-45.4
		c1.3-27.9,2.6-47.7,3.6-68c0.5-11,1.8-81.2,2.4-112.7c0.1-2.8,0.2-5.4,0.2-7.5C1055.6,617.5,1055.4,616.4,1055.3,615.5z"/>
	<path class="st10" d="M942.5,386.9c-25.7,13.5-54.5,61.9-57.5,87.2c-2.7,22-14,123.8-8.5,153.6c8.6,46.8,24.7,67.8,24.8,67.6
		c10.3-22.8,19.2-43.7,42.6-59.5c22.1-14.9,213-18,238.9-14.8c57.2,7,54.8,67.3,56.1,68c2.1,1.3,7.7-13.6,8.2-14.9
		c22.3-72.9,26.7-152.2,21.5-227.6c-0.9-12.4-14.1-39.2-22.2-50c-0.9-1.2-10.1,37.9-29.1,47c-31,14.8-101,18.9-135.8,20.7
		c-25.4,1.4-74.5,4.1-96.6-10c-14.8-9.5-26.7-30.1-32.4-48.2C952.1,404.9,942.5,386.9,942.5,386.9z"/>
	<path class="st15" d="M942.2,386.3c-0.3-0.1-0.4-0.2-0.7-0.1c-1.6,0.2-2.8,1.6-4.2,2.5c-11.4,7.5-23,21-32.6,35.8
		c-11.2,17.4-19.5,36.4-21.1,49.5c-1.6,13.1-6.2,54.5-8.6,92.1c-1.6,25.7-2.1,49.7,0.1,61.9c3.2,17.6,7.6,31.5,11.7,42.1
		c4.8,12.3,9.2,20.1,11.6,23.7c0.8,1.2,1.3,1.9,1.6,2.2c0.1,0.2,0.2,0.3,0.3,0.3c0.2,0.2,0.3,0.3,0.4,0.3c1.2,0.6,1.8-0.1,2-0.7
		c6.3-13.9,12.1-27.1,21-38.8c5.5-7.3,12.3-14,21.1-20c9.4-6.3,49.3-10.3,94-12.7c60.2-3.3,129-3.6,143.8-1.7
		c19.8,2.4,32.3,11.3,40.2,21.9c10.7,14.4,13,31.7,13.8,39.9c0.2,2.2,0.3,3.7,0.5,4.5c0.2,1,0.7,1.4,0.9,1.5c0.7,0.4,1.4,0.5,2.3,0
		c0.7-0.4,1.5-1.3,2.4-2.7c2.5-4.1,5.6-12.1,5.9-13.1c11.2-36.5,18-74.7,21.3-113.1c3.3-38.5,3.1-77.3,0.5-115.1
		c-0.4-5.4-2.9-13.4-6.5-21.6c-4.8-11.2-11.3-23-16.1-29.4c-0.6-0.8-1.3-0.9-2.1-0.7c-0.3,0.1-0.8,0.3-1.3,1.1
		c-0.3,0.5-0.8,1.8-1.4,3.6c-2.3,6.6-7.2,21-14.9,31.6c-3.3,4.6-7.2,8.6-11.7,10.7c-12.7,6.1-32.1,10.3-52.8,13.3
		c-29.6,4.3-61.9,6.1-82.3,7.2c-14.8,0.8-37.8,2.1-58.7,0.2c-14.4-1.3-27.9-4.2-36.8-9.9c-7.4-4.7-14-12.2-19.5-20.8
		c-5.3-8.3-9.6-17.6-12.4-26.3c-0.3-0.9-6.2-12.9-9.1-17.4c-0.5-0.8-1-1.3-1.2-1.6c-0.7-0.9-1.6-0.6-1.7-0.6L942.2,386.3z
		 M941.9,388.8c0.1,0.2,0.2,0.5,0.3,0.8c2.1,4.7,8.4,16.1,8.7,16.9c2.8,9,7.1,18.6,12.5,27.2c5.7,9.1,12.7,17.1,20.4,22.1
		c9.3,6,23.4,9.1,38.5,10.5c21.1,2,44.2,0.7,59.2-0.1c20.4-1.1,53-3,82.6-7.3c21.2-3.1,40.9-7.5,53.9-13.7
		c6.5-3.1,11.9-9.5,16.3-16.8c6.2-10.4,10.3-22.5,12.3-28.1c4.4,6.5,9.7,16.4,13.8,26c3.3,7.8,5.8,15.4,6.2,20.4
		c2.6,37.7,2.8,76.3-0.3,114.6c-3.2,38.2-9.8,76.1-20.9,112.5c-0.3,0.9-3.1,8.5-5.4,12.3c-0.1-0.5-0.1-1.1-0.2-1.8
		c-0.9-8.5-3.4-26.5-14.5-41.4c-8.3-11.2-21.4-20.7-42.3-23.3c-14.8-1.8-83.9-1.6-144.4,1.8c-45.5,2.5-86.1,7-95.6,13.4
		c-9.2,6.2-16.2,13.1-21.9,20.7c-8.5,11.3-14.2,23.9-20.2,37.2c-0.2-0.3-0.3-0.5-0.5-0.8c-2.9-4.4-8.3-14-13.6-29.2
		c-3.3-9.4-6.5-21-9-34.9c-2.2-12-1.7-35.7-0.1-61.2c2.3-37.6,7-78.9,8.6-91.9c1.5-12.7,9.7-31.3,20.6-48.3
		c9.3-14.5,20.5-27.8,31.6-35.3C939.6,389.9,940.9,389.5,941.9,388.8z"/>
	<path class="st21" d="M969.5,629.8c-8.2-1.3-15.8-5.7-24.2-4.9c-10.3,0.9-24.5,12.4-34.1,3.9c-9.3-8.3-10.7-23.5-12.5-35.1
		c-5.7-36.5,2.2-75.2,10.7-110.6c2.7-11,8.9-37,19.3-43.5c15.5-9.6,31.8,16.8,44.3,22.4c12.2,5.5,25.1,1.6,37.5,0.5
		c26.1,3.6,93.4,5.5,167.4-7.8c7.5-0.3,52.2-0.7,59,4.6c24.2,19,21,84,15.2,110.8c-3.9,17.6-4.8,40.8-19.9,53.3
		c-5.7,4.7-28.9-3.8-36.7-4.6c-6.2-0.6-12.9-0.2-19.1,0.4C1096.2,617.7,1043.1,621.5,969.5,629.8z"/>
	<path class="st15" d="M969.4,631c0.1,0,0.2,0,0.3,0c37.7-4.3,69.9-7.4,103.3-9.3c31.8-1.7,64.5-2.3,103.6-1.6c0,0,0.1,0,0.1,0
		c3.7-0.4,7.5-0.7,11.4-0.7c2.6,0,5.1,0,7.5,0.3c5,0.5,16.6,4.2,25.7,5.5c5.1,0.7,9.5,0.6,11.6-1.1c6.2-5.1,10.1-12,12.8-19.6
		c3.9-11.1,5.2-23.6,7.5-34.1c3.5-15.7,6.1-44.4,2.8-69.5c-2.4-18.1-7.9-34.3-18.1-42.4c-2.4-1.9-9.4-3.2-17.9-3.9
		c-15.8-1.3-36.9-1-41.8-0.8c0,0-0.1,0-0.1,0c-29.6,5.5-58.1,8.5-83.3,9.9c-8.8,0.5-17.3,0.8-25.2,0.9c-26,0.3-46.6-1.4-58.6-3.1
		c-0.1,0-0.2,0-0.2,0c-7.5,0.6-15.1,2.1-22.6,2.1c-4.8,0-9.6-0.7-14.3-2.8c-8.5-3.8-18.7-17.1-29.2-22.2c-5.4-2.6-10.9-3.3-16.3,0.1
		c-4.5,2.8-8.3,9-11.3,16.3c-4.1,9.9-6.9,21.5-8.4,28c-5.1,21.3-9.8,43.7-11.7,66.2c-1.2,15.1-1.2,30.1,1,44.8
		c1.1,6.9,2,15.2,4.6,22.5c1.8,5.1,4.3,9.7,8.2,13.2c3.2,2.8,6.8,3.6,10.7,3.3c8-0.7,17-6.3,24.1-6.9c2.4-0.2,4.8,0,7.1,0.5
		C958.2,627.5,963.6,629.9,969.4,631L969.4,631z M969.4,628.7c-5.6-0.9-11-3.3-16.5-4.4c-2.5-0.5-5.1-0.7-7.7-0.5
		c-7.1,0.7-16.1,6.3-24.1,7c-3.4,0.3-6.5-0.3-9.3-2.8c-3.6-3.2-6-7.6-7.7-12.4c-2.5-7.2-3.5-15.3-4.6-22.1
		c-2.3-14.6-2.4-29.5-1.2-44.4c1.9-22.4,6.9-44.7,12-65.8c1.6-6.4,4.4-17.9,8.5-27.6c2.9-6.7,6.3-12.6,10.5-15.1
		c4.6-2.8,9.3-2.2,13.9,0.1c10.5,5.3,20.8,18.6,29.2,22.5c5,2.2,10.2,3,15.4,2.9c7.6-0.1,15.2-1.8,22.7-2.6
		c12.1,1.5,32.8,2.5,58.8,2c7.9-0.1,16.4-0.3,25.2-0.8c25.3-1.2,53.9-4,83.5-9.2c5-0.2,25.8-0.3,41.5,1.1c7.9,0.7,14.5,1.7,16.7,3.5
		c9.9,7.8,15.1,23.4,17.4,40.9c3.4,24.8,1,53.3-2.4,68.8c-2.3,10.5-3.5,23-7.3,34c-2.6,7.3-6.3,14-12.2,18.9
		c-1.9,1.5-5.8,1.4-10.4,0.8c-9.1-1.3-20.7-5.1-25.7-5.6c-2.5-0.2-5.1-0.3-7.7-0.3c-3.8,0-7.7,0.3-11.5,0.7
		c-39.2-0.8-71.9-0.4-103.7,1.3C1039.4,621.5,1007.1,624.5,969.4,628.7L969.4,628.7z"/>
	<path class="st20" d="M1116.3,553.5c0.2-0.9,0.6-1.6,0.7-2.5c0.3-1.9,0.1-3.8,0.1-5.8c0.3-17.3,1-34.6,1.7-51.9
		c0.3-7.4,0.7-14.9,0.8-22.3c0-1-0.8-1.8-1.7-1.8c-1,0-1.8,0.8-1.8,1.7c0,7.4-0.2,14.8-0.4,22.2c-0.5,17.3-1.6,34.6-1.6,52
		c0,1.9-0.2,3.9,0.1,5.8c0.1,0.9,0.5,1.6,0.7,2.5c0,0.4,0.3,0.7,0.7,0.7C1115.9,554.2,1116.3,553.9,1116.3,553.5z"/>
	<path class="st20" d="M1044.1,548.9c0.2-0.2,0.2,0,0.4-0.3c0-0.1,0-0.1,0-0.2c0-1.3-0.1-2.6-0.1-3.9c0-2.6,0-5.2,0-7.9
		c0-10.6,0.5-21.2,0.4-31.7c0-5.8-0.3-11.6-0.3-17.4c0-2.1,0-4.1,0.2-6.2c0.1-1.4,0.4-2.7,0.5-4.1c0-0.4,0-0.8,0-1.1
		c0.1-0.9-0.6-1.7-1.5-1.8c-0.9-0.1-1.7,0.6-1.8,1.5c-0.1,0.3-0.2,0.6-0.2,0.9c-0.4,2.6-0.2,5.3-0.2,8c0,6.8,0.3,13.6,0.3,20.4
		c0,10.2-0.6,20.5-0.5,30.8c0,4,0.2,8,0.5,12c0,0.4-0.1,0.8,0.1,1.1c0.1,0.2,0.2,0.1,0.4,0.2c0,0.5,0.5,0.9,1,0.9
		C1043.7,549.9,1044.1,549.4,1044.1,548.9z"/>
	<path class="st20" d="M1113.3,604.4c-0.7,0.2-0.4-0.3-0.9,0.3c-0.1,0.1-0.1,0.4-0.1,0.5c-0.4,2.5-0.9,4.9-0.9,7.4
		c0,0.3,0,0.6,0.1,0.8c-0.1,0.8,0.5,1.4,1.2,1.5c0.8,0.1,1.4-0.5,1.5-1.2c0.1-0.3,0.2-0.5,0.2-0.8c0.5-2.4,0.7-4.9,0.9-7.3
		c0-0.2,0.1-0.4,0-0.5c-0.3-0.6-0.1-0.1-0.8-0.5c0.1-0.4-0.2-0.7-0.6-0.8C1113.7,603.8,1113.3,604.1,1113.3,604.4z"/>
	<path class="st20" d="M1045.6,613.8c0-0.1,0.1-0.2,0.5-0.1c0.1,0.5,0.5,0.9,1.1,0.9c0.5,0,0.9-0.5,0.9-1.1c1.2-0.3,0,0.7,0.6,0
		c0,0,0.1-0.1,0.1-0.2c0.1-0.1,0-0.2,0-0.3c0-1.3,0.2-2.5,0-3.8c0-0.1,0-0.2-0.1-0.2c-0.2-0.2-0.3-0.3-0.3-0.4
		c-0.4-0.4,0.6,0.4-0.7,0.1c0-0.4-0.3-0.7-0.7-0.7c-0.4,0-0.7,0.3-0.7,0.7c-1.4,0.4-0.1-0.8-1.1,0.3c-0.1,0.2-0.1,0.4-0.1,0.7
		c-0.1,1.2,0,2.4,0.2,3.6c0,0.1,0,0.2,0,0.3C1045.9,614.1,1045.6,614,1045.6,613.8z"/>
	<path class="st22" d="M1176,485c-8.9-13.7-46.5,9.6-23.7,29.3C1178.1,536.4,1186.5,501.1,1176,485z"/>
	<path class="st15" d="M1177.7,483.8c-2-3.1-5.2-4.7-9-5c-6.4-0.5-14.4,3-19.8,8.6c-3.9,4.1-6.3,9.2-5.9,14.7
		c0.4,4.5,2.6,9.2,7.8,13.8c11,9.6,19.5,9.3,24.8,4.8c4.4-3.8,6.6-10.9,6.8-18.3c0.1-6.6-1.3-13.5-4.6-18.6L1177.7,483.8z
		 M1174.1,486.2c2.9,4.4,4.4,10.4,4.2,16.1c-0.1,3.9-1.2,7.7-2.8,10.7c-3.5,6.8-10.7,9-21.8-0.5c-4.2-3.5-6.3-7.2-6.6-10.7
		c-0.4-4.3,1.6-8.3,4.7-11.6c3.8-4,9.2-6.7,14-7.3c3.5-0.4,6.6,0.4,8.4,3.1L1174.1,486.2z"/>
	<path class="st15" d="M1163.7,498.2c-2.8-1.8-9.5,4.2-3.3,6.9C1165.8,507.6,1168.8,501,1163.7,498.2z"/>
	<path class="st22" d="M991.1,495.1c-13.3-14.2-43.4,18.8-23.3,29.1C981.6,531.3,1006.8,511.9,991.1,495.1z"/>
	<path class="st15" d="M992.8,493.6c-7.6-7.8-19.6-2.8-27.2,5.7c-2.1,2.3-3.9,4.8-5.1,7.4c-0.4,0.9-0.8,1.9-1,2.9
		c-1,4.4-0.2,8.5,2.5,12c1.2,1.6,2.8,3,5,4.3c3.9,2.2,8.8,2.7,13.5,1.4c4.4-1.2,8.4-4.2,11.7-7.5c1.4-1.5,2.8-3,3.8-4.7
		c1.7-2.7,2.8-5.7,2.9-9c0-0.8-0.1-1.6-0.2-2.4C997.9,500.2,996.1,496.8,992.8,493.6L992.8,493.6z M989.5,496.7
		c2.2,2.6,3.3,5.3,3.7,7.9c0.8,4.5-0.5,8.9-3.6,12.2c-2.6,2.8-6.4,4.6-10.1,5.7c-3.8,1.2-7.7,1.6-11,0.1c-2-1-3.6-2.1-4.5-3.6
		c-1.5-2.4-1.3-5.4-0.4-8.3c0.1-0.3,0.2-0.6,0.3-0.9c0.9-2.8,2.2-5.7,4.3-8.2C974.1,494.8,983.8,490.4,989.5,496.7L989.5,496.7z"/>
	<g transform="matrix(1.08187,0.353921,-0.353921,1.08187,269.047,-638.712)">
		<path class="st20" d="M904.9,768.4c-4.2-0.3-5.3-11,3.3-8.5C914.8,761.9,910.2,770.8,904.9,768.4z"/>
	</g>
	<path class="st23" d="M1009.9,567c0,0,26.6-1.5,38.8-1.9c31.1-0.9,61.2-2.6,92.3-1.7c0,0-5,17-10.7,23.4
		c-20.9,23-70.3,27.4-95.8,9.9C1024.8,590.1,1016.2,577,1009.9,567z"/>
	<g>
		<defs>
			<path id="SVGID_00000106864945697636743560000004009600750496749454_" d="M1009.9,567c0,0,26.6-1.5,38.8-1.9
				c31.1-0.9,61.2-2.6,92.3-1.7c0,0-5,17-10.7,23.4c-20.9,23-70.3,27.4-95.8,9.9C1024.8,590.1,1016.2,577,1009.9,567z"/>
		</defs>
		<clipPath id="SVGID_00000142162256874645725940000017022457914071942330_">
			<use xlink:href="#SVGID_00000106864945697636743560000004009600750496749454_"  style="overflow:visible;"/>
		</clipPath>
		<g style="clip-path:url(#SVGID_00000142162256874645725940000017022457914071942330_);">
			<path class="st19" d="M1054.8,614.2c0-27-1.6-52.1-1.2-63.5c0.2-5.7,55.1-2.6,54.8,2.9c-0.8,18-0.1,48.4-1.3,56.7
				C1105.8,619.5,1056.3,611.7,1054.8,614.2z"/>
			<path class="st20" d="M1053.6,612.4c-0.1-0.9-0.3-1.8-0.4-2.6c0-0.6,0-1.3,0-1.9c-0.5-24.6-1.9-46.7-1.6-57.2
				c0-1.2,1.1-2.7,3.5-3.5c4.5-1.5,15.4-1.8,26.2-1.3c10.8,0.6,21.6,2.1,25.9,4c2.4,1.1,3.3,2.7,3.3,3.9
				c-0.6,12.9-0.4,32.4-0.6,45.3c-0.1,5.1-0.3,9.2-0.6,11.6c-0.2,1.6-1.2,3-3.1,4c-1.8,1-4.6,1.7-8.1,2c-11.5,1.2-30.6-0.8-39.1-0.8
				c-1.5,0-2.9,0.7-3.1,0.2c-0.2-0.4,0.6-0.4,0.7-0.7h-1c-0.2,0.8-0.6,1.2-1,0.9s-0.7-1.1-0.7-2v0c0-0.3-0.1-0.5-0.1-0.8l-0.8-0.3
				C1053.1,612.9,1053.3,612.7,1053.6,612.4z M1106.2,553.9c-0.6,13-0.4,32.3-0.7,45.2c-0.1,4.9-0.3,8.8-0.6,11.1
				c0,0.2-0.2,0.4-0.5,0.5c-0.4,0.3-1,0.6-1.6,0.8c-2.5,0.9-6.3,1.2-10.6,1.4c-11.6,0.3-27-1.2-33.9-1.2c-0.9,0-1.8,0-2.4,0.1
				c0.1-0.8,0.2-1.7,0.3-2.6c0.2-2.6,0-5.1,0-7.6c-0.1-21.5-1.1-40.4-0.7-50.1c0.5-0.2,1.9-0.7,3.2-0.9c5.1-0.8,13.7-0.9,22.3-0.4
				c8.5,0.5,17,1.5,22.1,2.9C1104.2,553.3,1105.6,553.5,1106.2,553.9z M1106.2,553.9c0.3,0.1,0.4,0.3,0.2,0.5
				C1106.3,554.5,1106.2,554.2,1106.2,553.9z"/>
		</g>
	</g>
	<path class="st15" d="M1009.8,564.9c-0.7,0-1.4,0.5-1.7,1.1c-0.3,0.7-0.3,1.5,0.1,2.1c3.6,6,8.1,13.2,13.2,19.5
		c1.7,2.1,3.5,4.2,5.4,5.9c2.1,1.9,4.3,3.6,6.5,5c7,4.4,15.6,7.1,24.9,8.7c8.4,1.4,17.2,2,26.1,1.2c8.9-0.8,17.7-2.6,25.6-5.7
		c8.8-3.4,16.4-8.3,22.1-14.5c2-2.2,4-5.7,5.7-9.3c3.3-7.1,5.6-14.8,5.6-14.8c0.2-0.7,0.1-1.4-0.4-2c-0.4-0.6-1.1-0.9-1.8-1
		c-7.5-0.2-14.9-0.4-22.2-0.3c-1.9,0-3.7,0.1-5.6,0.2c-6.9,0.3-13.8,0.9-20.7,1.2c-1.7,0.1-3.4,0.1-5.2,0.2
		c-12.8,0.3-25.7,0.6-38.8,0.8c-2.2,0-4.9,0.1-7.8,0.2c-5.9,0.2-12.8,0.7-18.6,1C1015.2,564.8,1009.8,565,1009.8,564.9L1009.8,564.9
		z M1013.6,568.9c2.9-0.2,7.2-0.4,11.9-0.7c4.5-0.2,9.5-0.4,14-0.6c3.5-0.2,6.7-0.4,9.3-0.5c12.4-0.5,24.7-1.3,36.9-1.7
		c3.1-0.1,6.1-0.2,9.2-0.2c7.7,0,15.3,0.3,23,0.4c6.6,0.1,13.3,0,19.9,0.1c-0.9,2.8-2.4,7.2-4.3,11.3c-1.5,3.2-3.1,6.3-4.9,8.3
		c-5.2,5.8-12.3,10.4-20.4,13.8c-7.5,3.1-15.9,5.3-24.4,6.2c-8.5,0.9-17.2,0.9-25.3-0.7c-8.7-1.7-16.5-5.2-22.8-9.8
		c-1.9-1.4-3.7-3.1-5.5-4.9c-1.7-1.7-3.5-3.5-5.1-5.5C1020.9,579.5,1017,573.9,1013.6,568.9L1013.6,568.9z"/>
</g>
</svg>
